<svg xmlns="http://www.w3.org/2000/svg">
<defs>
<font id="Rafika-Regular" horiz-adv-x="653" >
  <font-face 
    font-family="Rafika"
    font-weight="400"
    font-stretch="normal"
    units-per-em="1000"
    panose-1="1 0 0 0 0 0 0 0 0 0"
    ascent="742"
    descent="-258"
    x-height="645.998"
    cap-height="646.999"
    bbox="-214.001 -257.006 1119.99 943.003"
    underline-thickness="50"
    underline-position="-75"
    unicode-range="U+0017-U+2265"
  />
<missing-glyph horiz-adv-x="660" 
d="M138 -257c-64.667 0 -97 28 -97 84v845c0 56.667 32.333 85 97 85h383c65.333 0 98 -28.333 98 -85v-845c0 -56 -32.667 -84 -98 -84h-383zM182 127c-11.333 -10 -19.667 -20.999 -25 -32.999s-8 -23.667 -8 -35c0 -13.333 2.83301 -26 8.5 -38
s13.334 -22.833 23.001 -32.5s20.667 -17.334 33 -23.001s25.5 -8.5 39.5 -8.5c10.667 0 21.167 1.83301 31.5 5.5s19.833 8.5 28.5 14.5s16 13.167 22 21.5s10 17.5 12 27.5c1.33301 6.66699 2.16602 12.167 2.49902 16.5s0.5 8.5 0.5 12.5c0 7.33301 -1 14 -3 20
s-5.66699 10.667 -11 14zM316.999 615.001c-34.667 -4.66699 -67.5 -17.834 -98.5 -39.501s-56.167 -51.167 -75.5 -88.5c-2.66699 -1.33301 -4 -3.66602 -4 -6.99902c0 -6 5.83301 -14.5 17.5 -25.5s24.667 -22.167 39 -33.5l39.5 -30c12 -8.66699 18.333 -13 19 -13
c4.66699 0 9.16699 2.33301 13.5 7s8.83301 10.334 13.5 17.001s9.66699 13.167 15 19.5s11 11.5 17 15.5c8.66699 5.33301 13.667 10.166 15 14.499s2.66602 10.5 3.99902 18.5l6 21c5.33301 17.333 10.333 34.5 15 51.5s10 35.167 16 54.5l-4 15l-10 4
c-3.33301 0 -6.16602 0.166992 -8.49902 0.5s-4.83301 0.5 -7.5 0.5c-4 0 -7.83301 -0.166992 -11.5 -0.5s-7.16699 -0.833008 -10.5 -1.5zM393.999 590.001l-42 -140.002c6.66699 -6.66699 10 -15.334 10 -26.001c0 -6 -1.5 -11.5 -4.5 -16.5l-9.5 -15.5
c-14.667 -21.333 -33 -39.166 -55 -53.499s-46 -29.166 -72 -44.499c-7.33301 -13.333 -14 -29.833 -20 -49.5s-9 -39.167 -9 -58.5c0 -4.66699 0.5 -9.33398 1.5 -14.001s4.16699 -7.66699 9.5 -9l134 -40c9.33301 2 16.333 7 21 15l12 51c24 16.667 46.333 33.5 67 50.5

<glyph glyph-name="copyright" unicode="&#x28;C&#x29;" horiz-adv-x="756" 
d="M32 322c0 46.667 8.83301 90.5 26.5 131.5s41.834 76.833 72.501 107.5s66.667 54.834 108 72.501s85.333 26.5 132 26.5s90.5 -8.83301 131.5 -26.5s76.833 -41.834 107.5 -72.501s55 -66.5 73 -107.5s27 -84.833 27 -131.5s-9 -90.667 -27 -132
s-42.333 -77.333 -73 -108s-66.5 -54.834 -107.5 -72.501s-84.833 -26.5 -131.5 -26.5s-90.667 8.83301 -132 26.5s-77.333 41.834 -108 72.501s-54.834 66.667 -72.501 108s-26.5 85.333 -26.5 132zM372 623c-42 0 -81.167 -8 -117.5 -24s-68 -37.833 -95 -65.5
s-48.167 -59.834 -63.5 -96.501s-23 -75.667 -23 -117s7.66699 -80.166 23 -116.499s36.5 -68.166 63.5 -95.499s58.667 -48.833 95 -64.5s75.5 -23.5 117.5 -23.5c41.333 0 80.333 7.83301 117 23.5s68.667 37.167 96 64.5s48.833 59.166 64.5 95.499
s23.5 75.166 23.5 116.499s-7.83301 80.333 -23.5 117s-37.167 68.834 -64.5 96.501s-59.333 49.5 -96 65.5s-75.667 24 -117 24zM398 523c6.66699 0 13.8389 -0.333008 21.5059 -1s15 -1.83398 22 -3.50098s13.333 -4 19 -7s9.83398 -6.5 12.501 -10.5l-2 -92
c0 -6 -3.33301 -9 -10 -9c-2 0 -3.66699 0.666992 -5 2c-8 4.66699 -16 8.66699 -24 12s-17.333 5 -28 5c-32 0 -58.667 -8.5 -80 -25.5s-33.666 -40.5 -36.999 -70.5v-3c0 -14 3 -27.167 9 -39.5s14 -23 24 -32s21.667 -16.167 35 -21.5s27.666 -8 42.999 -8
c9.33301 0 18.166 0.833008 26.499 2.5s17.166 5.16699 26.499 10.5c3.33301 3.33301 6.66602 5 9.99902 5c6.66699 0 10.667 -2.33301 12 -7l-2 -95c-0.666992 -4 -3.83398 -7.16699 -9.50098 -9.5s-12.334 -4.5 -20.001 -6.5s-15.834 -4 -24.501 -6s-16 -4.33301 -22 -7
c-27.333 3.33301 -53.833 11.5 -79.5 24.5s-48.5 29.333 -68.5 49s-36 42 -48 67s-18 51.167 -18 78.5c0 26.667 6.16699 51.667 18.5 75s28.666 43.833 48.999 61.5s43.5 31.834 69.5 42.501s52.667 17 80 19z" />
    <glyph glyph-name="registered" unicode="&#x28;R&#x29;" horiz-adv-x="756" 
d="M32 322c0 46.667 8.83301 90.5 26.5 131.5s41.834 76.833 72.501 107.5s66.667 54.834 108 72.501s85.333 26.5 132 26.5s90.5 -8.83301 131.5 -26.5s76.833 -41.834 107.5 -72.501s55 -66.5 73 -107.5s27 -84.833 27 -131.5s-9 -90.667 -27 -132
s-42.333 -77.333 -73 -108s-66.5 -54.834 -107.5 -72.501s-84.833 -26.5 -131.5 -26.5s-90.667 8.83301 -132 26.5s-77.333 41.834 -108 72.501s-54.834 66.667 -72.501 108s-26.5 85.333 -26.5 132zM372 623c-42 0 -81.167 -8 -117.5 -24s-68 -37.833 -95 -65.5
s-48.167 -59.834 -63.5 -96.501s-23 -75.667 -23 -117s7.66699 -80.166 23 -116.499s36.5 -68.166 63.5 -95.499s58.667 -48.833 95 -64.5s75.5 -23.5 117.5 -23.5c41.333 0 80.333 7.83301 117 23.5s68.667 37.167 96 64.5s48.833 59.166 64.5 95.499
s23.5 75.166 23.5 116.499s-7.83301 80.333 -23.5 117s-37.167 68.834 -64.5 96.501s-59.333 49.5 -96 65.5s-75.667 24 -117 24zM339 513c1.33301 0 3.33496 -0.5 6.00195 -1.5s4 -2.83301 4 -5.5c0 -5.33301 -1 -11 -3 -17c3.33301 -17.333 5.83301 -40.666 7.5 -69.999
s2.5 -58.666 2.5 -87.999c0 -34.667 -0.666992 -69.834 -2 -105.501s-3 -71.5 -5 -107.5c0 -6 -4.33301 -9.33301 -13 -10c-8.66699 0.666992 -16.834 1.16699 -24.501 1.5s-16.167 0.5 -25.5 0.5h-46c-3.33301 1.33301 -5 2.66602 -5 3.99902c0 4 0.5 10.667 1.5 20
s1.5 22.333 1.5 39c-5.33301 40 -9.16602 79.5 -11.499 118.5s-3.5 79.5 -3.5 121.5c0 10 0.166992 20.833 0.5 32.5s1.16602 22.5 2.49902 32.5s3.16602 18.5 5.49902 25.5s5.83301 11.167 10.5 12.5zM371.002 502c0 2 2.33398 5.00098 7.00098 9.00098h6
c16 -2.66699 31 -6.5 45 -11.5s26.167 -11.833 36.5 -20.5s18.666 -19.334 24.999 -32.001s9.5 -27.667 9.5 -45c0 -23.333 -4.33301 -44.333 -13 -63s-22.334 -36.667 -41.001 -54c9.33301 -28 22.333 -55.667 39 -83s30.667 -55 42 -83
c0 -5.33301 -3.66699 -9.66602 -11 -12.999c-3.33301 0.666992 -6.66602 1 -9.99902 1h-11h-53c-15.333 0 -26.333 1.16699 -33 3.5s-12 6 -16 11s-7.66699 11.5 -11 19.5s-9.33301 17.667 -18 29v27c0 27.333 0.5 55.333 1.5 84s2.83301 58 5.5 88c0 4 3.33301 7 10 9
s10 6 10 12c0 3.33301 -1.16699 6.16602 -3.5 8.49902s-5 4.33301 -8 6s-5.66699 3 -8 4s-3.5 1.83301 -3.5 2.5z" />
    <glyph glyph-name="uni2117" unicode="&#x28;P&#x29;" horiz-adv-x="756" 
d="M32 322c0 46.667 8.83301 90.5 26.5 131.5s41.834 76.833 72.501 107.5s66.667 54.834 108 72.501s85.333 26.5 132 26.5s90.5 -8.83301 131.5 -26.5s76.833 -41.834 107.5 -72.501s55 -66.5 73 -107.5s27 -84.833 27 -131.5s-9 -90.667 -27 -132
s-42.333 -77.333 -73 -108s-66.5 -54.834 -107.5 -72.501s-84.833 -26.5 -131.5 -26.5s-90.667 8.83301 -132 26.5s-77.333 41.834 -108 72.501s-54.834 66.667 -72.501 108s-26.5 85.333 -26.5 132zM372 623c-42 0 -81.167 -8 -117.5 -24s-68 -37.833 -95 -65.5
s-48.167 -59.834 -63.5 -96.501s-23 -75.667 -23 -117s7.66699 -80.166 23 -116.499s36.5 -68.166 63.5 -95.499s58.667 -48.833 95 -64.5s75.5 -23.5 117.5 -23.5c41.333 0 80.333 7.83301 117 23.5s68.667 37.167 96 64.5s48.833 59.166 64.5 95.499
s23.5 75.166 23.5 116.499s-7.83301 80.333 -23.5 117s-37.167 68.834 -64.5 96.501s-59.333 49.5 -96 65.5s-75.667 24 -117 24zM392 461c0 5.33301 2.66406 8.00195 7.99707 8.00195c6 -0.666992 11.833 -2.16699 17.5 -4.5s11.167 -4.83301 16.5 -7.5
c16 -7.33301 28.333 -17.333 37 -30s14.334 -30.334 17.001 -53.001c-5.33301 -34 -14.666 -58.333 -27.999 -73s-33 -23.667 -59 -27c-5.33301 0 -8 2.66699 -8 8v75c0 2 0.833008 3.5 2.5 4.5s3.5 1.66699 5.5 2s3.83301 1 5.5 2s2.5 2.83301 2.5 5.5
c0 6 -2.66699 9.16699 -8 9.5s-8.66602 3.16602 -9.99902 8.49902zM377.997 464.002c0 -4.66699 -0.668945 -11.499 -2.00195 -20.499s-2 -17.833 -2 -26.5c0 -10 0.333008 -22 1 -36s1.5 -29 2.5 -45s1.83301 -32.5 2.5 -49.5s1 -33.167 1 -48.5v-15
c0 -10 -0.166992 -22 -0.5 -36s-1.16602 -25 -2.49902 -33c-0.666992 -2.66699 -1.33398 -4.5 -2.00098 -5.5s-3.66699 -1.5 -9 -1.5c-8.66699 0 -17 -0.333008 -25 -1s-16 -1 -24 -1c-5.33301 0 -10.666 0.333008 -15.999 1s-9 2.66699 -11 6
c0 35.333 -0.666992 68.833 -2 100.5s-2 63.167 -2 94.5c0 14.667 0.166992 29.167 0.5 43.5s1 27.166 2 38.499s2.33301 20.666 4 27.999s3.83398 11.333 6.50098 12c8 1.33301 19.333 2 34 2h36c5.33301 -1.33301 8 -3.66602 8 -6.99902z" />
    <glyph glyph-name=".notdef" horiz-adv-x="660" 
d="M138 -257c-64.667 0 -97 28 -97 84v845c0 56.667 32.333 85 97 85h383c65.333 0 98 -28.333 98 -85v-845c0 -56 -32.667 -84 -98 -84h-383zM182 127c-11.333 -10 -19.667 -20.999 -25 -32.999s-8 -23.667 -8 -35c0 -13.333 2.83301 -26 8.5 -38
s13.334 -22.833 23.001 -32.5s20.667 -17.334 33 -23.001s25.5 -8.5 39.5 -8.5c10.667 0 21.167 1.83301 31.5 5.5s19.833 8.5 28.5 14.5s16 13.167 22 21.5s10 17.5 12 27.5c1.33301 6.66699 2.16602 12.167 2.49902 16.5s0.5 8.5 0.5 12.5c0 7.33301 -1 14 -3 20
s-5.66699 10.667 -11 14zM316.999 615.001c-34.667 -4.66699 -67.5 -17.834 -98.5 -39.501s-56.167 -51.167 -75.5 -88.5c-2.66699 -1.33301 -4 -3.66602 -4 -6.99902c0 -6 5.83301 -14.5 17.5 -25.5s24.667 -22.167 39 -33.5l39.5 -30c12 -8.66699 18.333 -13 19 -13
c4.66699 0 9.16699 2.33301 13.5 7s8.83301 10.334 13.5 17.001s9.66699 13.167 15 19.5s11 11.5 17 15.5c8.66699 5.33301 13.667 10.166 15 14.499s2.66602 10.5 3.99902 18.5l6 21c5.33301 17.333 10.333 34.5 15 51.5s10 35.167 16 54.5l-4 15l-10 4
c-3.33301 0 -6.16602 0.166992 -8.49902 0.5s-4.83301 0.5 -7.5 0.5c-4 0 -7.83301 -0.166992 -11.5 -0.5s-7.16699 -0.833008 -10.5 -1.5zM393.999 590.001l-42 -140.002c6.66699 -6.66699 10 -15.334 10 -26.001c0 -6 -1.5 -11.5 -4.5 -16.5l-9.5 -15.5
c-14.667 -21.333 -33 -39.166 -55 -53.499s-46 -29.166 -72 -44.499c-7.33301 -13.333 -14 -29.833 -20 -49.5s-9 -39.167 -9 -58.5c0 -4.66699 0.5 -9.33398 1.5 -14.001s4.16699 -7.66699 9.5 -9l134 -40c9.33301 2 16.333 7 21 15l12 51c24 16.667 46.333 33.5 67 50.5
s38.334 35 53.001 54s26.167 38.833 34.5 59.5s12.5 43 12.5 67c0 19.333 -3 38 -9 56s-14.5 34.833 -25.5 50.5s-23.833 29.834 -38.5 42.501s-30.334 23.334 -47.001 32.001l-17 -1z" />
    <glyph glyph-name="uni0017" horiz-adv-x="200" 
 />
    <glyph glyph-name="space" unicode=" " horiz-adv-x="200" 
 />
    <glyph glyph-name="exclam" unicode="!" horiz-adv-x="289" 
d="M55 631c1.33301 3.33301 2.83105 6.66699 4.49805 10s4.83398 5 9.50098 5h40c12 0 24 -0.166992 36 -0.5s24 -0.5 36 -0.5h27c4.66699 0 8.33398 0.333008 11.001 1c7.33301 0 11 -3.33301 11 -10c0 -2 -1.66699 -5.33301 -5 -10l9 -301
c0 -2.66699 -0.166992 -5.16699 -0.5 -7.5s-0.5 -4.83301 -0.5 -7.5l-7 -95c-4 -7.33301 -8.33301 -11 -13 -11c-0.666992 0 -1.16699 0.166992 -1.5 0.5s-0.833008 0.5 -1.5 0.5l-131 -4c-8.66699 -0.666992 -14 3.83301 -16 13.5s-3 19.5 -3 29.5v17
c0 11.333 0.5 22.833 1.5 34.5s2.5 25.167 4.5 40.5zM43.998 86.001c0 4.66699 0.5 9.83789 1.5 15.5049s2.5 11 4.5 16s4.16699 9.16699 6.5 12.5s5.16602 5 8.49902 5c0.666992 0 1.33398 -0.333008 2.00098 -1l151 3c9.33301 -2.66699 15.833 -9.33398 19.5 -20.001
s5.5 -20 5.5 -28c0 -10.667 -1.83301 -22.334 -5.5 -35.001s-9.5 -24.334 -17.5 -35.001s-18.333 -19.667 -31 -27s-28 -11 -46 -11c-12 0 -23.833 2.66699 -35.5 8s-22 12.666 -31 21.999s-16.5 20.166 -22.5 32.499s-9.33301 25.5 -10 39.5v3z" />
    <glyph glyph-name="quotedbl" unicode="&#x22;" horiz-adv-x="379" 
d="M210 632c1.33301 4 3.33105 7.66895 5.99805 11.002s7 5.66602 13 6.99902l86 -3c8.66699 -1.33301 16.334 -9.33301 23.001 -24l-14 -127c-4.66699 -44 -11 -90.333 -19 -139c-0.666992 -8.66699 -6 -13.334 -16 -14.001h-63
c-3.33301 1.33301 -6.66602 2.5 -9.99902 3.5s-6 1.5 -8 1.5zM152.998 647.002c2.66699 -0.666992 5.16797 -1.66602 7.50098 -2.99902s3.5 -3.33301 3.5 -6c0 -2 -1.66699 -5.33301 -5 -10l10 -270c-1.33301 -3.33301 -2.83301 -6.5 -4.5 -9.5s-4.83398 -4.5 -9.50098 -4.5
l-65 -1c-4.66699 0 -8.66699 5.83301 -12 17.5s-6.33301 26.834 -9 45.501s-4.83398 39.167 -6.50098 61.5s-3.16699 44.166 -4.5 65.499s-2.66602 40.666 -3.99902 57.999l-3 39c0.666992 4.66699 2 8.66699 4 12s5.66699 5 11 5h87z" />
    <glyph glyph-name="numbersign" unicode="#" horiz-adv-x="501" 
d="M281 616c1.33301 3.33301 3.00098 6.66406 5.00098 9.99707s5.33301 5 10 5l126 1c4.66699 0 8.33398 -1.66699 11.001 -5s4 -7.66602 4 -12.999v-3c-2.66699 -7.33301 -4.83398 -14.166 -6.50098 -20.499l-5.5 -20.5h32c10.667 0 16 -5.33301 16 -16
c0 -1.33301 -0.166992 -2 -0.5 -2s-0.5 -0.666992 -0.5 -2h1c-4 -17.333 -8.16699 -33.166 -12.5 -47.499s-8.16602 -29.166 -11.499 -44.499c2.66699 -2.66699 4 -5.33398 4 -8.00098c0 -9.33301 -1.83301 -22.833 -5.5 -40.5s-8.16699 -35.167 -13.5 -52.5
s-10.833 -32.5 -16.5 -45.5s-10.5 -19.833 -14.5 -20.5l-49 -1c-2 -6.66699 -3.66699 -13.834 -5 -21.501s-2.83301 -15 -4.5 -22s-3.83398 -12.833 -6.50098 -17.5s-6.33398 -7 -11.001 -7h-30c-8 0 -12.667 2.66699 -14 8l6 13c-3.33301 33.333 -5.5 68.833 -6.5 106.5
s-1.5 76.834 -1.5 117.501v149zM141.001 568.998c2 6 3.66602 12.5 4.99902 19.5s3 13.5 5 19.5s4.5 11.333 7.5 16s6.83301 7.33398 11.5 8.00098h42c8 -3.33301 14.333 -5 19 -5c2.66699 0 4.33398 0.333008 5.00098 1c0.666992 -2.66699 1 -5.16699 1 -7.5v-6.5v-40
c0 -27.333 -0.333008 -53.666 -1 -78.999s-1.5 -50.333 -2.5 -75s-1.83301 -49.5 -2.5 -74.5s-1 -51.167 -1 -78.5v-28c-3.33301 -10.667 -9 -17.334 -17 -20.001c-12 2.66699 -24.5 4.16699 -37.5 4.5s-26.167 0.5 -39.5 0.5c-8 0 -15.667 -0.333008 -23 -1
s-15.333 -1 -24 -1c-7.33301 0 -13.833 1.16699 -19.5 3.5s-8.5 7.16602 -8.5 14.499c0 1.33301 0.166992 2 0.5 2s0.5 0.666992 0.5 2h1c0.666992 8 1.83398 16 3.50098 24s3.5 16 5.5 24h-26c-9.33301 0 -14 4.66699 -14 14c0 12 2.66699 27 8 45
s9.66602 35.667 12.999 53l-7 14l11.5 43.5c4.33301 17 9 33.5 14 49.5s10 29.667 15 41s9.83301 17 14.5 17h40z" />
    <glyph glyph-name="dollar" unicode="$" horiz-adv-x="529" 
d="M16 134l28.4961 33.498c11.667 13.667 23.5 26.667 35.5 39s22.833 23 32.5 32s16.167 13.5 19.5 13.5c4 0 8.33301 -2.16699 13 -6.5s9.5 -9.33301 14.5 -15s10 -11.667 15 -18l12.5 -15.5l1 54c1.33301 4 3.33301 7.83301 6 11.5s8.66699 6.5 18 8.5
c32 -0.666992 64.167 -1.83398 96.5 -3.50098s66.5 -2.5 102.5 -2.5h38c5.33301 0 9 0.333008 11 1c6.66699 -2 11.834 -6 15.501 -12s6.5 -12.833 8.5 -20.5s3.33301 -15.667 4 -24s1 -15.5 1 -21.5c0 -44 -11.167 -82.667 -33.5 -116s-55.5 -58.666 -99.5 -75.999l-2 -83
c-0.666992 -4.66699 -2.5 -8.66699 -5.5 -12s-7.16699 -5 -12.5 -5l-131 2c-5.33301 1.33301 -9.16602 3.33301 -11.499 6s-3.5 7.33398 -3.5 14.001c0 9.33301 -0.333008 19 -1 29s-1 19.667 -1 29c0 4 0.166992 7.66699 0.5 11s0.833008 7 1.5 11
c-17.333 4.66699 -36.166 13 -56.499 25s-39.166 25 -56.499 39s-31.833 27.333 -43.5 40s-17.5 22.334 -17.5 29.001v3zM187.996 660.998c2.66699 8 12.6611 13.0039 29.9941 15.0039s35.333 3 54 3c8.66699 0 17.667 -0.166992 27 -0.5s18 -1 26 -2s14.5 -2.33301 19.5 -4
s7.5 -3.83398 7.5 -6.50098c0 -14.667 0.333008 -27.834 1 -39.501s2 -24.167 4 -37.5c8.66699 -3.33301 20.167 -9.83301 34.5 -19.5s28.5 -20.334 42.5 -32.001s26 -23.167 36 -34.5s15 -20.333 15 -27c0 -4 -5.16699 -11.333 -15.5 -22s-22.166 -21.5 -35.499 -32.5
s-26 -20.667 -38 -29s-20 -12.5 -24 -12.5s-7.16699 0.666992 -9.5 2l-8.5 5v-29c-1.33301 -6.66699 -3.66602 -11.334 -6.99902 -14.001s-9.66602 -4 -18.999 -4c-19.333 2 -40.166 3.5 -62.499 4.5s-45.166 2.16699 -68.499 3.5l-69.5 4
c-23 1.33301 -44.833 3.66602 -65.5 6.99902c-2 12 -3 21.667 -3 29c0 6 0.333008 12.333 1 19s1 16.334 1 29.001c0 20 3.5 38.667 10.5 56s16.333 33 28 47s25.334 25.667 41.001 35s32.167 16 49.5 20z" />
    <glyph glyph-name="percent" unicode="%" horiz-adv-x="724" 
d="M248 628l19.002 16.001c34.667 -10.667 60 -26.167 76 -46.5s29.333 -47.833 40 -82.5c7.33301 13.333 15 26.333 23 39s15.5 24 22.5 34s13.667 18 20 24s11.5 9 15.5 9c8 0 15.333 -3.83301 22 -11.5s11.667 -17.167 15 -28.5v-17c0 -70 -3.33301 -141.5 -10 -214.5
s-10 -146.5 -10 -220.5c0 -22 0.333008 -43.5 1 -64.5s2.33398 -42.167 5.00098 -63.5c0 -10 -5 -15 -15 -15c-15.333 0 -29.833 3.66699 -43.5 11s-26 16.833 -37 28.5s-20.5 24.667 -28.5 39s-14.333 28.166 -19 41.499
c-4.66699 -6.66699 -10.334 -16.834 -17.001 -30.501s-13.834 -27.167 -21.501 -40.5s-15.334 -25.166 -23.001 -35.499s-14.5 -15.5 -20.5 -15.5c-8 0 -13.667 1.66699 -17 5zM58.002 453.001c0 50 10.8301 91.5 32.4971 124.5s57.5 56.167 107.5 69.5
c8 0 16 -6.33301 24 -19c-1.33301 -54 -3.66602 -106.5 -6.99902 -157.5s-5 -102.5 -5 -154.5c0 -30 1 -60 3 -90l-17 -16c-9.33301 0.666992 -17.666 2.5 -24.999 5.5s-14.666 6.5 -21.999 10.5l3 -2c-14.667 8 -27.834 18.167 -39.501 30.5s-21.667 26.333 -30 42
s-14.666 32.5 -18.999 50.5s-6.5 36 -6.5 54c0 5.33301 0.166992 11.333 0.5 18s0.5 18 0.5 34zM520.999 201.001c0 7.33301 -0.169922 16 -0.50293 26s-0.5 20.667 -0.5 32c0 19.333 0.333008 38.5 1 57.5s1.83398 36 3.50098 51s4.33398 27.167 8.00098 36.5
s8.5 14 14.5 14c23.333 -5.33301 43.333 -15 60 -29s30.167 -30.333 40.5 -49s18 -38.667 23 -60s7.5 -42 7.5 -62c0 -18.667 -1.33301 -38 -4 -58s-7.66699 -39.5 -15 -58.5s-17.5 -37.167 -30.5 -54.5s-29.833 -33 -50.5 -47
c-4.66699 -3.33301 -9.16699 -6.16602 -13.5 -8.49902s-10.166 -3.83301 -17.499 -4.5c-5.33301 0 -9.5 1.16699 -12.5 3.5s-8.16699 9.5 -15.5 21.5c0.666992 8.66699 1.16699 17.167 1.5 25.5s0.5 17.166 0.5 26.499v137zM93.9961 8.00098c6 10 14 24.167 24 42.5l31 54.5
c10.667 18 20.667 33.667 30 47s16 20 20 20c10 0 16.333 -4.33301 19 -13l-5 -159c-1.33301 -4.66699 -3.33301 -8.5 -6 -11.5s-7 -4.5 -13 -4.5h-87c-10 0 -15 5.33301 -15 16c0 1.33301 0.666992 4 2 8zM609.996 617.001c4 0 7.49805 -1.49902 10.498 -4.49902
s4.5 -6.83301 4.5 -11.5s-3.16699 -14 -9.5 -28s-14 -28.5 -23 -43.5s-18.167 -28.333 -27.5 -40s-16.666 -17.5 -21.999 -17.5c-10 0 -15 5 -15 15c0 6.66699 0.333008 13.5 1 20.5s1 14.833 1 23.5c0 10 -0.666992 20.167 -2 30.5s-2 20.166 -2 29.499
c0 12 2.5 19.5 7.5 22.5s11.833 4.5 20.5 4.5s17.834 -0.166992 27.501 -0.5s19.167 -0.5 28.5 -0.5z" />
    <glyph glyph-name="ampersand" unicode="&#x26;" horiz-adv-x="602" 
d="M322 597c5.33301 10.667 12.668 16.002 22.001 16.002c10 0 23.333 -4.66699 40 -14s31 -20 43 -32c6.66699 -6.66699 14.334 -16 23.001 -28s17 -24.5 25 -37.5s14.833 -25.5 20.5 -37.5s8.5 -21 8.5 -27c0 -6.66699 -2.66699 -12.667 -8 -18l50 -1
c8 -2.66699 12 -5.66699 12 -9c0 -2.66699 -0.333008 -4.66699 -1 -6l4 -136c-2.66699 -10.667 -7.66699 -16 -15 -16h-100v-48h100c10 0 15 -7.33301 15 -22v-21c0 -21.333 -3 -42.333 -9 -63s-15.333 -39.167 -28 -55.5s-28.334 -29.833 -47.001 -40.5
s-40.334 -16.334 -65.001 -17.001c-8 0 -15.833 0.333008 -23.5 1s-15.167 2.66699 -22.5 6l-27 -7c-8.66699 0 -13 4 -13 12c0 20.667 -0.333008 42 -1 64s-1 48 -1 78c0 26.667 0.166992 52.667 0.5 78s0.5 50.666 0.5 75.999c0 38.667 -1 75.667 -3 111
c1.33301 4 3.33301 7.83301 6 11.5s6.66699 6.16699 12 7.5c-7.33301 3.33301 -13 7.5 -17 12.5s-6 12.5 -6 22.5v21v59.5c0 19.667 1.66699 39.5 5 59.5zM212.002 606.002c6 2 10.833 3.49512 14.5 4.49512s6.5 1.83301 8.5 2.5c2.66699 0.666992 4.33398 1 5.00098 1
c8.66699 0 13.667 -1 15 -3c2 -43.333 3.66699 -85.666 5 -126.999s2 -84.333 2 -129c0 -26.667 -1.66699 -51.334 -5 -74.001s-11 -38.667 -23 -48c-5.33301 -4 -9.16602 -9.16699 -11.499 -15.5s-3.5 -12.166 -3.5 -17.499c0.666992 -9.33301 3 -16.666 7 -21.999
s8.16699 -9.83301 12.5 -13.5l12.5 -10.5c4 -3.33301 6.33301 -7.66602 7 -12.999c-0.666992 -17.333 -1.5 -34.666 -2.5 -51.999s-1.5 -34.666 -1.5 -51.999v-18c0 -3.33301 0.166992 -6.5 0.5 -9.5s0.5 -6.16699 0.5 -9.5c0 -4.66699 -1.83301 -8.5 -5.5 -11.5
s-7.83398 -4.5 -12.501 -4.5c-24 4.66699 -47.5 14.167 -70.5 28.5s-43.5 31.333 -61.5 51s-32.333 41 -43 64s-16 45.5 -16 67.5v3c1.33301 30 8.16602 57.667 20.499 83s26.833 49 43.5 71c-9.33301 17.333 -14 37 -14 59c0 18.667 2.16699 38 6.5 58s11.166 39 20.499 57
s21.333 34.167 36 48.5s32.334 24.833 53.001 31.5z" />
    <glyph glyph-name="quotesingle" unicode="'" horiz-adv-x="280" 
d="M87 344v-1.00098c-10 0.666992 -15.333 5.33398 -16 14.001c-3.33301 46.667 -5.83301 92.5 -7.5 137.5s-8.16699 86.833 -19.5 125.5c1.33301 13.333 5.33301 21.666 12 24.999s14.334 5 23.001 5c16.667 0 33 -0.5 49 -1.5s32 -1.5 48 -1.5c18 0 36 1 54 3
c7.33301 -5.33301 11.333 -12.666 12 -21.999c-0.666992 -24.667 -2.33398 -48.667 -5.00098 -72s-5.66699 -46 -9 -68s-6.33301 -43.5 -9 -64.5s-4 -41.833 -4 -62.5c0 -8.66699 -2.5 -14 -7.5 -16s-10.833 -3 -17.5 -3c-14.667 0 -29.5 0.333008 -44.5 1
s-29.833 1 -44.5 1h-14z" />
    <glyph glyph-name="parenleft" unicode="(" horiz-adv-x="371" 
d="M343 781c2 0 4.50098 -1.99707 7.50098 -5.99707s5.5 -7.66699 7.5 -11l4 -142c-0.666992 -6.66699 -2.16699 -10.834 -4.5 -12.501s-6.16602 -2.5 -11.499 -2.5c-18 -1.33301 -35.333 -9.5 -52 -24.5s-31.5 -34.833 -44.5 -59.5s-23.333 -53.334 -31 -86.001
s-11.5 -68 -11.5 -106c0 -52 3.5 -97.167 10.5 -135.5s16.833 -70.833 29.5 -97.5s27.334 -48 44.001 -64s34.667 -27.667 54 -35c5.33301 -2 9.66602 -6.66699 12.999 -14l-4 -140c0.666992 -0.666992 1 -2.66699 1 -6c0 -4.66699 -1.66699 -8 -5 -10
s-6.66602 -3 -9.99902 -3l-45 9c-14 2.66699 -29.667 7 -47 13c-30.667 16 -59.334 36 -86.001 60s-49.834 54.333 -69.501 91s-35.167 81 -46.5 133s-17 114 -17 186c0 32.667 3.16699 66.167 9.5 100.5s15.666 68 27.999 101s27.5 64.5 45.5 94.5s38.5 56.667 61.5 80
s48.5 42.666 76.5 57.999s58.333 25 91 29h2zM358.001 765.003c0 -1.33301 0.333008 -2.33398 1 -3.00098c-0.666992 0.666992 -1 1.33398 -1 2.00098v1zM359.001 762.002v-1v1z" />
    <glyph glyph-name="parenright" unicode=")" horiz-adv-x="371" 
d="M48 -174c-2.66699 0 -5.50098 1.99805 -8.50098 5.99805s-5.16699 7.66699 -6.5 11l-4 142l12 14l4 1c18 1.33301 35.333 9.5 52 24.5s31.5 34.833 44.5 59.5s23.333 53.334 31 86.001s11.5 68 11.5 106c0 52 -3.5 97.167 -10.5 135.5s-16.833 70.833 -29.5 97.5
s-27.334 48 -44.001 64s-34.667 27.667 -54 35l-13 14l4 140c-0.666992 0.666992 -1 2.66699 -1 6c0 4.66699 1.66699 8 5 10s6.66602 3 9.99902 3l45 -9c14 -2.66699 29.667 -7 47 -13c30.667 -16 59.334 -36 86.001 -60s49.834 -54.333 69.501 -91s35.167 -81 46.5 -133
s17 -114 17 -186c0 -32.667 -3.16699 -66.167 -9.5 -100.5s-15.666 -68 -27.999 -101s-27.5 -64.5 -45.5 -94.5s-38.5 -56.667 -61.5 -80s-48.5 -42.666 -76.5 -57.999s-58.333 -25 -91 -29h-2zM32.999 -158.002c-0.666992 0.666992 -1 1.33301 -1 2l1 -1v-1z
M30.999 -154.003c0 -0.666992 0.333008 -1.33398 1 -2.00098c-0.666992 0.666992 -1 1.33398 -1 2.00098z" />
    <glyph glyph-name="asterisk" unicode="*" horiz-adv-x="466" 
d="M49 559c6.66699 -2 14.335 -4.83789 23.002 -8.50488l25.5 -10.5c8.33301 -3.33301 16.166 -6.16602 23.499 -8.49902s13.666 -3.5 18.999 -3.5c12.667 0 22.334 6.66699 29.001 20s10 26 10 38c0 11.333 -1 22.333 -3 33l-6 31c0 10 2 16.333 6 19s8.66699 4 14 4
c8.66699 0 17.334 -0.166992 26.001 -0.5s17.667 -0.5 27 -0.5h14.5c5 0 10.167 0.333008 15.5 1c2.66699 -2 4.5 -6 5.5 -12s1.5 -13 1.5 -21c0 -9.33301 -0.5 -19.166 -1.5 -29.499l-3 -30.5c-1 -10 -2 -19 -3 -27s-1.5 -14 -1.5 -18c0 -10.667 5.66699 -16 17 -16
c2 0 3.66699 0.333008 5 1c19.333 7.33301 38 15 56 23s35.333 16.667 52 26c2.66699 0.666992 6.33398 1 11.001 1c6 0 11 -3.66699 15 -11s7.5 -15.833 10.5 -25.5s5.83301 -19.667 8.5 -30s5.66699 -18.5 9 -24.5c-1.33301 -5.33301 -5.66602 -9.66602 -12.999 -12.999
s-16.166 -6.16602 -26.499 -8.49902s-21.333 -4.66602 -33 -6.99902s-22.334 -4.66602 -32.001 -6.99902s-17.834 -5.33301 -24.501 -9s-10 -7.83398 -10 -12.501c0 -7.33301 4.5 -16.333 13.5 -27l29 -33.5l29 -32.5c9 -10 13.5 -17.667 13.5 -23c0 -4 -3 -8.5 -9 -13.5
s-13.167 -10.167 -21.5 -15.5l-25.5 -16.5c-8.66699 -5.66699 -15.334 -10.834 -20.001 -15.501c-5.33301 0 -10 3 -14 9c-8 10 -15.667 21 -23 33l-21 33.5c-6.66699 10.333 -13 18.833 -19 25.5s-11.667 10 -17 10c-7.33301 0 -14.666 -6 -21.999 -18
s-14.833 -25.167 -22.5 -39.5s-15.334 -27.5 -23.001 -39.5s-15.167 -18 -22.5 -18c-4 0 -10.333 3 -19 9s-17.334 12.667 -26.001 20l-23 20c-6.66699 6 -10 8.66699 -10 8c0 3.33301 0.5 6 1.5 8s2.16699 3.66699 3.5 5c7.33301 10 15.333 20.167 24 30.5l24.5 29.5
c7.66699 9.33301 14.167 17.666 19.5 24.999s8 13 8 17c0 8.66699 -7.33301 15.334 -22 20.001s-30.834 8.66699 -48.501 12s-33.834 6.83301 -48.501 10.5s-22 9.5 -22 17.5c0 6 1.66699 14 5 24s7.16602 19.833 11.499 29.5s8.33301 17.834 12 24.501
s5.83398 10 6.50098 10c4.66699 0 8.33398 -0.666992 11.001 -2z" />
    <glyph glyph-name="plus" unicode="+" horiz-adv-x="432" 
d="M138 506l146.997 -2c0.666992 0 1.33398 0.166992 2.00098 0.5s1.66699 0.5 3 0.5c5.33301 0 8.5 -4.5 9.5 -13.5s1.5 -18.833 1.5 -29.5v-49l83 -1c9.33301 0 14 -5 14 -15c-0.666992 -12.667 -1 -26.167 -1 -40.5v-43.5v-52c0 -6 -1.5 -10.167 -4.5 -12.5
s-6.5 -4.16602 -10.5 -5.49902l-79 2c-1.33301 -15.333 -2.16602 -29.5 -2.49902 -42.5s-0.5 -26.5 -0.5 -40.5l-8 -12l-8 -2c-13.333 0 -26.333 -0.333008 -39 -1s-25.667 -1 -39 -1c-9.33301 0 -18.833 0.333008 -28.5 1s-20.167 1.66699 -31.5 3l-8 -2l-8 14v82h-80
c-4.66699 0 -8.16699 1.5 -10.5 4.5s-4.16602 6.5 -5.49902 10.5c0.666992 1.33301 1 3.66602 1 6.99902v25c0 17.333 -0.5 34.5 -1.5 51.5s-2.16699 34.167 -3.5 51.5l13 16l8 2c3.33301 0.666992 6.33301 1 9 1h9h19c3.33301 0 6.5 -0.166992 9.5 -0.5
s6.16699 -0.5 9.5 -0.5c6.66699 0 12.167 1.66699 16.5 5s6.5 11 6.5 23c0 9.33301 -0.333008 18 -1 26s-1 16.667 -1 26z" />
    <glyph glyph-name="comma" unicode="," horiz-adv-x="314" 
d="M39 -113c-7.33301 2 -10.998 6.66406 -10.998 13.9971c0 2 0.333008 3.33301 1 4c15.333 50.667 31.5 101.334 48.5 152.001s29.167 97.334 36.5 140.001c3.33301 11.333 6.83301 17.833 10.5 19.5s7.83398 2.5 12.501 2.5c25.333 -6.66699 51.166 -15.667 77.499 -27
s51.833 -19 76.5 -23l5 -8.5c1.33301 -2.33301 2 -5.16602 2 -8.49902c0 -4 -0.333008 -7 -1 -9c-8.66699 -27.333 -18.834 -53.333 -30.501 -78l-36 -72.5l-36 -69c-11.667 -22.333 -21.5 -44.5 -29.5 -66.5c-3.33301 -8.66699 -8 -13 -14 -13
c-7.33301 0 -15.833 1.66699 -25.5 5s-19.834 7.33301 -30.501 12s-21 9.5 -31 14.5s-18.333 8.83301 -25 11.5z" />
    <glyph glyph-name="hyphen" unicode="-" horiz-adv-x="411" 
d="M57 357c0 7.33301 1.33398 14.5029 4.00098 21.5029s8 11.833 16 14.5l256 -9c2.66699 2.66699 5.66699 4 9 4c4.66699 0 7.66699 -4.83301 9 -14.5s2 -19.834 2 -30.501v-17c0 -6.66699 -0.166992 -15.5 -0.5 -26.5s-1 -21.833 -2 -32.5s-3 -20.334 -6 -29.001
s-6.83301 -13.667 -11.5 -15l-249 5c-1.33301 0 -2.83301 -0.333008 -4.5 -1s-3.5 -1 -5.5 -1c-5.33301 0 -8.83301 1.33301 -10.5 4s-2.83398 5.66699 -3.50098 9c0.666992 1.33301 1 3.66602 1 6.99902v25c0 14 -0.333008 28.167 -1 42.5s-1.66699 28.833 -3 43.5z" />
    <glyph glyph-name="period" unicode="." horiz-adv-x="304" 
d="M152 187c12.667 0 24.9971 -3.00098 36.9971 -9.00098s22.833 -13.667 32.5 -23s17.334 -19.666 23.001 -30.999s8.5 -22.333 8.5 -33c0 -14 -2.66699 -27.5 -8 -40.5s-12.666 -24.667 -21.999 -35s-20.166 -18.5 -32.499 -24.5s-25.5 -9 -39.5 -9
c-12 0 -23.833 3 -35.5 9s-22.167 13.667 -31.5 23s-17 19.833 -23 31.5s-9.33301 23.167 -10 34.5v3c0 14 3 26.833 9 38.5s13.833 22 23.5 31s20.5 16.5 32.5 22.5s23.667 10 35 12h1z" />
    <glyph glyph-name="slash" unicode="/" horiz-adv-x="602" 
d="M468 675c11.333 0 22.5 -0.166992 33.5 -0.5s22.167 -0.5 33.5 -0.5c10 0 19.833 0.333008 29.5 1s19.167 1.66699 28.5 3c8.66699 -4 13 -10.667 13 -20c0 -3.33301 -1 -6 -3 -8c-29.333 -68 -62.333 -133.167 -99 -195.5l-111.5 -181.5l-110.5 -171
c-36 -55.333 -68.333 -110 -97 -164c0 -9.33301 -2.5 -15.166 -7.5 -17.499s-10.167 -3.5 -15.5 -3.5c-22.667 0 -45.834 1 -69.501 3s-46.167 3 -67.5 3c-2 0 -4.16699 -0.5 -6.5 -1.5s-4.5 -1.5 -6.5 -1.5c-10 0 -15 5.33301 -15 16c0 1.33301 0.666992 4 2 8l112 182
l110 180.5l100 171.5c31.333 55.333 59 107 83 155c6 19.333 11.5 31.666 16.5 36.999s9.16699 8 12.5 8c2.66699 0 5.83398 -0.5 9.50098 -1.5s12.167 -1.5 25.5 -1.5z" />
    <glyph glyph-name="zero" unicode="0" horiz-adv-x="586" 
d="M320 605c3.33301 9.33301 9.33203 14.002 17.999 14.002c35.333 0 65.333 -10.5 90 -31.5s44.667 -47.333 60 -79s26.5 -65.834 33.5 -102.501s10.5 -70.667 10.5 -102c-0.666992 -27.333 -2.66699 -56 -6 -86s-9.66602 -58.5 -18.999 -85.5s-22.833 -51.333 -40.5 -73
s-40.834 -38.5 -69.501 -50.5c-8 -5.33301 -18 -10.833 -30 -16.5s-22.667 -8.5 -32 -8.5c-4.66699 0 -8.66699 2 -12 6s-5 9.33301 -5 16c2.66699 15.333 4 33.333 4 54c0 10 -0.166992 20 -0.5 30s-0.5 20.333 -0.5 31v24c0 4 0.333008 7 1 9
c16.667 20.667 27.667 42 33 64s8 46.333 8 73c-1.33301 10 -2.16602 21.667 -2.49902 35s-1.5 27.333 -3.5 42s-5.33301 28.834 -10 42.501s-11.667 25.5 -21 35.5c-1.33301 1.33301 -3.5 3.16602 -6.5 5.49902s-4.16699 7.16602 -3.5 14.499zM253.999 621.002
c8 0 12.833 -2.33105 14.5 -6.99805s2.5 -9.66699 2.5 -15c0 -23.333 0.166992 -47 0.5 -71s0.5 -46.667 0.5 -68c0 -4 -0.666992 -6.83301 -2 -8.5s-2.66602 -3.16699 -3.99902 -4.5c-7.33301 -5.33301 -13.833 -13.166 -19.5 -23.499s-10.5 -22.333 -14.5 -36
s-7.16699 -28.167 -9.5 -43.5s-3.5 -30.333 -3.5 -45c0 -11.333 1 -23.5 3 -36.5s5 -26 9 -39s9 -25.5 15 -37.5s13 -22.333 21 -31c3.33301 -3.33301 5 -7 5 -11v-145c0 -6 -1.5 -10.167 -4.5 -12.5s-7.16699 -4.16602 -12.5 -5.49902c-12 2 -23.5 5.5 -34.5 10.5
s-18.167 11.833 -21.5 20.5c-25.333 13.333 -47.333 29.666 -66 48.999s-34.167 40.666 -46.5 63.999s-21.5 48.333 -27.5 75s-9 54 -9 82s2.5 56.833 7.5 86.5s12.833 58.667 23.5 87s24.667 54.666 42 78.999s38.666 45.166 63.999 62.499c12 8 23.833 13.5 35.5 16.5
s22.167 5.5 31.5 7.5z" />
    <glyph glyph-name="one" unicode="1" horiz-adv-x="294" 
d="M78 595c5.33301 8 10.835 12.833 16.502 14.5s11.167 2.5 16.5 2.5h29c13.333 0 26.5 -0.333008 39.5 -1s25.5 -2.33398 37.5 -5.00098c1.33301 0.666992 3 1 5 1c3.33301 0 5.66602 -1.16699 6.99902 -3.5s2.66602 -5.16602 3.99902 -8.49902l12 -575
c-6 -16 -13.167 -26.333 -21.5 -31s-16.833 -7 -25.5 -7c-21.333 0 -41.666 0.666992 -60.999 2s-38.333 2.33301 -57 3c-0.666992 -0.666992 -2.33398 -1 -5.00098 -1c-4.66699 0 -8 1.5 -10 4.5s-3.66699 6.16699 -5 9.5z" />
    <glyph glyph-name="two" unicode="2" horiz-adv-x="551" 
d="M109 112c0 4 -0.168945 8.16699 -0.501953 12.5s-0.5 8.5 -0.5 12.5c0 8.66699 1.33301 15.334 4 20.001c4.66699 5.33301 11.834 13 21.501 23l29.5 30c10 10 19.333 18.667 28 26s14.334 11 17.001 11c0.666992 -0.666992 1.66699 -1 3 -1
c1.33301 -0.666992 2.5 -1 3.5 -1s2.5 -0.333008 4.5 -1c22.667 2 46.334 3.83301 71.001 5.5s52.334 2.5 83.001 2.5c12 0 23.167 -1 33.5 -3s15.5 -7.33301 15.5 -16c0 -5.33301 -1 -9 -3 -11l-73 -67c11.333 -1.33301 23.166 -2.33301 35.499 -3s25.166 -1 38.499 -1
c10 0 19.667 0.333008 29 1s18.666 1.66699 27.999 3c10 -3.33301 16 -7.33301 18 -12v-25c0 -8.66699 0.166992 -17.667 0.5 -27s0.5 -19 0.5 -29c0 -17.333 -1.33301 -33.833 -4 -49.5s-9 -28.834 -19 -39.501c-34.667 5.33301 -71.167 8.83301 -109.5 10.5
s-78.166 2.5 -119.499 2.5c-19.333 0 -38.833 -0.166992 -58.5 -0.5s-39.5 -0.5 -59.5 -0.5c-4 1.33301 -7.5 3 -10.5 5s-4.5 5.33301 -4.5 10zM58.998 430c6.66699 24.667 16.4971 48.4961 29.4971 71.4961s28.5 43.667 46.5 62s38.167 33.5 60.5 45.5
s45.833 19.333 70.5 22c33.333 -0.666992 64.5 -6.66699 93.5 -18s54.333 -26.666 76 -45.999s38.834 -42.5 51.501 -69.5s19 -56.5 19 -88.5c0 -23.333 -2.33301 -42.666 -7 -57.999s-12.334 -31.666 -23.001 -48.999c-11.333 0 -21.666 -0.166992 -30.999 -0.5
s-18.5 -0.5 -27.5 -0.5s-18.667 -0.166992 -29 -0.5s-22.5 -0.5 -36.5 -0.5c-17.333 0 -33.166 1.16699 -47.499 3.5s-21.5 7.5 -21.5 15.5c0 4 1.33301 7.33301 4 10l19 22l19 20.5c7.33301 7.66699 11 16.167 11 25.5c0 10 -2.16699 18.667 -6.5 26
s-9.66602 13.333 -15.999 18s-13.5 8.16699 -21.5 10.5s-15.667 3.5 -23 3.5c-9.33301 0 -17 -2.16699 -23 -6.5s-11.333 -9.16602 -16 -14.499l-13 -14.5c-4 -4.33301 -8 -6.5 -12 -6.5l-130 5c-4.66699 0 -8.5 1.33301 -11.5 4s-4.5 5 -4.5 7v1z" />
    <glyph glyph-name="three" unicode="3" horiz-adv-x="548" 
d="M192 607c9.33301 4 17.998 6.99805 25.998 8.99805c4.66699 0 9.33398 -2.66699 14.001 -8l1 -169c0 -6 -1.66699 -10.5 -5 -13.5s-7 -5.16699 -11 -6.5l-140 4c-3.33301 0.666992 -5.5 2.83398 -6.5 6.50098s-1.5 7.16699 -1.5 10.5c0 32.667 11.333 63.834 34 93.501
s52.334 54.167 89.001 73.5zM175.998 205.998c9.33301 -3.33301 16.333 -8.99707 21 -16.9971s9.66699 -15.667 15 -23c6 -8.66699 13.333 -14.334 22 -17.001v-150c-2.66699 -8 -9 -13 -19 -15c-7.33301 1.33301 -14.333 3 -21 5l-21 6
c-22.667 11.333 -42.167 23.666 -58.5 36.999s-30.833 27.666 -43.5 42.999s-24 32 -34 50s-19.667 37.333 -29 58c-2 2.66699 -3 5 -3 7c0 10.667 6.66699 16.667 20 18zM289.998 600.001c1.33301 6.66699 3.99707 10.6689 7.99707 12.002s8 2 12 2
c19.333 -6 37.833 -15 55.5 -27s33.334 -26 47.001 -42s24.5 -33.333 32.5 -52s12 -37.334 12 -56.001c0 -22 -1.66699 -39 -5 -51s-9 -23.333 -17 -34c20.667 -18.667 36.5 -41.667 47.5 -69s16.5 -53.666 16.5 -78.999c0 -30 -5 -57.833 -15 -83.5s-23.833 -48 -41.5 -67
s-38 -34.5 -61 -46.5s-47.5 -20 -73.5 -24c-3.33301 0 -6.5 0.666992 -9.5 2s-4.5 3.33301 -4.5 6c0 1.33301 0.666992 2.66602 2 3.99902l-5 145c0.666992 4.66699 3.33398 9.33398 8.00098 14.001l12 8c6.66699 4.66699 11.5 10.5 14.5 17.5s4.83301 14.167 5.5 21.5h-1
c0 9.33301 -3.33301 16.333 -10 21l-21 14c-1.33301 2 -2 5.33301 -2 10c-1.33301 47.333 -3.16602 93.666 -5.49902 138.999s-3.5 92.666 -3.5 141.999c0 12 0.166992 24 0.5 36s0.833008 24.333 1.5 37z" />
    <glyph glyph-name="four" unicode="4" horiz-adv-x="586" 
d="M338 645c12.667 0 25 -0.171875 37 -0.504883s24.333 -0.5 37 -0.5h22c3.33301 0 6.83301 0.333008 10.5 1s7.83398 1 12.501 1c2.66699 0 5.16699 -0.666992 7.5 -2s3.5 -3.66602 3.5 -6.99902c0 -1.33301 -0.5 -3.16602 -1.5 -5.49902s-1.5 -4.83301 -1.5 -7.5
c0 -34.667 1.33301 -70.167 4 -106.5s4 -73.5 4 -111.5c0 -17.333 0.5 -28.5 1.5 -33.5s2.16699 -7.5 3.5 -7.5h47c4 -2.66699 7.16699 -7 9.5 -13s4 -13.333 5 -22s1.66699 -17.834 2 -27.501s0.5 -19.5 0.5 -29.5v-27.5c0 -9 -0.5 -17.167 -1.5 -24.5
s-2.33301 -13.333 -4 -18s-4.5 -7 -8.5 -7h-2c-9.33301 0 -18.5 0.166992 -27.5 0.5s-17.5 2.16602 -25.5 5.49902c1.33301 -17.333 2.33301 -34.666 3 -51.999s1 -34.666 1 -51.999v-30c0 -16 -0.666992 -31.667 -2 -47s-4.66602 -26.666 -9.99902 -33.999l-9 -7
c-24 4 -50 6 -78 6c-10.667 0 -21.167 -0.166992 -31.5 -0.5s-20.833 -0.833008 -31.5 -1.5c-9.33301 3.33301 -16.833 6.5 -22.5 9.5s-8.5 10.167 -8.5 21.5c9.33301 64.667 15.666 125.834 18.999 183.501s5 114.834 5 171.501c0 42.667 -0.833008 85.334 -2.5 128.001
s-3.83398 87 -6.50098 133c1.33301 3.33301 2.83301 6.66602 4.5 9.99902s4.83398 5 9.50098 5c0.666992 0 1.16699 -0.166992 1.5 -0.5s1.16602 -0.5 2.49902 -0.5h21zM15 208.995c8 25.333 16.666 49.8369 25.999 73.5039l27.5 70.5l26 70.5
c8.33301 23.667 15.5 48.167 21.5 73.5c1.33301 3.33301 3.33301 5.66602 6 6.99902s6.33398 3.66602 11.001 6.99902c17.333 -2 33.5 -3.5 48.5 -4.5s30.167 -1.5 45.5 -1.5c8.66699 0 17.5 0.166992 26.5 0.5s18.167 0.833008 27.5 1.5c10.667 0 16 -5.33301 16 -16
c0 -2.66699 -0.333008 -4.33398 -1 -5.00098c-9.33301 -19.333 -17.333 -39.333 -24 -60l-19 -61h7c10 -3.33301 16 -8 18 -14l-2 -140c-1.33301 -4.66699 -3.5 -8.83398 -6.5 -12.501s-8.83301 -7.5 -17.5 -11.5c-14 2 -34.333 3.33301 -61 4s-53 1.5 -79 2.5
s-48.667 2.5 -68 4.5s-29 5.33301 -29 10v1z" />
    <glyph glyph-name="five" unicode="5" horiz-adv-x="557" 
d="M89 283c-5.33301 0 -9.49805 1.66895 -12.498 5.00195s-5.83301 5.66602 -8.5 6.99902c14.667 55.333 27.5 107.5 38.5 156.5s20.5 98.5 28.5 148.5c1.33301 3.33301 3.66602 6.33301 6.99902 9s9.66602 5.66699 18.999 9c46.667 0 94.334 -1.16699 143.001 -3.5
s102.334 -3.5 161.001 -3.5c10 -2 16 -5.66699 18 -11l-2 -141c-2 -9.33301 -7.33301 -15.666 -16 -18.999c-8.66699 1.33301 -17.334 2.16602 -26.001 2.49902s-17.667 0.5 -27 0.5h-28c-9.33301 0 -19 -0.666992 -29 -2c21.333 -6.66699 40.666 -16.667 57.999 -30
s32.5 -28.333 45.5 -45s23.833 -34.167 32.5 -52.5s15 -35.833 19 -52.5c0 -4.66699 -1.33301 -9 -4 -13s-5.66699 -6.33301 -9 -7h-31c-20.667 0 -40 0.166992 -58 0.5s-37.333 0.5 -58 0.5c-4.66699 0 -9.33398 3 -14.001 9c-6 12.667 -15 22.667 -27 30
s-25.333 11 -40 11c-6 -0.666992 -11.667 -1.83398 -17 -3.50098s-11.666 -4.16699 -18.999 -7.5zM183.002 184.002c6.66699 -4.66699 12.6699 -9.3291 18.0029 -13.9961s11.166 -8.83398 17.499 -12.501s13.333 -7 21 -10s17.167 -5.16699 28.5 -6.5
c10.667 1.33301 20.834 3.5 30.501 6.5s17.5 7.83301 23.5 14.5c4.66699 4.66699 8.66699 10 12 16s8.66602 9 15.999 9c17.333 1.33301 34.333 2.33301 51 3s33 1 49 1h32c6 0 11.667 -0.833008 17 -2.5s8.66602 -6.83398 9.99902 -15.501
c-2.66699 -9.33301 -5.33398 -17.5 -8.00098 -24.5s-7 -13.167 -13 -18.5c-6 -22 -16.333 -42.167 -31 -60.5s-32 -34.333 -52 -48s-42.333 -24.334 -67 -32.001s-50 -11.834 -76 -12.501c-36.667 0 -69.667 3.83301 -99 11.5s-54.666 23.5 -75.999 47.5
c-16 17.333 -29.333 37 -40 59s-22.334 44.667 -35.001 68c0 2 -0.166992 3.5 -0.5 4.5s-0.5 1.83301 -0.5 2.5c0 10.667 5 16 15 16z" />
    <glyph glyph-name="six" unicode="6" horiz-adv-x="566" 
d="M230 606c3.33301 4 8.66797 6.33301 16.001 7s13 1 17 1h28c19.333 0 38.666 -0.333008 57.999 -1s38.333 -1 57 -1h13c5.33301 0 9.33301 -1.66699 12 -5s4 -7 4 -11c0 -2 -2.5 -6.5 -7.5 -13.5l-18.5 -25c-7.33301 -9.66699 -15.333 -19.5 -24 -29.5
s-16.667 -18.333 -24 -25c-12 -12 -22 -23.667 -30 -35s-15.667 -20 -23 -26c28.667 -2.66699 55.834 -10.5 81.501 -23.5s48.167 -29.167 67.5 -48.5s34.666 -40.333 45.999 -63s17.666 -45 18.999 -67l-1 -10l-15 -10h-23c-12 0 -23.5 -0.166992 -34.5 -0.5
s-22.167 -0.5 -33.5 -0.5c-16.667 0 -33.334 1 -50.001 3c-8 4.66699 -14.5 9.5 -19.5 14.5s-10 9.66699 -15 14s-10.5 8 -16.5 11s-14 4.5 -24 4.5h-4c-8.66699 0 -16.667 -1.66699 -24 -5s-14 -7.16602 -20 -11.499s-11.167 -9 -15.5 -14s-7.5 -9.5 -9.5 -13.5
c-30 2 -59 3 -87 3c-11.333 0 -22.666 -0.5 -33.999 -1.5s-22.666 -1.5 -33.999 -1.5c-7.33301 0 -11.333 3 -12 9l1 15c2 35.333 9.16699 69.5 21.5 102.5s27.333 64.667 45 95s36.5 59.166 56.5 86.499zM51.002 163c0 5.33301 1.50293 9.66797 4.50293 13.001
s6.16699 5.66602 9.5 6.99902l149 -2c6 -4 11.167 -8.33301 15.5 -13s9.16602 -9 14.499 -13s11.333 -7.33301 18 -10s15 -4 25 -4h6c8.66699 0 16.5 2 23.5 6s13.167 8.33301 18.5 13s9.66602 9 12.999 13s6 6 8 6c14.667 0 33.667 0.666992 57 2s45 2 65 2
c12 0 22.167 -1.16699 30.5 -3.5s13.166 -7.5 14.499 -15.5c-2.66699 -8 -5 -17.333 -7 -28s-6 -22 -12 -34c-10.667 -21.333 -24.5 -39.833 -41.5 -55.5s-35.667 -28.5 -56 -38.5s-42 -17.5 -65 -22.5s-45.833 -7.5 -68.5 -7.5c-27.333 0 -53.5 4.66699 -78.5 14
s-47.5 22.166 -67.5 38.499s-36.667 35.833 -50 58.5s-22 47.334 -26 74.001z" />
    <glyph glyph-name="seven" unicode="7" horiz-adv-x="534" 
d="M41 457c0 10.667 -0.166992 22.833 -0.5 36.5s-0.5 27.167 -0.5 40.5c0 20 1 37.667 3 53s6.66699 23 14 23c1.33301 0 2 -0.166992 2 -0.5s0.666992 -0.5 2 -0.5c30 0.666992 59 1.66699 87 3s56 2 84 2h29c4 0 8.5 -0.166992 13.5 -0.5s10 -1.33301 15 -3
s9.16699 -3.66699 12.5 -6s5 -5.5 5 -9.5s-3.66699 -13.833 -11 -29.5l-24.5 -50c-9 -17.667 -17.5 -33.5 -25.5 -47.5s-13 -21 -15 -21c-0.666992 0 -3.66699 0.666992 -9 2c-23.333 -4 -45.5 -6.33301 -66.5 -7s-42.833 -1 -65.5 -1c-12.667 0 -24 1 -34 3
s-15 6.33301 -15 13zM507 611.999c7.33301 -1.33301 13.835 -3.16602 19.502 -5.49902s8.5 -6.5 8.5 -12.5c0 -4 -1.33301 -8.33301 -4 -13c-52.667 -100 -101.167 -199.333 -145.5 -298s-82.5 -195 -114.5 -289c-1.33301 -4.66699 -3 -7 -5 -7
c-2.66699 0 -5.33398 0.333008 -8.00098 1s-5.33398 1 -8.00098 1l-145 -5c-3.33301 0 -6 1.16699 -8 3.5s-3 5.16602 -3 8.49902c0 2.66699 0.333008 4.66699 1 6l79.5 162.5l68.5 151l61 144.5l59 143c1.33301 2.66699 3.5 5.5 6.5 8.5s7.16699 4.5 12.5 4.5z" />
    <glyph glyph-name="eight" unicode="8" horiz-adv-x="552" 
d="M466 454c0 -14 -0.335938 -25.833 -1.00293 -35.5s-1.66699 -18.334 -3 -26.001s-3 -14.5 -5 -20.5l-7 -20c38 -36 57 -77.333 57 -124c0 -10.667 -1 -21.334 -3 -32.001v-11c0 -54 -16.5 -97.833 -49.5 -131.5s-77.5 -57.167 -133.5 -70.5c-6 0 -11.667 2.66699 -17 8
l-1 148c1.33301 4.66699 4.33301 8.83398 9 12.501s9.33398 7.83398 14.001 12.501s8.83398 9.83398 12.501 15.501s5.5 12.834 5.5 21.501c0 9.33301 -2.33301 17.166 -7 23.499s-10 11.833 -16 16.5l-16 12.5c-4.66699 3.66699 -7 7.5 -7 11.5
c2.66699 39.333 4.5 76.833 5.5 112.5s1.5 70.5 1.5 104.5c0 19.333 -0.166992 38.666 -0.5 57.999s-0.833008 39.333 -1.5 60c0 4 1.33301 7.5 4 10.5s6.33398 4.5 11.001 4.5c17.333 0 34.833 -5.5 52.5 -16.5s33.5 -24.667 47.5 -41s25.5 -33.833 34.5 -52.5
s13.5 -35.667 13.5 -51zM82.9971 429c0 21.333 4.83203 43.168 14.499 65.501s21.834 42.5 36.501 60.5s30.834 32.667 48.501 44s34.5 17 50.5 17c8.66699 0 18 -9 28 -27l-14 -331c-0.666992 -4.66699 -2.83398 -8.83398 -6.50098 -12.501l-12 -11.5
c-4.33301 -4 -8.33301 -8.66699 -12 -14s-5.83398 -12.333 -6.50098 -21v-2c0 -9.33301 1.83301 -16.166 5.5 -20.499s7.66699 -8.5 12 -12.5s8.33301 -9.16699 12 -15.5s5.5 -15.833 5.5 -28.5c0 -10.667 -0.166992 -20 -0.5 -28s-0.5 -15.667 -0.5 -23
c0 -23.333 1 -47 3 -71c0 -4.66699 -1.66699 -8.5 -5 -11.5s-7.33301 -4.5 -12 -4.5c-3.33301 0 -7.5 0.833008 -12.5 2.5s-9.16699 3.16699 -12.5 4.5c-7.33301 2 -14.333 3 -21 3s-13.667 2.33301 -21 7c-16.667 10 -32.667 22.167 -48 36.5s-29 30 -41 47
s-21.5 35 -28.5 54s-10.5 38.167 -10.5 57.5c0 32 6.33301 61.167 19 87.5s29.667 49.5 51 69.5c-7.33301 11.333 -12.666 24.166 -15.999 38.499s-5.33301 27.5 -6 39.5z" />
    <glyph glyph-name="nine" unicode="9" horiz-adv-x="567" 
d="M46 435c1.33301 8 2.83008 15.999 4.49707 23.999s3.83398 16.667 6.50098 26c6.66699 22 17.334 41.833 32.001 59.5s31.667 32.5 51 44.5s40.5 21.167 63.5 27.5s45.833 9.5 68.5 9.5h3c24.667 0 48.667 -3.16699 72 -9.5s44.666 -15.5 63.999 -27.5
s36.333 -26.667 51 -44s26.334 -37.333 35.001 -60l8.5 -23c3 -8 5.16699 -16.667 6.5 -26c0 -4 -1.16699 -8.16699 -3.5 -12.5s-5.83301 -7.16602 -10.5 -8.49902l-151 3c-6 2 -11.167 5 -15.5 9l-13.5 12c-4.66699 4 -9.66699 7.33301 -15 10s-12 4 -20 4h-16
c-8 0 -14.833 -2 -20.5 -6s-11 -8.33301 -16 -13s-10.167 -9 -15.5 -13s-11.666 -6 -18.999 -6c-15.333 0 -31.5 0.666992 -48.5 2s-34.167 2 -51.5 2c-6 0 -11.833 -0.166992 -17.5 -0.5s-11.167 -0.5 -16.5 -0.5l-10 3zM44.9971 344.999
c0 6.66699 0.833984 10.8408 2.50098 12.5078s3.83398 2.5 6.50098 2.5s4.66699 -0.333008 6 -1c25.333 3.33301 50 5.16602 74 5.49902s47.333 0.5 70 0.5c5.33301 -0.666992 9.33301 -3 12 -7c9.33301 -11.333 18.5 -19.5 27.5 -24.5s19.5 -7.5 31.5 -7.5h4
c8 0 15.833 2 23.5 6s14.5 8.16699 20.5 12.5s11 8.5 15 12.5l6 6l155 2c4.66699 0 8.5 -1.83301 11.5 -5.5s4.5 -7.83398 4.5 -12.501c-1.33301 -7.33301 -2.5 -14.333 -3.5 -21s-1.5 -12.667 -1.5 -18c0 -1.33301 0.166992 -2.83301 0.5 -4.5s0.5 -3.83398 0.5 -6.50098
c-8 -32.667 -18.167 -62.334 -30.5 -89.001s-25.833 -51.834 -40.5 -75.501s-30 -46.834 -46 -69.501s-31.667 -46.334 -47 -71.001c-4 -5.33301 -7 -8.66602 -9 -9.99902s-6.66699 -2 -14 -2c-32 2 -64.333 2.83301 -97 2.5s-64 0.166992 -94 1.5
c-4.66699 0 -8.33398 1.66699 -11.001 5s-4 7.66602 -4 12.999s4.83301 13.166 14.5 23.499s20.834 21.5 33.501 33.5l38.5 36c13 12 22.5 22.667 28.5 32c5.33301 5.33301 9.66602 10.5 12.999 15.5s6.66602 9.16699 9.99902 12.5c-44 4.66699 -83.5 18.5 -118.5 41.5
s-61.167 56.5 -78.5 100.5c-4.66699 8 -7.66699 16 -9 24s-3 16 -5 24z" />
    <glyph glyph-name="colon" unicode=":" horiz-adv-x="311" 
d="M58 80c0 28.667 9.66895 53 29.002 73s43.666 30 72.999 30c10.667 0 21.667 -2.66699 33 -8s21.666 -12.5 30.999 -21.5s17 -19.167 23 -30.5s9 -23.333 9 -36c0 -13.333 -3 -25.833 -9 -37.5s-13.667 -22 -23 -31s-20 -16.167 -32 -21.5s-24.333 -8.33301 -37 -9
c-30.667 0 -54.5 9 -71.5 27s-25.5 39.667 -25.5 65zM54.002 307c0 13.333 3.16504 25.8311 9.49805 37.498s14.5 21.834 24.5 30.501s20.833 15.834 32.5 21.501s23.167 9.5 34.5 11.5c12.667 0 25 -2.83301 37 -8.5s22.833 -13.167 32.5 -22.5
s17.334 -19.833 23.001 -31.5s8.5 -23.167 8.5 -34.5c0 -14 -2.66699 -27.333 -8 -40s-12.666 -24 -21.999 -34s-20.166 -18 -32.499 -24s-25.5 -9 -39.5 -9c-11.333 0 -22.833 3 -34.5 9s-22.334 14 -32.001 24s-17.5 21.167 -23.5 33.5s-9.33301 24.5 -10 36.5z" />
    <glyph glyph-name="semicolon" unicode=";" horiz-adv-x="320" 
d="M185 401c12.667 0 25.0029 -2.50195 37.0029 -7.50195s22.5 -11.667 31.5 -20s16.167 -18.333 21.5 -30s8 -23.834 8 -36.501c0 -27.333 -8.83301 -50.166 -26.5 -68.499s-37.834 -29.166 -60.501 -32.499c-7.33301 -1.33301 -11 -2.66602 -11 -3.99902
s4.33301 -3.83301 13 -7.5s18.667 -7.33398 30 -11.001l34 -10.5c11.333 -3.33301 19.666 -5.66602 24.999 -6.99902c2.66699 -1.33301 4.83398 -3 6.50098 -5s2.5 -5.66699 2.5 -11c0 -1.33301 -0.166992 -2.83301 -0.5 -4.5s-0.5 -3.16699 -0.5 -4.5
c-26 -50 -48.5 -97.833 -67.5 -143.5s-36.167 -92.5 -51.5 -140.5c-12 -10 -20.667 -15 -26 -15c-2 0 -3.33301 0.333008 -4 1l-53 21.5c-18 7 -37 12.833 -57 17.5c-6 6 -9 12 -9 18c0 2 0.333008 3.33301 1 4l79 301c5.33301 5.33301 10.166 9 14.499 11
s6.5 3.66699 6.5 5c0 2 -1.66699 4 -5 6c-26 17.333 -40.333 44.333 -43 81c3.33301 25.333 14.666 46.833 33.999 64.5s43 27.167 71 28.5z" />
    <glyph glyph-name="less" unicode="&#x3c;" horiz-adv-x="431" 
d="M374 535l15.001 7.50098c2 1 3.66699 1.5 5 1.5c4.66699 0 8.66699 -1.5 12 -4.5s5 -6.83301 5 -11.5l-3 -168l-5 -6c-11.333 -5.33301 -21.5 -11 -30.5 -17s-19.167 -10.667 -30.5 -14l31 -17c10 -5.33301 20 -10.333 30 -15l7 -16v-13
c0 -10.667 0.166992 -21.167 0.5 -31.5s0.5 -20.833 0.5 -31.5c0 -14.667 -0.333008 -28.834 -1 -42.501s-2.33398 -26.834 -5.00098 -39.501l1 -5c0 -2.66699 -1.16699 -5 -3.5 -7s-5.16602 -3 -8.49902 -3c-2.66699 0 -5.33398 0.666992 -8.00098 2
c-30 18.667 -60 35.834 -90 51.501l-90 47l-91.5 48.5c-31 16.667 -62.5 35 -94.5 55c-5.33301 2 -9.33301 4.66699 -12 8s-4 6.66602 -4 9.99902c0 4.66699 2.33301 8.33398 7 11.001l97 53l89.5 51.5l87 49z" />
    <glyph glyph-name="equal" unicode="=" horiz-adv-x="449" 
d="M60 436c1.33301 4 3.16699 7.66797 5.5 11.001s6.5 6.66602 12.5 9.99902l308 -6l10 -4c3.33301 -1.33301 5 -4.33301 5 -9c0 -0.666992 -0.166992 -1.16699 -0.5 -1.5s-0.5 -0.833008 -0.5 -1.5l2 -67c-1.33301 -4.66699 -3 -8.66699 -5 -12s-3.66699 -5 -5 -5l-316 1
c-4.66699 1.33301 -8.66699 3 -12 5s-5 5.33301 -5 10zM60.001 272.001c1.33301 4 3.5 8.00098 6.5 12.001s8.16699 8.33301 15.5 13l304 -10c8 -2.66699 12.833 -8.83398 14.5 -18.501s2.5 -20.167 2.5 -31.5v-14.5c0 -5.66699 -0.5 -11 -1.5 -16s-2.5 -9.16699 -4.5 -12.5
s-4.66699 -5 -8 -5c-2.66699 0 -6 1 -10 3l-303 -9c-5.33301 1.33301 -9 3 -11 5s-3 5.66699 -3 11z" />
    <glyph glyph-name="greater" unicode="&#x3e;" horiz-adv-x="437" 
d="M14 530c0 8.66699 4.33496 13.001 13.002 13.001c1.33301 0 3.66602 -1 6.99902 -3c34 -15.333 66.333 -31.333 97 -48l91 -50.5l92.5 -50.5c31.667 -16.667 66.167 -32 103.5 -46c0 -7.33301 -0.5 -14.333 -1.5 -21s-4.16699 -11.667 -9.5 -15l-185 -106l-178 -100h-7
c-18 0 -27 5.66699 -27 17c0.666992 27.333 1.16699 50.333 1.5 69s0.666016 34.167 0.999023 46.5s0.5 21.666 0.5 27.999v14.5c0 5.33301 0.5 8.83301 1.5 10.5s2.5 3.16699 4.5 4.5l56 29l-56 32c-4.66699 4 -7.66699 8.66699 -9 14l6 154z" />
    <glyph glyph-name="question" unicode="?" horiz-adv-x="472" 
d="M143 81c0 4.66699 0.330078 9.83301 0.99707 15.5s1.83398 11.167 3.50098 16.5s4.33398 9.83301 8.00098 13.5s8.5 5.83398 14.5 6.50098l149 3c9.33301 -3.33301 15.833 -10.5 19.5 -21.5s6.16699 -23.167 7.5 -36.5c0 -12 -2.66699 -23.667 -8 -35
s-12.333 -21.333 -21 -30s-18.667 -15.667 -30 -21s-23.333 -8 -36 -8h-3c-30 1.33301 -54.667 11.166 -74 29.499s-29.666 40.833 -30.999 67.5zM165.997 638.999c11.333 4.66699 23.0039 8.33789 35.0039 11.0049c8 -0.666992 12.833 -2 14.5 -4s3.16699 -5.66699 4.5 -11
c-0.666992 -20 -1.33398 -38.833 -2.00098 -56.5s-1 -35.5 -1 -53.5v-22c0 -9.33301 -0.333008 -16 -1 -20s-3.33398 -10 -8.00098 -18c-4.66699 -4.66699 -8.66699 -11 -12 -19l-9.5 -23.5c-3 -7.66699 -6.16699 -14.334 -9.5 -20.001s-7.33301 -8.5 -12 -8.5
c-0.666992 0 -8.33398 2.66699 -23.001 8s-30.5 11.666 -47.5 18.999s-32.5 15.166 -46.5 23.499s-21 15.166 -21 20.499s1.66699 11.666 5 18.999s6 14 8 20c11.333 32 28.166 59.5 50.499 82.5s47.5 40.5 75.5 52.5zM246.001 635.003c0 10 6.33301 15.3369 19 16.0039
c24.667 -5.33301 47.5 -13.666 68.5 -24.999s38.833 -25.5 53.5 -42.5s26.167 -36.167 34.5 -57.5s12.5 -44.333 12.5 -69c0 -36 -10.333 -72 -31 -108s-46.334 -72 -77.001 -108l1 -52c-2 -11.333 -7.33301 -18 -16 -20l-140 4c-4 1.33301 -7.66699 3.16602 -11 5.49902
s-5 6.16602 -5 11.499c0 4 0.333008 7.83301 1 11.5s1 7.5 1 11.5v28c0 7.33301 -0.166992 13.833 -0.5 19.5s-0.666016 11 -0.999023 16s-0.5 10.5 -0.5 16.5c0 5.33301 2 10.666 6 15.999c8.66699 11.333 18.334 22.5 29.001 33.5s20.667 22.333 30 34s17.5 24 24.5 37
s11.833 27.5 14.5 43.5c-0.666992 5.33301 -2.33398 11.166 -5.00098 17.499s-7 11.166 -13 14.499z" />
    <glyph glyph-name="at" unicode="@" horiz-adv-x="789" 
d="M405 678c46 -5.33301 89.167 -17.333 129.5 -36s75.333 -42.5 105 -71.5s53.167 -62.833 70.5 -101.5s26 -81 26 -127c1.33301 -11.333 2.16602 -20.5 2.49902 -27.5s0.5 -13.5 0.5 -19.5c0 -48 -10.333 -91.833 -31 -131.5s-47.667 -74.167 -81 -103.5
s-70.666 -52.833 -111.999 -70.5s-83 -28.5 -125 -32.5c-41.333 6 -81.833 19.5 -121.5 40.5s-75.5 47.667 -107.5 80s-58.333 69.333 -79 111s-32 86.167 -34 133.5c0 46 9.66699 89 29 129s45.166 75 77.499 105s69.333 54.333 111 73s84.834 30 129.501 34zM155 344
c0 -17.333 1.16602 -30.668 3.49902 -40.001s3.83301 -16.666 4.5 -21.999c1.33301 -26.667 8.33301 -51.834 21 -75.501s29.167 -44.834 49.5 -63.501s44 -34 71 -46s55.833 -19.333 86.5 -22c34.667 2.66699 67.334 10.834 98.001 24.501s57.667 31.334 81 53.001
s41.833 46.5 55.5 74.5s20.5 58 20.5 90c0 34 -7.5 66 -22.5 96s-34.167 56.5 -57.5 79.5s-48.833 41.833 -76.5 56.5s-54.5 23 -80.5 25h-2c-34 0 -66.167 -6.5 -96.5 -19.5s-57 -30.167 -80 -51.5s-41.333 -45.833 -55 -73.5s-20.5 -56.167 -20.5 -85.5zM378.999 441.998
l0.000976562 15.002c0 8 1 15.5 3 22.5s7 11.167 15 12.5c16 -2.66699 31 -7 45 -13l8 -4c2.66699 4 5.33398 6.66699 8.00098 8s5 2 7 2h67c7.33301 -1.33301 11 -3.33301 11 -6c0 -45.333 1.5 -88.666 4.5 -129.999s4.5 -83 4.5 -125
c0 -8.66699 -0.166992 -17.334 -0.5 -26.001s-1.33301 -16.5 -3 -23.5s-3.83398 -12.667 -6.50098 -17s-6.33398 -6.5 -11.001 -6.5h-66c-8.66699 1.33301 -14 5.33301 -16 12l-28 -9c-8 -2.66699 -16 -4.33398 -24 -5.00098c-4 0.666992 -7.83301 2.16699 -11.5 4.5
s-5.5 5.16602 -5.5 8.49902v71c0 4 1.33301 7.16699 4 9.5s5.66699 4.16602 9 5.49902c14.667 5.33301 25.834 11.833 33.501 19.5s13.167 15.167 16.5 22.5c2.66699 6 4 12.333 4 19c0 17.333 -3.33301 33.333 -10 48s-17.667 25.334 -33 32.001l-14 4
c-4.66699 1.33301 -7.33398 3.33301 -8.00098 6zM308 479c6 3.33301 13.3301 5.99707 21.9971 7.99707s16.667 3.66699 24 5c4.66699 -0.666992 8.83398 -2.16699 12.501 -4.5s6.16699 -5.83301 7.5 -10.5c-3.33301 -16.667 -5 -31.334 -5 -44.001
c0 -4.66699 0.166992 -9.16699 0.5 -13.5s0.833008 -8.5 1.5 -12.5c-0.666992 -4 -2.16699 -7.33301 -4.5 -10s-5.16602 -4.66699 -8.49902 -6l-13 -3c-13.333 -3.33301 -24.166 -11.666 -32.499 -24.999s-13.166 -28.666 -14.499 -45.999c3.33301 -13.333 9 -26 17 -38
s22.333 -22.333 43 -31c8 -2 12.667 -7.33301 14 -16v-68c0 -10.667 -5.33301 -16 -16 -16c-27.333 4 -50.166 11.5 -68.499 22.5s-33.333 24.333 -45 40s-20.334 32.834 -26.001 51.501s-8.83398 37.667 -9.50098 57v7c0 15.333 2.5 30.833 7.5 46.5s12 30.334 21 44.001
s19.667 26 32 37s25.833 19.5 40.5 25.5z" />
    <glyph glyph-name="A" unicode="A" horiz-adv-x="627" 
d="M361 646c3.33301 0 5.66602 -1.16699 6.99902 -3.5s2 -7.5 2 -15.5v-12c0 -2 -0.333008 -3.66699 -1 -5c28.667 -42.667 54.334 -88.167 77.001 -136.5s43.834 -98.333 63.501 -150s38.167 -104.167 55.5 -157.5l53 -159c0 -10 -2.5 -16.667 -7.5 -20s-9.5 -5 -13.5 -5
c-18.667 0 -36.5 1 -53.5 3s-33.833 3 -50.5 3c-14 0 -28.333 -1 -43 -3c-3.33301 0 -5 1 -5 3c-18 50 -37.333 99 -58 147l-61.5 143.5c-20.333 47.667 -39.5 95.5 -57.5 143.5s-33 96.667 -45 146c2 6 4 13 6 21s4.5 16 7.5 24s6.66699 15.333 11 22
s10.166 11.667 17.499 15zM297 211c4 -0.666992 9 -5.16406 15 -13.4971s11.667 -18.333 17 -30s10 -23.834 14 -36.501s6 -23.667 6 -33c0 -10 -5.33301 -16 -16 -18l-109 4c-5.33301 -14.667 -11.333 -29.334 -18 -44.001s-12 -30 -16 -46
c-1.33301 -6.66699 -3.33301 -11 -6 -13s-5.33398 -3 -8.00098 -3c-13.333 0 -26.5 0.666992 -39.5 2s-26.5 2 -40.5 2h-10c-4.66699 0 -9.66699 -0.166992 -15 -0.5s-11 -0.5 -17 -0.5c-12 0 -22.667 0.833008 -32 2.5s-14 5.16699 -14 10.5c0 2.66699 1.33301 5 4 7
c18 36.667 34 73.667 48 111s27.5 75.166 40.5 113.499l39 117.5c13 40 27.5 81 43.5 123c2 6.66699 6.66699 10 14 10c8.66699 0 16.334 -5.33301 23.001 -16c2.66699 -17.333 6.66699 -34 12 -50s11.166 -31.833 17.499 -47.5l20.5 -48.5c7.33301 -16.667 14 -34 20 -52
c-3.33301 -9.33301 -6.66602 -17.833 -9.99902 -25.5s-6.33301 -16.167 -9 -25.5h26z" />
    <glyph glyph-name="B" unicode="B" horiz-adv-x="537" 
d="M211 646c8.66699 -0.666992 14.668 -3.16992 18.001 -7.50293s5.33301 -10.166 6 -17.499c-4.66699 -34 -7.66699 -67.167 -9 -99.5s-2 -65.166 -2 -98.499c0 -48.667 1 -97 3 -145s3 -97.333 3 -148c0 -21.333 -0.333008 -42.666 -1 -63.999s-1.66699 -43 -3 -65l-3 -8
l-14 -13c-15.333 2 -31.333 3 -48 3c-6.66699 0 -13.167 -0.166992 -19.5 -0.5s-12.5 -0.5 -18.5 -0.5h-21c-10.667 0 -20.334 1 -29.001 3s-13 6.66699 -13 14c0 2 1.16699 4.33301 3.5 7s3.5 6 3.5 10c2.66699 40 4.5 78.5 5.5 115.5s1.5 73.5 1.5 109.5
c0 64.667 -1.16699 128.167 -3.5 190.5s-5.16602 128.166 -8.49902 197.499c1.33301 4.66699 3.16602 8.83398 5.49902 12.501s6.5 6.5 12.5 8.5c10 0 21 -0.166992 33 -0.5l36 -1l34.5 -1c11 -0.333008 20.167 -0.833008 27.5 -1.5zM247.001 598.997
c0 17.333 0.994141 29.1621 2.99414 35.4951s4.66699 9.5 8 9.5s6.83301 -0.166992 10.5 -0.5s7.16699 -0.833008 10.5 -1.5c20 0 40 -4.66699 60 -14s38 -22.166 54 -38.499s29 -36 39 -59s15 -48.167 15 -75.5v-13c0 -15.333 -2.16699 -30.666 -6.5 -45.999l-11.5 -41
c10 -9.33301 19 -20 27 -32s14.833 -24.667 20.5 -38s10 -27 13 -41s4.83301 -27.333 5.5 -40v-8c0 -24 -4.33301 -48.667 -13 -74s-22 -48.166 -40 -68.499s-40.667 -37 -68 -50s-59.333 -19.5 -96 -19.5c-4.66699 0 -11 0.833008 -19 2.5s-12 4.83398 -12 9.50098l1 142
c0.666992 8.66699 5.66699 14 15 16v1c12.667 0 24.834 2.16699 36.501 6.5s17.834 13.833 18.501 28.5v2c0 15.333 -4.66699 27.5 -14 36.5s-20.666 13.5 -33.999 13.5h-6c-4.66699 1.33301 -8.66699 3.33301 -12 6s-5 7.33398 -5 14.001l1 141
c0.666992 4 2.33398 7.33301 5.00098 10s5.5 5.33398 8.5 8.00098s5.5 5.66699 7.5 9s3 7.66602 3 12.999v9c0 6 -1.16699 10.667 -3.5 14s-4.66602 6.33301 -6.99902 9s-4.66602 5 -6.99902 7s-3.5 4.33301 -3.5 7v15c0 16 -0.666992 32 -2 48s-2 31.667 -2 47z" />
    <glyph glyph-name="C" unicode="C" horiz-adv-x="566" 
d="M387 665c10.667 0 23.002 -0.328125 37.002 -0.995117s27.167 -3 39.5 -7s22.666 -9.83301 30.999 -17.5s12.5 -18.5 12.5 -32.5c0 -22.667 -0.5 -45.334 -1.5 -68.001s-1.83301 -45.334 -2.5 -68.001c0 -10 -5.33301 -15 -16 -15
c-2.66699 0 -5.33398 0.666992 -8.00098 2c-12.667 8.66699 -25.334 15.834 -38.001 21.501s-27.334 8.5 -44.001 8.5c-50.667 0 -92.667 -13.333 -126 -40s-54.666 -69.334 -63.999 -128.001c0 -24 4.66699 -46.5 14 -67.5s22 -39.333 38 -55s34.667 -27.834 56 -36.501
s44 -13 68 -13c17.333 0 32.5 1.5 45.5 4.5s26.167 8.5 39.5 16.5c3.33301 3.33301 6.5 6 9.5 8s6.16699 3 9.5 3c4.66699 0 8.83398 -1.33301 12.501 -4s6.16699 -5.66699 7.5 -9l-4 -159c-1.33301 -6.66699 -6.5 -12.167 -15.5 -16.5s-19.667 -8.16602 -32 -11.499
l-39.5 -10.5c-14 -3.66699 -26 -7.83398 -36 -12.501c-43.333 6 -85.5 20.167 -126.5 42.5s-77.5 50.166 -109.5 83.499s-57.833 71 -77.5 113s-29.5 86 -29.5 132s10 88.667 30 128s46.333 74 79 104s70 54.167 112 72.5s85 29.166 129 32.499z" />
    <glyph glyph-name="D" unicode="D" horiz-adv-x="623" 
d="M270 632l6.99707 2.99805h10c12 -3.33301 23.333 -6.66602 34 -9.99902s21.334 -5.66602 32.001 -6.99902c27.333 -14 54.833 -31.667 82.5 -53s52.5 -45 74.5 -71s40 -53.5 54 -82.5s21 -57.833 21 -86.5c-9.33301 -72.667 -31.833 -136.5 -67.5 -191.5
s-86.834 -96.5 -153.501 -124.5l-80 -21l-16 7l-2 149c0 6 3.33301 11 10 15l22 6c16 5.33301 30.5 13.5 43.5 24.5s24.167 23.333 33.5 37s16.5 28 21.5 43s7.83301 29.5 8.5 43.5c-3.33301 33.333 -14.166 64 -32.499 92s-43.5 48 -75.5 60h1l-19 6
c-3.33301 1.33301 -6.16602 3.33301 -8.49902 6s-5.16602 5.66699 -8.49902 9l4 135zM68.9971 644.998c12.667 0.666992 24.832 1.16699 36.499 1.5s23.167 0.5 34.5 0.5c5.33301 0 10.5 -0.166992 15.5 -0.5s10.5 -0.5 16.5 -0.5l16 1
c5.33301 0 8.66602 -0.333008 9.99902 -1h17c6 -1.33301 9 -4.33301 9 -9c0 -1.33301 -0.666992 -2.66602 -2 -3.99902l7.5 -218c2.33301 -70.667 3.5 -143 3.5 -217v-78c0 -16 -0.166992 -32 -0.5 -48s-1.16602 -30.5 -2.49902 -43.5s-3 -23.667 -5 -32
s-4.66699 -12.5 -8 -12.5h-1c-27.333 2 -54.333 3 -81 3c-22 0 -43.333 -1 -64 -3c-5.33301 1.33301 -9.5 8.16602 -12.5 20.499s-5.33301 27.833 -7 46.5s-2.83398 39.5 -3.50098 62.5s-1 46.167 -1 69.5v70.5c0 29.667 0.166992 61.667 0.5 96s0.833008 69 1.5 104
s1.83398 66.667 3.50098 95s3.83398 51.5 6.50098 69.5s6 27 10 27z" />
    <glyph glyph-name="E" unicode="E" horiz-adv-x="550" 
d="M219 645c13.333 0 22.668 -5.66211 28.001 -16.9951v-64c0 -51.333 -0.666992 -99.833 -2 -145.5s-3 -90.834 -5 -135.501s-3.66699 -90 -5 -136s-2 -94.667 -2 -146c0 -9.33301 -5.33301 -16.333 -16 -21c-16 3.33301 -32.833 5.16602 -50.5 5.49902
s-35.834 0.5 -54.501 0.5h-36c-10.667 2.66699 -16 7.66699 -16 15c0 3.33301 0.166992 9.16602 0.5 17.499s0.5 15.166 0.5 20.499c0 21.333 -0.666992 42.666 -2 63.999s-2 45 -2 71c0 54.667 1.5 108 4.5 160s4.5 107 4.5 165c0 20.667 -0.166992 41.5 -0.5 62.5
s-1.5 43.167 -3.5 66.5c1.33301 4 3 7.66699 5 11s5.33301 5.33301 10 6c24 -2 50 -3 78 -3c22.667 0 44 1 64 3zM337.002 157.005c8 0 17.834 0.163086 29.501 0.496094s24.167 0.5 37.5 0.5c12.667 0 25.834 -0.333008 39.501 -1s26 -1.66699 37 -3
s20.167 -3.66602 27.5 -6.99902s11.666 -7.33301 12.999 -12c0 -22 -0.333008 -44.167 -1 -66.5l-2 -66.5c-2.66699 -11.333 -8.5 -18.5 -17.5 -21.5s-20.5 -4.5 -34.5 -4.5h-62c-23.333 0 -45.5 0.833008 -66.5 2.5s-38.833 4.16699 -53.5 7.5s-23 8.33301 -25 15
c0 6.66699 0.166992 15.834 0.5 27.501s0.666016 24 0.999023 37l1 38.5c0.333008 12.667 0.5 23 0.5 31c1.33301 4.66699 3.33301 8.83398 6 12.501s7.66699 6.83398 15 9.50098h54zM262.003 344.001c0 3.33301 1.49902 6.83203 4.49902 10.499s6.5 5.5 10.5 5.5
c7.33301 0 16.833 -0.333008 28.5 -1s22.5 -1 32.5 -1c19.333 0 38.833 0.333008 58.5 1s38.834 1 57.501 1c19.333 0 31.666 -3.66699 36.999 -11s8 -17.666 8 -30.999c0 -5.33301 -0.166992 -10.666 -0.5 -15.999s-0.5 -11.333 -0.5 -18v-45c0 -14 -1.16699 -25 -3.5 -33
s-7.16602 -12.667 -14.499 -14c-8 0.666992 -16.167 1.16699 -24.5 1.5s-17.166 0.5 -26.499 0.5c-20.667 0 -41.5 -0.5 -62.5 -1.5s-42.833 -1.5 -65.5 -1.5c-10 0 -19.333 1.16699 -28 3.5s-13.334 8.16602 -14.001 17.499zM263.002 630
c1.33301 4.66699 3.5 8.83203 6.5 12.499s7.5 5.83398 13.5 6.50098c20 -1.33301 41.833 -2.33301 65.5 -3s48.167 -1 73.5 -1h63c8 0 12 -5.33301 12 -16c0 -20 0.5 -43 1.5 -69s1.5 -48.667 1.5 -68c0 -9.33301 -4.66699 -14 -14 -14h-182
c-4 0 -8.33301 -0.166992 -13 -0.5s-9 -0.5 -13 -0.5c-8.66699 0 -13 3.33301 -13 10c0 18 -0.333008 37.5 -1 58.5s-1 49.167 -1 84.5z" />
    <glyph glyph-name="F" unicode="F" horiz-adv-x="529" 
d="M62 628l3.5 8.49902c1 2.33301 3.16699 3.5 6.5 3.5c1.33301 0 2.33301 -0.166992 3 -0.5s1.33398 -0.5 2.00098 -0.5c16.667 2.66699 32.5 4.33398 47.5 5.00098s30.167 1 45.5 1h48l14 -8l1 -8l-11 -13c5.33301 -63.333 9.66602 -128.666 12.999 -195.999
s5 -137 5 -209s-2 -142.333 -6 -211l-8 -14l-150 -2c-6.66699 1.33301 -10 5.33301 -10 12c0 3.33301 1.16699 8.33301 3.5 15s3.5 15.334 3.5 26.001v55c0 39.333 -0.5 80.833 -1.5 124.5s-2.33301 87.667 -4 132s-3 88.166 -4 131.499s-1.5 84.666 -1.5 123.999v24z
M285 650.999l47 0.000976562c23.333 0 47.833 -0.333008 73.5 -1s51.167 -2.33398 76.5 -5.00098c8 -1.33301 13 -6.33301 15 -15s3 -17.334 3 -26.001v-57c0 -16 -0.833008 -31.167 -2.5 -45.5s-5.83398 -21.5 -12.501 -21.5c-2 0 -5 0.666992 -9 2
c-12 -3.33301 -24 -5.16602 -36 -5.49902s-24.333 -0.5 -37 -0.5c-14 0 -28.5 0.333008 -43.5 1s-30.167 1 -45.5 1h-26c-3.33301 0 -6 -0.333008 -8 -1c-9.33301 2 -15.666 6.66699 -18.999 14l4 138c1.33301 4.66699 3 8.66699 5 12s5 5 9 5zM296 192l-7 -0.000976562
c-2 0 -4.66699 -0.333008 -8 -1c-8.66699 2.66699 -13 6 -13 10c0 0.666992 0.166992 1.5 0.5 2.5s0.5 2.16699 0.5 3.5c-1.33301 24.667 -2.33301 48.334 -3 71.001s-1 44.667 -1 66c1.33301 4.66699 2.66602 8.16699 3.99902 10.5s4 3.5 8 3.5l199 2
c8.66699 -2.66699 13 -5.66699 13 -9c0 -2.66699 -0.333008 -5 -1 -7l4 -137l-8 -14l-9 -1c-7.33301 0 -14.333 -0.166992 -21 -0.5s-13.667 -0.5 -21 -0.5c-15.333 0 -30.666 0.166992 -45.999 0.5s-31 0.5 -47 0.5h-44z" />
    <glyph glyph-name="G" unicode="G" horiz-adv-x="666" 
d="M323 345c0 6 2.33398 10.999 7.00098 14.999c35.333 1.33301 67.166 2.33301 95.499 3s59.166 1 92.499 1c10 0 20.167 -0.166992 30.5 -0.5s19.833 -1.33301 28.5 -3s15.834 -3.66699 21.501 -6s8.5 -5.5 8.5 -9.5v-138c-3.33301 -10.667 -8.33301 -16 -15 -16h-1
c-22.667 -2 -44.5 -3.66699 -65.5 -5s-41.5 -2 -61.5 -2c-10 0 -23 0.166992 -39 0.5s-31.5 1 -46.5 2s-28 2.83301 -39 5.5s-16.5 6.33398 -16.5 11.001v142zM54.001 341.999c0 38 9.16992 76.0029 27.5029 114.003s43 72.167 74 102.5s66.833 54.833 107.5 73.5
s83 28 127 28c14 0 30.333 -2.16699 49 -6.5s36.334 -9.66602 53.001 -15.999s30.834 -13 42.501 -20s17.5 -13.5 17.5 -19.5c0 -3.33301 -0.333008 -5 -1 -5c2.66699 -21.333 4.33398 -43.5 5.00098 -66.5s1 -47.167 1 -72.5c0 -13.333 -1.16699 -25.666 -3.5 -36.999
s-7.16602 -17 -14.499 -17c-4 0 -9.5 4.33301 -16.5 13s-16.167 18 -27.5 28s-24.833 19.333 -40.5 28s-33.834 13 -54.501 13c-7.33301 0 -14.333 -1 -21 -3c-3.33301 0.666992 -6.33301 1.16699 -9 1.5s-5.66699 0.5 -9 0.5c-18.667 0 -36.834 -4.5 -54.501 -13.5
s-33.334 -21.167 -47.001 -36.5s-24.834 -33 -33.501 -53s-13.334 -41 -14.001 -63v-6c0 -20 4 -39.833 12 -59.5s19 -37.334 33 -53.001s30.333 -28.334 49 -38.001s38.667 -14.5 60 -14.5h7c12.667 0 27 1.83301 43 5.5s31.667 9.16699 47 16.5h128l16 -8v-89l-9 -13
c-13.333 -11.333 -28.333 -21.833 -45 -31.5s-34.167 -18.334 -52.5 -26.001s-36.833 -14.167 -55.5 -19.5s-36.334 -9 -53.001 -11h-7c-42.667 0 -84 7.83301 -124 23.5s-75.5 37.5 -106.5 65.5s-55.833 61 -74.5 99s-28 79.333 -28 124
c0 7.33301 0.166992 14.666 0.5 21.999s1.16602 14.666 2.49902 21.999c-0.666992 1.33301 -1 4.33301 -1 9v9z" />
    <glyph glyph-name="H" unicode="H" horiz-adv-x="589" 
d="M355 630c1.33301 4.66699 3.1709 8.67285 5.50391 12.0059s6.5 6 12.5 8c9.33301 -1.33301 18.166 -2.33301 26.499 -3s16.5 -1 24.5 -1c11.333 0 22.166 0.333008 32.499 1s22.166 1 35.499 1c8 0 15.5 -1.33301 22.5 -4s10.5 -9 10.5 -19
c0 -4.66699 -1 -11.334 -3 -20.001c7.33301 -39.333 12.166 -80.5 14.499 -123.5s3.5 -87.5 3.5 -133.5c0 -56.667 -1.16699 -113.834 -3.5 -171.501s-4.83301 -115.834 -7.5 -174.501c-1.33301 -4.66699 -3.33301 -8.66699 -6 -12s-6.66699 -5.66602 -12 -6.99902
c-11.333 1.33301 -21.666 2.16602 -30.999 2.49902s-19.333 0.5 -30 0.5c-13.333 0 -26.5 -0.166992 -39.5 -0.5s-26.167 -0.833008 -39.5 -1.5c-3.33301 1.33301 -6.33301 2.83301 -9 4.5s-4 4.16699 -4 7.5c0 1.33301 1 3.66602 3 6.99902l-7 187
c-6 0.666992 -11.5 1.16699 -16.5 1.5s-10.167 0.5 -15.5 0.5c-7.33301 0 -14.5 -0.166992 -21.5 -0.5s-14.167 -0.5 -21.5 -0.5c-4.66699 0 -8.66699 4 -12 12c-2.66699 16 -4.5 31.833 -5.5 47.5s-1.5 31.167 -1.5 46.5v18c0 10.667 0.833008 20.5 2.5 29.5
s6.16699 13.5 13.5 13.5h3c13.333 1.33301 25.666 2.16602 36.999 2.49902s24 1.16602 38 2.49902zM219.005 645.006c12 -3.33301 18.999 -8.66602 20.999 -15.999c-2 -78.667 -4.83301 -152.667 -8.5 -222s-5.5 -139 -5.5 -209c0 -33.333 0.333008 -66 1 -98
s2.66699 -65 6 -99c-2 -10.667 -5.66699 -17 -11 -19c-26.667 3.33301 -53.667 5.16602 -81 5.49902s-53.666 0.5 -78.999 0.5c-3.33301 0 -6.16602 -0.666992 -8.49902 -2s-5.5 -2 -9.5 -2c-2.66699 0 -4.33398 1.5 -5.00098 4.5s-1 6.16699 -1 9.5v9.5
c0 3 0.333008 5.16699 1 6.5l20.5 234c6.33301 72 9.5 143.333 9.5 214c0 27.333 -0.666992 54.666 -2 81.999s-3 55.333 -5 84c2 9.33301 7.83301 15 17.5 17s20.167 3 31.5 3c19.333 0 37.5 -0.166992 54.5 -0.5s34.833 -1.16602 53.5 -2.49902z" />
    <glyph glyph-name="I" unicode="I" horiz-adv-x="295" 
d="M55 605c2.66699 17.333 5.83398 27.999 9.50098 31.999s7.83398 6.66699 12.501 8c3.33301 0 6.83301 -0.166992 10.5 -0.5s7.16699 -0.5 10.5 -0.5c15.333 0 29.666 0.5 42.999 1.5s26.666 1.5 39.999 1.5c6 0 12 -0.166992 18 -0.5s11.667 -0.833008 17 -1.5h2
c5.33301 0 9 -1.5 11 -4.5s3.66699 -6.83301 5 -11.5l21 -616c-10.667 -10.667 -18.334 -17.5 -23.001 -20.5s-9 -5.16699 -13 -6.5c-21.333 -0.666992 -44.666 -1 -69.999 -1h-72c-10 0.666992 -15.333 6.33398 -16 17.001z" />
    <glyph glyph-name="J" unicode="J" horiz-adv-x="556" 
d="M31 262c0 7.33301 1.00195 13.334 3.00195 18.001s5.66699 7 11 7l145 1c10 -2 16 -7.33301 18 -16v-10c0 -3.33301 -0.166992 -8 -0.5 -14s-0.5 -12.667 -0.5 -20c0 -14 1.66699 -28.333 5 -43s11.666 -24.667 24.999 -30l8 -6v-155c0 -4 -0.666992 -7.66699 -2 -11
s-3 -5 -5 -5c-36.667 4 -68.167 15.167 -94.5 33.5s-47.833 40.666 -64.5 66.999s-28.834 54.833 -36.501 85.5s-11.5 60 -11.5 88v10zM496.002 628.001c0 -4 -1.83398 -10.1641 -5.50098 -18.4971s-5.5 -14.833 -5.5 -19.5c0.666992 -40.667 2.33398 -81.667 5.00098 -123
s4 -83.666 4 -126.999c0 -21.333 -0.333008 -42.166 -1 -62.499s-2.66699 -40.833 -6 -61.5l4 -20c1.33301 -6.66699 2 -13.334 2 -20.001c0 -24 -5 -47.833 -15 -71.5s-23.333 -44.834 -40 -63.501s-36.334 -33.834 -59.001 -45.501s-46.334 -17.5 -71.001 -17.5h-7
c-3.33301 0 -6.5 0.5 -9.5 1.5s-4.5 3.16699 -4.5 6.5c0 1.33301 0.166992 2.33301 0.5 3s0.5 1.66699 0.5 3c0 20.667 -0.5 41.5 -1.5 62.5s-1.5 47.5 -1.5 79.5c0 8.66699 4 15.667 12 21c14 7.33301 23.667 22.666 29 45.999s8 47.666 8 72.999
c0 27.333 -0.5 56.166 -1.5 86.499s-2.33301 61 -4 92s-3 61.667 -4 92s-1.5 58.833 -1.5 85.5c0 3.33301 1 6.33301 3 9s4.33301 4 7 4s4.83398 -0.166992 6.50098 -0.5s3.83398 -0.5 6.50098 -0.5c16.667 0 32 0.666992 46 2s30 2 48 2c13.333 0 26 -1.16699 38 -3.5
s18 -7.16602 18 -14.499z" />
    <glyph glyph-name="K" unicode="K" horiz-adv-x="581" 
d="M218 646c6.66699 -2 10.002 -6.66504 10.002 -13.998c0 -6 -0.5 -14.333 -1.5 -25s-1.5 -19.334 -1.5 -26.001c10 -110 15 -227 15 -351c0 -40 -0.666992 -78.667 -2 -116s-3 -75 -5 -113c0 -8 -3.66699 -12.333 -11 -13c-23.333 -0.666992 -45.833 -1.5 -67.5 -2.5
s-42.834 -1.5 -63.501 -1.5c-6 0 -12.167 1.16699 -18.5 3.5s-14.166 7.5 -23.499 15.5c7.33301 70.667 13.166 136.334 17.499 197.001s6.5 122.334 6.5 185.001c0 39.333 -1 79.166 -3 119.499s-5.33301 82.5 -10 126.5c1.33301 3.33301 2.66602 6.16602 3.99902 8.49902
s3.33301 3.5 6 3.5h4c2 0 7.66699 0.166992 17 0.5s23.833 0.666016 43.5 0.999023s47.5 0.833008 83.5 1.5zM269.002 533.002c0 3.33301 0.996094 6.99707 2.99609 10.9971s4.66699 7.66699 8 11c17.333 14 32.833 27.5 46.5 40.5s28.167 28.167 43.5 45.5
c4 4.66699 9.5 7.5 16.5 8.5s17.167 1.5 30.5 1.5c30 0 58.667 -0.666992 86 -2l81 -4c10.667 0 16 -6.66699 16 -20c0 -4.66699 -1.66699 -11 -5 -19l-148.5 -139.5l-151.5 -144.5c-1.33301 -1.33301 -2.66602 -2 -3.99902 -2s-2.66602 -0.666992 -3.99902 -2
c1.33301 -1.33301 2.5 -2.66602 3.5 -3.99902s1.5 -5.66602 1.5 -12.999l79 -69.5l81.5 -74l78.5 -74.5l70 -71c3.33301 -3.33301 5 -6.66602 5 -9.99902c0 -8 -3.33301 -12 -10 -12c-2 0 -3.33301 0.333008 -4 1c-22 -3.33301 -45.333 -5.66602 -70 -6.99902
s-49.667 -2 -75 -2c-22.667 0 -43 1 -61 3c-4 0 -10.667 4.33301 -20 13s-19.333 18.834 -30 30.501l-32 35.5c-10.667 12 -19.667 21 -27 27c-3.33301 3.33301 -6 6.5 -8 9.5s-3 7.16699 -3 12.5c1.33301 23.333 2.33301 45 3 65s1 40.667 1 62
c0 10.667 -0.166992 20.834 -0.5 30.501s-0.5 20.167 -0.5 31.5c0 7.33301 3.66699 12.666 11 15.999c-3.33301 1.33301 -6.16602 3.16602 -8.49902 5.49902s-5.16602 4.83301 -8.49902 7.5c1.33301 28 2.83301 55.167 4.5 81.5s2.5 52.166 2.5 77.499v21
c0 3.33301 -0.166992 7 -0.5 11s-0.5 7.66699 -0.5 11z" />
    <glyph glyph-name="L" unicode="L" horiz-adv-x="552" 
d="M286 137c0.666992 4 2.33398 7.66797 5.00098 11.001s6 5 10 5l3 -2c29.333 0.666992 57.166 1.5 83.499 2.5s53.5 1.5 81.5 1.5c10 0 19.333 -1.33301 28 -4s13 -8.66699 13 -18v-131c-1.33301 -4.66699 -3.33301 -8.5 -6 -11.5s-7.66699 -5.16699 -15 -6.5
c-20 1.33301 -38.833 2.16602 -56.5 2.49902s-36.167 0.5 -55.5 0.5c-24 0 -49.333 -1 -76 -3l-14 8zM78 645.001c13.333 0 27.168 -0.333008 41.501 -1s28.833 -1 43.5 -1c20.667 0 40 1 58 3c4.66699 -1.33301 9.16699 -3.83301 13.5 -7.5s11.166 -12.167 20.499 -25.5
l-18 -613l-8 -14l-150 -2c-6 1.33301 -10.5 2.83301 -13.5 4.5s-5.83301 6.16699 -8.5 13.5l6 627c1.33301 4.66699 3 8.5 5 11.5s5.33301 4.5 10 4.5z" />
    <glyph glyph-name="M" unicode="M" horiz-adv-x="662" 
d="M60 631c1.33301 3.33301 2.83496 6.5 4.50195 9.5s4.16699 4.5 7.5 4.5h4c2 0 6 0.166992 12 0.5s14.5 0.5 25.5 0.5h44.5c6.66699 0 11.167 -2 13.5 -6s5.16602 -8 8.49902 -12l75.5 -97.5c26.333 -33.667 48.5 -67.5 66.5 -101.5c16.667 18.667 32 36.667 46 54
l40 51.5l38 51.5l40 54c3.33301 4.66699 7.66602 7 12.999 7l87 -1c3.33301 -1.33301 6.5 -2.83301 9.5 -4.5s4.5 -4.16699 4.5 -7.5c0 -2.66699 -0.333008 -4.33398 -1 -5.00098l-10 -96c-16.667 -34 -35.167 -66.5 -55.5 -97.5s-41.666 -61.167 -63.999 -90.5l-68 -89
c-23 -30 -45.5 -61 -67.5 -93c-2 -2 -4 -3 -6 -3c-2.66699 0 -4.33398 1 -5.00098 3l-69.5 98l-65.5 87.5l-64 80c-21.333 25.667 -43.333 50.834 -66 75.501zM600.002 9c-2 -9.33301 -5.33398 -15.1699 -10.001 -17.5029s-12.334 -3.5 -23.001 -3.5
c-21.333 -1.33301 -42.166 -1.83301 -62.499 -1.5s-40.833 -0.166992 -61.5 -1.5c-4 1.33301 -7.66699 3.5 -11 6.5s-5.66602 8.5 -6.99902 16.5c2.66699 11.333 4.16699 22.833 4.5 34.5s0.5 23.834 0.5 36.501c0 10.667 -0.166992 21 -0.5 31s-0.5 20.667 -0.5 32
c0 10.667 0.333008 20.834 1 30.501s1.66699 19.834 3 30.501c21.333 40.667 44.833 78.167 70.5 112.5l71.5 99.5c2 4.66699 5.33301 7 10 7c2.66699 0 5.16699 -1.16699 7.5 -3.5s3.5 -5.83301 3.5 -10.5c0 -2.66699 -1 -6.33398 -3 -11.001
c4 -46.667 6.83301 -97.167 8.5 -151.5s2.5 -111.833 2.5 -172.5c0 -11.333 -0.333008 -22.666 -1 -33.999s-1.66699 -21.333 -3 -30zM59.001 379.996c0 4.66699 1.33398 8 4.00098 10s5.66699 3 9 3c4 0 9.66699 -3.83301 17 -11.5s15.666 -17.667 24.999 -30l30 -40.5
l32 -44l30.5 -41c9.66699 -12.667 18.5 -22.667 26.5 -30v-194c-5.33301 -8.66699 -11.333 -13 -18 -13c-5.33301 0 -10.333 0.166992 -15 0.5s-10 0.5 -16 0.5c-16.667 0 -34 -0.333008 -52 -1s-36.333 -1 -55 -1l-8.5 3.5c-2.33301 1 -3.5 2.16699 -3.5 3.5v6
c0 2 0.333008 3.66699 1 5z" />
    <glyph glyph-name="N" unicode="N" horiz-adv-x="617" 
d="M159 646l95.0029 -139.001l98 -130.5l102 -126l107 -125.5l-4 -125c-2.66699 -10.667 -7.33398 -16 -14.001 -16h-65c-4 0 -6.83301 1 -8.5 3s-2.83398 4.66699 -3.50098 8s-1.66699 7 -3 11s-3.66602 7.66699 -6.99902 11c-39.333 38.667 -75 78.834 -107 120.501
l-93.5 126l-92 127c-31 42.333 -64.833 83.5 -101.5 123.5c0 17.333 -0.166992 36.5 -0.5 57.5s-0.5 40.167 -0.5 57.5c1.33301 7.33301 7.16602 12 17.499 14s21.166 3 32.499 3h48zM55.0029 321.999c0 8.66699 0.170898 17.8311 0.503906 27.498
s1.16602 18.334 2.49902 26.001s3.33301 14 6 19s6 7.5 10 7.5c3.33301 0 11.666 -7.83301 24.999 -23.5s28 -34.167 44 -55.5l47.5 -64c15.667 -21.333 27.5 -38 35.5 -50c1.33301 -17.333 2.66602 -33.333 3.99902 -48s2.33301 -29 3 -43s1.16699 -28 1.5 -42
s0.5 -29 0.5 -45c0 -11.333 -0.833008 -21.833 -2.5 -31.5s-6.16699 -14.5 -13.5 -14.5l-4 -1c-2.66699 0 -5.33398 0.166992 -8.00098 0.5s-5.66699 0.5 -9 0.5h-19c-10 0 -20 -0.166992 -30 -0.5s-20.333 -0.5 -31 -0.5h-15c-9.33301 0 -17.833 0.333008 -25.5 1
s-11.5 3.33398 -11.5 8.00098c0 1.33301 1 3 3 5c-1.33301 48.667 -4 97.167 -8 145.5s-6 97.833 -6 148.5v30zM384.007 629.996c0.666992 1.33301 1.33398 2.83203 2.00098 4.49902s2.66699 4.83398 6 9.50098l9 1c6.66699 -0.666992 12.834 -1.16699 18.501 -1.5
s11.5 -0.5 17.5 -0.5h68c6 0 12 0.166992 18 0.5s11.667 0.833008 17 1.5c3.33301 -0.666992 6.5 -1.83398 9.5 -3.50098s4.5 -3.5 4.5 -5.5c0 -2.66699 -1.33301 -6 -4 -10s-4 -10.667 -4 -20c1.33301 -59.333 1.66602 -118.166 0.999023 -176.499
s2.66602 -117.166 9.99902 -176.499v-1c0 -4.66699 -1.5 -8.33398 -4.5 -11.001s-6.5 -4 -10.5 -4c-5.33301 0 -9 2.33301 -11 7l-78 94l-75 91z" />
    <glyph glyph-name="O" unicode="O" horiz-adv-x="767" 
d="M411 643c0 10.667 5.66895 16.0039 17.002 16.0039c48.667 -6 91.5 -20 128.5 -42s68.5 -49 94.5 -81s46.333 -67 61 -105s24 -75.667 28 -113c-2 -31.333 -8.83301 -62.5 -20.5 -93.5s-27.167 -60.333 -46.5 -88s-41.833 -53.334 -67.5 -77.001
s-53.834 -43.5 -84.501 -59.5c-17.333 -6 -33 -10.333 -47 -13l-45 -9c-3.33301 0 -6.66602 1 -9.99902 3s-5 5.33301 -5 10c0 3.33301 0.333008 5.33301 1 6l-4 140c2 7.33301 6.33301 12 13 14c16 4.66699 31.667 12.667 47 24s29 24.666 41 39.999
s21.5 32.166 28.5 50.499s10.5 37.166 10.5 56.499v1c0.666992 1.33301 1 4 1 8v9c0 16 -3.33301 32.333 -10 49s-15.834 31.834 -27.501 45.501s-25.334 25.167 -41.001 34.5s-32.5 14.666 -50.5 15.999c-10 2 -15.333 7 -16 15zM340.002 660.004
c12 0 18.002 -5.99805 18.002 -17.998v-142c-5.33301 -8 -10.833 -12.833 -16.5 -14.5s-11.834 -3.83398 -18.501 -6.50098c-15.333 -8.66699 -29.833 -19.167 -43.5 -31.5s-25.667 -25.5 -36 -39.5s-18.666 -28.5 -24.999 -43.5s-9.83301 -29.833 -10.5 -44.5
c0 -20.667 4.16699 -40.334 12.5 -59.001s19.166 -35.334 32.499 -50.001s28.333 -27.167 45 -37.5s33 -17.833 49 -22.5c2 -1.33301 4.33301 -3 7 -5s4 -4.66699 4 -8c0 -2 -0.333008 -3.66699 -1 -5l2 -140c0 -4.66699 -1.33301 -8.33398 -4 -11.001
s-5.33398 -4 -8.00098 -4c-17.333 0 -34.666 3.5 -51.999 10.5s-32.333 16.5 -45 28.5c-28.667 10.667 -55.334 25.667 -80.001 45s-46.5 42 -65.5 68s-34.667 54.833 -47 86.5s-20.5 65.834 -24.5 102.501c4 42.667 15.333 83.834 34 123.501s42.167 75 70.5 106
s60 56.5 95 76.5s70.833 31.667 107.5 35z" />
    <glyph glyph-name="P" unicode="P" horiz-adv-x="479" 
d="M62 629l3.50098 9.00195c1 2.66699 3.16699 4 6.5 4c2 0 3.66699 -0.666992 5 -2c15.333 3.33301 30 5.16602 44 5.49902s27.667 0.5 41 0.5h57c7.33301 -2.66699 11 -7 11 -13c0 -5.33301 -2.33301 -10.333 -7 -15c5.33301 -62 9.5 -126.167 12.5 -192.5
s4.5 -134.833 4.5 -205.5c0 -35.333 -0.333008 -69.833 -1 -103.5s-2.33398 -67.5 -5.00098 -101.5c0 -8.66699 -1.33301 -14.834 -4 -18.501s-8.66699 -7.16699 -18 -10.5l-136 -2c-6.66699 1.33301 -10 5.33301 -10 12c0 3.33301 1.16699 8.33301 3.5 15
s3.5 14.667 3.5 24v50c0 40 -0.5 82 -1.5 126s-2.33301 88.5 -4 133.5s-3 89.5 -4 133.5s-1.5 86 -1.5 126v25zM292.001 456.002c-4.66699 3.33301 -10.8311 5.49902 -18.498 6.49902s-12.834 4.16699 -15.501 9.5c2 22 3.66699 41.833 5 59.5s2 35.167 2 52.5
c0 6.66699 -0.166992 13.334 -0.5 20.001s-0.833008 13.667 -1.5 21c0 5.33301 1.83301 9.66602 5.5 12.999s8.16699 5 13.5 5c24 -2 46.333 -8.33301 67 -19s38.667 -24.667 54 -42s27.666 -37.5 36.999 -60.5s15 -47.833 17 -74.5c-6.66699 -60 -24 -107.167 -52 -141.5
s-69.667 -54.166 -125 -59.499c-4 0.666992 -8.16699 2.33398 -12.5 5.00098s-7.5 7.66699 -9.5 15l5 148c0 4.66699 1.66699 8 5 10s7 3.66699 11 5s7.83301 3 11.5 5s6.16699 5 7.5 9c0 5.33301 -2 9.66602 -6 12.999z" />
    <glyph glyph-name="Q" unicode="Q" horiz-adv-x="788" 
d="M428 642c0 10.667 8.33496 16.0049 25.002 16.0049c14 0 28.833 -1.83301 44.5 -5.5s28.5 -8.16699 38.5 -13.5c30 -15.333 57 -34.333 81 -57s44.5 -47.667 61.5 -75s30 -56 39 -86s13.5 -59.667 13.5 -89v-13c-2 -30.667 -5.5 -60.834 -10.5 -90.501
s-17.5 -58.834 -37.5 -87.501c6.66699 -4.66699 15.5 -11.5 26.5 -20.5s21.667 -18.333 32 -28s19.166 -18.667 26.499 -27s11 -14.166 11 -17.499c0 -4 -3.83301 -10.667 -11.5 -20s-16.834 -19.666 -27.501 -30.999s-22 -22.5 -34 -33.5l-31 -28.5
c-2.66699 -1.33301 -5.66699 -2 -9 -2c-7.33301 0 -12 2.66699 -14 8l-46 39.5c-14 12.333 -28 26.5 -42 42.5c-17.333 -11.333 -34.833 -20.333 -52.5 -27s-39.167 -12 -64.5 -16c-13.333 0 -20 6.66699 -20 20v20c0 15.333 0.333008 30.5 1 45.5s1 30.5 1 46.5v21
c0 11.333 3.66699 18.666 11 21.999c18 4.66699 34.5 13 49.5 25s28 26.167 39 42.5s19.5 33.833 25.5 52.5s9 36.667 9 54c0 28.667 -7.83301 54.667 -23.5 78s-35.834 42.666 -60.501 57.999c-5.33301 2.66699 -10.833 4.66699 -16.5 6s-11.167 3.5 -16.5 6.5
s-9.66602 7.5 -12.999 13.5s-5 15.333 -5 28c0 5.33301 0.166992 10.666 0.5 15.999s0.5 10.666 0.5 15.999v63v13.5c0 4.33301 -0.333008 9.16602 -1 14.499zM59.002 329.005c0 32 4.33105 64.1709 12.998 96.5039s21.5 62.333 38.5 90s37.833 52 62.5 73s53 36.5 85 46.5
l42.5 13c13.667 4 26.834 7.33301 39.501 10c9.33301 0 15.166 -5.33301 17.499 -16s3.5 -23 3.5 -37c0 -20 -0.166992 -36.833 -0.5 -50.5s-1 -25 -2 -34s-2.5 -16.5 -4.5 -22.5s-4.33301 -11 -7 -15c-17.333 -4.66699 -33.5 -11.834 -48.5 -21.501s-28.167 -21 -39.5 -34
s-20.166 -27.667 -26.499 -44s-9.5 -33.5 -9.5 -51.5v-17c0 -15.333 2.83301 -31.666 8.5 -48.999s14 -33.5 25 -48.5s24 -28.333 39 -40s32.167 -19.5 51.5 -23.5c7.33301 -2 11 -7 11 -15c1.33301 -19.333 2.16602 -37.666 2.49902 -54.999s0.5 -36 0.5 -56
c0 -4.66699 -0.166992 -9.83398 -0.5 -15.501s-1.16602 -10.834 -2.49902 -15.501s-3.5 -8.66699 -6.5 -12s-7.16699 -5 -12.5 -5c-48.667 9.33301 -90.5 24.666 -125.5 45.999s-63.667 47.166 -86 77.499s-39.166 64.166 -50.499 101.499s-17.333 76.333 -18 117v7z" />
    <glyph glyph-name="R" unicode="R" horiz-adv-x="491" 
d="M216 646c2 0 4.83008 -0.830078 8.49707 -2.49707s5.5 -5.16699 5.5 -10.5c0 -9.33301 -1.33301 -18 -4 -26c2.66699 -14.667 4.83398 -31.834 6.50098 -51.501s3 -41 4 -64s1.66699 -46.833 2 -71.5s0.5 -49 0.5 -73c0 -56.667 -0.666992 -114 -2 -172
s-3.66602 -116.333 -6.99902 -175c0 -9.33301 -6 -15 -18 -17c-12.667 1.33301 -24.5 2.16602 -35.5 2.49902s-23.167 0.5 -36.5 0.5h-64l-6 2c-2 0.666992 -3 2.33398 -3 5.00098c0 5.33301 1 14.166 3 26.499s3 28.833 3 49.5v10.5c0 3.66699 -0.333008 7.16699 -1 10.5
c-7.33301 66 -12.666 130.667 -15.999 194s-5 129.333 -5 198c0 16.667 0.166992 34.5 0.5 53.5s1.5 36.667 3.5 53s4.83301 30.166 8.5 41.499s8.5 18 14.5 20zM260.997 628.003c0 2.66699 3.33301 7.66699 10 15h9c32 -6 62.5 -17.667 91.5 -35s49.833 -41 62.5 -71
c4.66699 -11.333 7.5 -23.333 8.5 -36s1.5 -25.334 1.5 -38.001c0 -38 -6 -72.167 -18 -102.5s-31.667 -59.833 -59 -88.5c6.66699 -23.333 14.834 -46.333 24.501 -69s20 -45.167 31 -67.5l32.5 -67c10.667 -22.333 20 -44.833 28 -67.5c0 -10 -5 -17 -15 -21
c-5.33301 0.666992 -10.333 1.16699 -15 1.5s-9.66699 0.5 -15 0.5h-76c-2 0 -4.16699 -0.166992 -6.5 -0.5s-4.5 -0.5 -6.5 -0.5c-17.333 0 -30 2.33301 -38 7s-14.5 11.334 -19.5 20.001s-10.167 19.5 -15.5 32.5s-13.333 27.833 -24 44.5v44c0 44 0.666992 89.5 2 136.5
s3.66602 94.833 6.99902 143.5c0 3.33301 1.5 6 4.5 8l10 6.5c3.66699 2.33301 7 5 10 8s4.5 6.83301 4.5 11.5c0 5.33301 -0.666992 9.66602 -2 12.999s-5 7 -11 11c-5.33301 3.33301 -10 5.33301 -14 6s-6 2.33398 -6 5.00098z" />
    <glyph glyph-name="S" unicode="S" horiz-adv-x="584" 
d="M238 649c5.33301 -0.666992 9.83789 -1.83398 13.5049 -3.50098s6.16699 -6.16699 7.5 -13.5c-0.666992 -19.333 -1.5 -39.166 -2.5 -59.499s-1.5 -40.5 -1.5 -60.5v-19c0 -6.66699 -2 -11.334 -6 -14.001s-6 -7.66699 -6 -15c0 -8.66699 1.83301 -15.334 5.5 -20.001
s9.16699 -9.33398 16.5 -14.001c11.333 -7.33301 26.166 -14 44.499 -20s37.666 -12.833 57.999 -20.5s41 -17 62 -28s39.5 -24.833 55.5 -41.5c15.333 -15.333 27.666 -34.166 36.999 -56.499s14 -49.5 14 -81.5c0 -4.66699 -0.666992 -10.167 -2 -16.5
s-2.83301 -12.666 -4.5 -18.999s-3.33398 -12.333 -5.00098 -18s-3.16699 -10.167 -4.5 -13.5c-11.333 -29.333 -29.833 -55.833 -55.5 -79.5s-52.834 -39.5 -81.501 -47.5c-7.33301 -2 -15 -3.5 -23 -4.5s-16 -2.16699 -24 -3.5c-4 0 -7.83301 1 -11.5 3
s-5.5 4.66699 -5.5 8v143c0 4.66699 1.66699 8.33398 5 11.001c5.33301 3.33301 10.166 5.83301 14.499 7.5s8.16602 3.83398 11.499 6.50098c4 3.33301 6.83301 6.33301 8.5 9s2.83398 7.66699 3.50098 15c0 5.33301 -1 9 -3 11c-8 12 -20.167 21.833 -36.5 29.5
s-34.666 15.334 -54.999 23.001l-64 24c-22.333 8.33301 -42.833 19.166 -61.5 32.499c-20 14 -37 31.5 -51 52.5s-22.333 49.167 -25 84.5c0.666992 20.667 3.66699 41.167 9 61.5s13 39.166 23 56.499s22.333 32.5 37 45.5s31.667 22.5 51 28.5c9.33301 4 18 7 26 9
s16.667 4.66699 26 8zM242.005 167c8 -4.66699 13 -7.83301 15 -9.5s3 -3.5 3 -5.5c0 -1.33301 -0.666992 -4 -2 -8l5 -144c0 -4.66699 -1.66699 -8.5 -5 -11.5s-7 -4.5 -11 -4.5h-2c-6.66699 1.33301 -13 3.33301 -19 6s-11.667 6.66699 -17 12
c-31.333 11.333 -61.833 26.833 -91.5 46.5s-58.167 43.834 -85.5 72.501c-2.66699 3.33301 -4 6.66602 -4 9.99902s2.83301 8.5 8.5 15.5s12.667 15 21 24s17.5 18 27.5 27l28.5 25l23 19c6.33301 5 10.166 7.5 11.499 7.5c2.66699 0 7.83398 -3.33301 15.501 -10
s16 -14.5 25 -23.5l28 -27c9.66699 -9 18.167 -16.167 25.5 -21.5zM308.005 634.001c1.33301 10.667 7.33496 15.998 18.002 15.998c3.33301 -1.33301 9.66602 -3.16602 18.999 -5.49902s19.666 -6.16602 30.999 -11.499c23.333 -9.33301 48.166 -21.666 74.499 -36.999
s46.833 -32.333 61.5 -51c8.66699 -10.667 13.334 -21.334 14.001 -32.001v-6c0 -2 -0.333008 -3.66699 -1 -5c-8.66699 -5.33301 -18.667 -12.666 -30 -21.999l-33.5 -28c-11 -9.33301 -21.167 -17.333 -30.5 -24s-16 -10 -20 -10c-5.33301 0 -10 1.83301 -14 5.5
s-8.33301 7.16699 -13 10.5s-11 7.16602 -19 11.499s-16 9.33301 -24 15s-15.5 11.5 -22.5 17.5s-11.833 12.667 -14.5 20z" />
    <glyph glyph-name="T" unicode="T" horiz-adv-x="518" 
d="M173 9c-2 20 -3.16699 39.834 -3.5 59.501s-0.5 39.5 -0.5 59.5c0 61.333 1.83301 123.333 5.5 186s5.5 128.667 5.5 198v52c0 17.333 -0.666992 35.333 -2 54c0 7.33301 0.666992 13.666 2 18.999s6.33301 9.66602 15 12.999c8 -1.33301 15.833 -2.16602 23.5 -2.49902
s15.167 -0.5 22.5 -0.5c12.667 0 24.5 0.333008 35.5 1s23.833 1 38.5 1c7.33301 0 14.5 -1.33301 21.5 -4s10.5 -9 10.5 -19c0 -5.33301 -1 -12 -3 -20c7.33301 -40 12.166 -81.333 14.499 -124s3.5 -87.667 3.5 -135c0 -56.667 -1.16699 -114 -3.5 -172
s-4.83301 -116.333 -7.5 -175c-1.33301 -4.66699 -6.83301 -8.16699 -16.5 -10.5s-21 -3.83301 -34 -4.5s-26.333 -1 -40 -1h-35.5h-16c-5.33301 0 -10.666 0.333008 -15.999 1l-14 8zM42 644.001c17.333 0 33.833 0.332031 49.5 0.999023s32.167 1 49.5 1
c4 0 7.16699 -1.33301 9.5 -4s3.5 -5.66699 3.5 -9c0 -1.33301 -0.166992 -3.66602 -0.5 -6.99902s-0.5 -6.66602 -0.5 -9.99902c0 -17.333 0.5 -35 1.5 -53s1.5 -36.333 1.5 -55v-15c0 -10.667 -5.33301 -16 -16 -16h-100c-4.66699 1.33301 -9.16699 3 -13.5 5
s-6.5 4.66699 -6.5 8c0 17.333 1.16699 33.333 3.5 48s3.5 29.667 3.5 45c0 7.33301 -0.333008 15 -1 23s-1 15.667 -1 23c0 3.33301 1.5 6.66602 4.5 9.99902s7.16699 5 12.5 5zM383 630c2 10 6.66699 15.999 14 17.999c8 -0.666992 18 -0.833984 30 -0.500977
s23.5 0 34.5 -1s20.5 -2.66699 28.5 -5s12 -6.16602 12 -11.499c0 -2 -0.166992 -5 -0.5 -9s-0.5 -7.66699 -0.5 -11c0 -8 0.333008 -17.167 1 -27.5s1 -21.166 1 -32.499v-43c0 -6.66699 -1 -13 -3 -19s-6.66699 -10.667 -14 -14c-25.333 2 -50.333 3 -75 3h-13
c-3.33301 1.33301 -6.5 2.83301 -9.5 4.5s-4.5 4.5 -4.5 8.5c0 14.667 -0.166992 29.667 -0.5 45s-0.5 31.333 -0.5 48v47z" />
    <glyph glyph-name="U" unicode="U" 
d="M65 241c0 24 -0.333984 43.3271 -1.00098 57.9941s-1.5 27.167 -2.5 37.5s-1.83301 20 -2.5 29s-1 19.5 -1 31.5c0 26.667 0.666992 53.334 2 80.001s2 53.334 2 80.001c0 24 -1 48 -3 72c2.66699 10.667 7.66699 17 15 19c11.333 -1.33301 22 -2.33301 32 -3
s20.333 -1 31 -1c12.667 0 25.334 0.333008 38.001 1s26 1 40 1c4 0 7.5 -1.5 10.5 -4.5s4.5 -7.5 4.5 -13.5c0 -12 -0.5 -23.667 -1.5 -35s-1.5 -23.333 -1.5 -36c0 -36 0.666992 -71.667 2 -107s2 -70.333 2 -105c0 -11.333 -0.166992 -22 -0.5 -32s-0.5 -20.333 -0.5 -31
c0 -20.667 1.66699 -40 5 -58s10 -32.667 20 -44c6 -6.66699 12.333 -12.334 19 -17.001s13 -8.66699 19 -12c4 -2 7 -5.83301 9 -11.5s3.5 -12.167 4.5 -19.5s1.5 -15.166 1.5 -23.499v-22.5c0 -7.33301 -0.166992 -14.666 -0.5 -21.999s-0.5 -14.666 -0.5 -21.999
c0 -6 0.166992 -12.167 0.5 -18.5s0.5 -12.166 0.5 -17.499c0 -4.66699 -1.66699 -9.16699 -5 -13.5s-8.33301 -6.5 -15 -6.5c-30 6.66699 -59.5 16.334 -88.5 29.001s-54.5 32 -76.5 58c-24.667 25.333 -40.5 52.833 -47.5 82.5s-10.5 62.167 -10.5 97.5zM422.999 629.994
c0 2.66699 0.999023 5.83301 2.99902 9.5s6.66699 5.5 14 5.5c6.66699 0 13 -0.333008 19 -1s11.667 -1 17 -1h68c6 0 11.833 0.333008 17.5 1s11.167 1 16.5 1c4 0 10.667 -3.66699 20 -11s14 -17.333 14 -30c0 -6 -1 -15 -3 -27c-8 -36.667 -13.333 -72.667 -16 -108
s-4.83398 -70.5 -6.50098 -105.5s-4.16699 -69.833 -7.5 -104.5s-9.66602 -69.334 -18.999 -104.001l-13 -47.5c-4.66699 -16.333 -11.667 -32.166 -21 -47.499c-14.667 -24 -33.667 -41 -57 -51s-47.333 -18.333 -72 -25l-16 -4c-5.33301 -1.33301 -11.666 -2 -18.999 -2
c-6 0 -10.333 2.66699 -13 8v151c2.66699 7.33301 6.66699 12.333 12 15c12 3.33301 21.833 9 29.5 17s14 17 19 27s8.5 20.333 10.5 31s3 20 3 28v31c0 14 -0.333008 28.333 -1 43c-1.33301 34 -2.33301 65.833 -3 95.5s-1 60.167 -1 91.5c0 18 0.5 36.5 1.5 55.5
s2.16699 38.5 3.5 58.5z" />
    <glyph glyph-name="V" unicode="V" horiz-adv-x="632" 
d="M3 631c0 7.33301 3.00195 11.002 9.00195 11.002c16.667 0 33.167 0.666992 49.5 2s32.166 2 47.499 2h54c16 -3.33301 27.5 -8.83301 34.5 -16.5s11.833 -15.167 14.5 -22.5c18.667 -82 44.167 -165.667 76.5 -251s70.833 -178.333 115.5 -279l-8 -24.5
c-3.33301 -10.333 -7 -20.5 -11 -30.5s-8.33301 -18.667 -13 -26s-9.33398 -11 -14.001 -11c-3.33301 0 -8.66602 -0.166992 -15.999 -0.5s-15.166 -0.5 -23.499 -0.5h-24.5h-18c-4 0 -6.33301 2.66699 -7 8c-1.33301 6 -2.5 10 -3.5 12s-2.33301 3.66699 -4 5
s-3.5 3 -5.5 5s-4.33301 6.33301 -7 13c-2.66699 5.33301 -5.33398 13.666 -8.00098 24.999s-5.33398 19.666 -8.00098 24.999c-40.667 89.333 -79 179.5 -115 270.5l-111 273.5zM620.002 622.002c-10 -42.667 -22.3379 -83.3311 -37.0049 -121.998s-30 -76.167 -46 -112.5
l-48 -105.5c-16 -34 -30 -68 -42 -102c-3.33301 -6 -8.33301 -9 -15 -9c-4 0 -8.66699 4.16699 -14 12.5s-11.166 19 -17.499 32s-12.666 27.5 -18.999 43.5l-18.5 46.5l-17 41c-5.33301 12.333 -9.66602 21.833 -12.999 28.5c18.667 49.333 36.5 94.166 53.5 134.499
s32.833 82.166 47.5 125.499l7 8l10 2c12 0.666992 23.667 1.16699 35 1.5s22.333 0.5 33 0.5h27c8 0 16.333 -0.333008 25 -1s16.834 -1.83398 24.501 -3.50098s13.834 -3.66699 18.501 -6s7 -5.16602 7 -8.49902c0 -2 -0.333008 -4 -1 -6z" />
    <glyph glyph-name="W" unicode="W" horiz-adv-x="845" 
d="M649 635c3.33301 5.33301 6.67188 8.00195 10.0049 8.00195c4 0 7.33301 -0.333008 10 -1c19.333 2 37.166 3.16699 53.499 3.5s36.166 0.5 59.499 0.5c19.333 0 33.333 -1.33301 42 -4s13 -6.33398 13 -11.001c0 -5.33301 -3.83301 -11.166 -11.5 -17.499
s-12.834 -13.5 -15.501 -21.5c-9.33301 -32.667 -20 -65.334 -32 -98.001l-38 -99.5l-40 -103c-13.333 -35 -26 -70.833 -38 -107.5c-1.33301 -3.33301 -3.33301 -5.83301 -6 -7.5s-5.66699 -2.5 -9 -2.5c-2.66699 0 -5.33398 0.666992 -8.00098 2
s-4.66699 3.66602 -6 6.99902l-37 90l-37 90c-2 4 -3 8.33301 -3 13c0 4 1 8.66699 3 14c14 38 27.667 78 41 120s29.666 83.667 48.999 125zM518.006 -15.998c-9.33301 0 -16.1699 2.16602 -20.5029 6.49902s-6.83301 7.5 -7.5 9.5c-27.333 70 -51.666 135.5 -72.999 196.5
s-45.333 119.167 -72 174.5c1.33301 10 5 24.667 11 44s12.833 38.833 20.5 58.5s15 36.667 22 51s12.167 21.5 15.5 21.5s6.83301 -2 10.5 -6s6.5 -10.667 8.5 -20c34 -67.333 66.5 -137.666 97.5 -210.999l88.5 -208c2 -5.33301 3 -10.333 3 -15s-1.33301 -11 -4 -19
s-6 -16.333 -10 -25s-8.16699 -17 -12.5 -25s-8.5 -14.667 -12.5 -20c-5.33301 -7.33301 -14.166 -11.333 -26.499 -12s-25.166 -1 -38.499 -1zM20.002 607.001c-3.33301 5.33301 -5.00195 11.333 -5.00195 18c0 9.33301 4 14 12 14c20 3.33301 39 5.33301 57 6
s35.667 1 53 1h33c12.667 0 23.334 -4.66699 32.001 -14s14.334 -18 17.001 -26c17.333 -80.667 41.333 -163.5 72 -248.5s67.667 -177.167 111 -276.5c1.33301 -5.33301 2 -9.66602 2 -12.999c0 -10 -2.5 -21.833 -7.5 -35.5s-10.5 -26.5 -16.5 -38.5l-7 -8l-69 -2
c-9.33301 0 -16.666 1 -21.999 3s-9.5 4.66699 -12.5 8s-4.83301 7.16602 -5.5 11.499s-1 8.83301 -1 13.5c-19.333 40.667 -39 85.5 -59 134.5l-60.5 151.5l-61.5 155c-20.667 51.333 -41.334 100 -62.001 146z" />
    <glyph glyph-name="X" unicode="X" horiz-adv-x="669" 
d="M48 643c13.333 0 26.333 -0.168945 39 -0.501953s25.667 -0.5 39 -0.5c9.33301 0 18.333 0.666992 27 2s17.334 2 26.001 2s14.834 -1 18.501 -3s7.16699 -6.66699 10.5 -14c7.33301 -21.333 12.666 -38.166 15.999 -50.499s10 -24.166 20 -35.499l232 -268.5
c76 -87.667 145.333 -175.5 208 -263.5c1.33301 -2 2.33301 -4 3 -6s1 -4.66699 1 -8c0 -4 -1.16699 -7.66699 -3.5 -11s-5.16602 -5 -8.49902 -5s-6.33301 0.333008 -9 1s-5.66699 1.33398 -9 2.00098c-13.333 1.33301 -26.833 2.16602 -40.5 2.49902
s-27.834 0.5 -42.501 0.5c-10.667 0 -21.334 -0.166992 -32.001 -0.5s-21.667 -0.5 -33 -0.5c-10.667 0 -17.667 1.33301 -21 4s-7 9.66699 -11 21l-108.5 136l-124.5 153.5l-127.5 161c-42.333 54.333 -81.5 107.5 -117.5 159.5c-2 2 -3 5 -3 9
c0 5.33301 2.5 8.83301 7.5 10.5s10.167 2.5 15.5 2.5h28zM-8 -14.002c-10 0 -14.998 6.00195 -14.998 18.002c0 9.33301 3.83301 17.666 11.5 24.999s14.834 14.666 21.501 21.999c31.333 34 61.166 69.333 89.499 106s55.166 75 80.499 115
c2.66699 3.33301 6.66699 5 12 5c6 0 11.333 -3.33301 16 -10l89 -115c2 -2.66699 3.16699 -5.33398 3.5 -8.00098s0.5 -5.66699 0.5 -9c-16.667 -22 -33.834 -43.333 -51.501 -64s-34.167 -41.667 -49.5 -63c-6.66699 -9.33301 -17.5 -15.166 -32.5 -17.499
s-35.167 -3.5 -60.5 -3.5c-12 0 -23.833 0.166992 -35.5 0.5s-23.167 0.5 -34.5 0.5c-7.33301 0 -14.833 -0.166992 -22.5 -0.5s-15.167 -0.833008 -22.5 -1.5zM452.002 631c2.66699 2.66699 5.00195 5.16992 7.00195 7.50293s4.66699 3.5 8 3.5
c1.33301 0 2.5 -0.166992 3.5 -0.5s3.16699 -0.5 6.5 -0.5c26 1.33301 51.5 2.33301 76.5 3s51.167 1 78.5 1c10.667 0 20.5 -1.33301 29.5 -4s13.5 -8.66699 13.5 -18v-1c-35.333 -47.333 -68.5 -89.833 -99.5 -127.5l-93.5 -115.5c-3.33301 -4 -7 -6 -11 -6
c-6.66699 0 -11.334 3.33301 -14.001 10l-24 26.5l-31.5 36c-10.333 12.333 -19.5 24.166 -27.5 35.499s-12 19.666 -12 24.999c0 3.33301 1 7.16602 3 11.499s4 7.83301 6 10.5c15.333 18 29.166 35.833 41.499 53.5s25.5 34.167 39.5 49.5z" />
    <glyph glyph-name="Y" unicode="Y" horiz-adv-x="596" 
d="M396 629c5.33301 7.33301 14.499 12 27.499 14s25.833 3 38.5 3c22 0 42.5 -0.333008 61.5 -1l55.5 -2h1c6 0 10.667 -2.16699 14 -6.5s5.33301 -7.16602 6 -8.49902c-33.333 -44 -62.833 -89.167 -88.5 -135.5l-78.5 -145.5c-4 -4.66699 -9 -7 -15 -7
c-1.33301 0 -4.33301 3.5 -9 10.5l-17.5 26.5c-7 10.667 -14.333 22.5 -22 35.5l-21.5 37.5c-6.66699 12 -12.167 22.5 -16.5 31.5s-6.5 15.167 -6.5 18.5s2 8.66602 6 15.999c10.667 20 21.834 39 33.501 57s22.167 36.667 31.5 56zM177.999 646
c4.66699 -3.33301 7.5 -7.16699 8.5 -11.5s1.5 -8.5 1.5 -12.5c20.667 -23.333 39.834 -48.5 57.501 -75.5s34.5 -55 50.5 -84s31.333 -58.667 46 -89s29.667 -59.833 45 -88.5c2 -2 3 -8.33301 3 -19c0 -38 -1.16699 -73.167 -3.5 -105.5s-3.5 -65.833 -3.5 -100.5v-29
c0 -10 0.666992 -20 2 -30c0 -2.66699 -1.16699 -5.5 -3.5 -8.5s-5.83301 -4.5 -10.5 -4.5c-2.66699 0 -4.66699 0.333008 -6 1c-17.333 -2.66699 -34.333 -4.16699 -51 -4.5s-33 -0.5 -49 -0.5c-11.333 0 -22 0.5 -32 1.5s-20 4.5 -30 10.5
c1.33301 25.333 3 50.666 5 75.999s3 51.333 3 78c0 20 -0.833008 39.333 -2.5 58s-4.16699 37.667 -7.5 57l-42.5 85.5c-15.667 30.333 -32.334 61 -50.001 92l-53.5 92.5l-53 88c-1.33301 2.66699 -2 5.33398 -2 8.00098c0 8 4 12 12 12c4 0 7 -0.333008 9 -1
c13.333 2.66699 26.833 4.66699 40.5 6s28.167 2 43.5 2c12.667 0 25 -0.333008 37 -1s24 -1.66699 36 -3z" />
    <glyph glyph-name="Z" unicode="Z" horiz-adv-x="615" 
d="M422 626c5.33301 7.33301 11.498 12.001 18.498 14.001s18.833 3 35.5 3h77c4 -1.33301 7.5 -3 10.5 -5s4.5 -4.66699 4.5 -8v-16c0 -9.33301 -0.666992 -18 -2 -26s-5 -15.667 -11 -23l-79.5 -138l-87.5 -149.5c-30.667 -50.333 -63 -100.166 -97 -149.499
s-70.333 -95 -109 -137c-1.33301 -1.33301 -2.66602 -2.33301 -3.99902 -3s-4.66602 -2.66699 -9.99902 -6l-81 2c-3.33301 1.33301 -6.16602 2.66602 -8.49902 3.99902s-3.5 4.33301 -3.5 9c0 0.666992 0.666992 3 2 7v113c0 16 1.33301 27.667 4 35
s6.66699 15.666 12 24.999c24 38.667 50.167 76 78.5 112l86.5 107.5l86.5 109.5c28.333 37.333 54.166 77.333 77.499 120zM261.998 -15.999c-7.33301 0 -12.166 2.83301 -14.499 8.5s-3.5 10.5 -3.5 14.5c8 10 17.667 23.333 29 40l33.5 48l29.5 40
c8.66699 11.333 14.667 17 18 17c28.667 0 55.5 -0.833008 80.5 -2.5s51.5 -2.5 79.5 -2.5c16.667 0 27 0.166992 31 0.5s7 0.5 9 0.5c3.33301 0 6.33301 -1.16699 9 -3.5s4 -4.83301 4 -7.5v-4c0 -1.33301 -0.333008 -4.33301 -1 -9c0 -16 0.5 -32.833 1.5 -50.5
s1.5 -38.167 1.5 -61.5c0 -5.33301 -1.83301 -12.5 -5.5 -21.5s-10.834 -13.5 -21.501 -13.5c-44 0 -83.833 1.66699 -119.5 5s-71.5 5 -107.5 5c-17.333 0 -35 -1 -53 -3zM71.998 631.001c1.33301 3.33301 2.83301 6.66602 4.5 9.99902s4.5 5 8.5 5h2
c11.333 0 22.333 0.166992 33 0.5s21.334 0.5 32.001 0.5c25.333 0 50 -0.333008 74 -1s48.667 -1 74 -1h33c1.33301 0 3 0.166992 5 0.5s4 0.5 6 0.5c10 0 15 -5.33301 15 -16c0 -4 -1 -7 -3 -9c-10.667 -14 -20.334 -27.333 -29.001 -40l-25 -36.5
c-8 -11.667 -16.167 -23 -24.5 -34s-17.5 -21.5 -27.5 -31.5l-4 -4c-1.33301 -1.33301 -5.33301 -2 -12 -2c-24.667 0 -49.167 0.5 -73.5 1.5s-48.833 1.83301 -73.5 2.5c-8 1.33301 -12 5 -12 11c0 2.66699 0.333008 4.33398 1 5.00098z" />
    <glyph glyph-name="bracketleft" unicode="[" horiz-adv-x="350" 
d="M62 737c4 20 7.8291 32.332 11.4961 36.999s7.83398 7.66699 12.501 9c4 -0.666992 8.83301 -1.16699 14.5 -1.5s16.5 -0.5 32.5 -0.5c22.667 0 44.834 0.666992 66.501 2s48.167 2 79.5 2c11.333 0 22 -1.33301 32 -4s15.667 -7.66699 17 -15l4 -139
c-3.33301 -11.333 -10 -17 -20 -17h-69l11 -614l58 2c10.667 -1.33301 16 -6.66602 16 -15.999c0 -20 -0.5 -41.333 -1.5 -64s-1.83301 -44.667 -2.5 -66c0 -1.33301 0.166992 -3.33301 0.5 -6s0.5 -6.66699 0.5 -12c0 -6 -4.33301 -9 -13 -9c-33.333 2 -63.333 3 -90 3
c-21.333 0 -42.833 -0.333008 -64.5 -1s-44.167 -1.66699 -67.5 -3c-7.33301 0.666992 -12.166 2.5 -14.499 5.5s-4.16602 6.5 -5.49902 10.5z" />
    <glyph glyph-name="backslash" unicode="\" horiz-adv-x="602" 
d="M12 673c12.667 0 24.8359 0.166992 36.5029 0.5s23.5 0.5 35.5 0.5c26 0 46.167 -0.5 60.5 -1.5s25.166 -2.66699 32.499 -5s12.833 -5.83301 16.5 -10.5s7.83398 -10.334 12.501 -17.001c34 -50 68.667 -103.833 104 -161.5l104.5 -173.5l101.5 -170
c33.333 -55.333 65.666 -106 96.999 -152c2 -4 3.66699 -7.16699 5 -9.5s2 -5.16602 2 -8.49902c0 -4 -1 -8.33301 -3 -13c-4 -12 -7.83301 -20.5 -11.5 -25.5s-7.83398 -7.5 -12.501 -7.5l-168 1c-5.33301 0 -9 2.33301 -11 7l-91.5 171.5l-98.5 172l-104.5 168
c-35.667 55 -72.167 107.833 -109.5 158.5c-4.66699 6 -7.33398 12.667 -8.00098 20l-3 33c-1.33301 2.66699 -2 5 -2 7c0 10.667 5 16 15 16z" />
    <glyph glyph-name="bracketright" unicode="]" horiz-adv-x="351" 
d="M37 739c0 6 -0.335938 11 -1.00293 15s-1 7.66699 -1 11c0 9.33301 4.33301 15 13 17c20.667 -1.33301 39.334 -2.33301 56.001 -3l48 -2c15.333 -0.666992 30.833 -1.16699 46.5 -1.5s32.5 -0.5 50.5 -0.5c5.33301 0 10.166 0.166992 14.499 0.5s7.5 0.5 9.5 0.5
c6 0 10.167 -1.33301 12.5 -4s3.5 -5.66699 3.5 -9c0 -10.667 -0.333008 -28.167 -1 -52.5s-1.66699 -53 -3 -86s-2.5 -69.167 -3.5 -108.5s-2.16699 -79.166 -3.5 -119.499s-2.33301 -80.166 -3 -119.499s-1 -75.333 -1 -108c0 -52 0.166992 -101.667 0.5 -149
s0.5 -90.333 0.5 -129c0 -11.333 1 -20.833 3 -28.5s3 -13.167 3 -16.5c0 -5.33301 -2.33301 -8 -7 -8c-12.667 0 -24.667 0.333008 -36 1s-22.666 1 -33.999 1c-25.333 0 -50.166 -0.5 -74.499 -1.5s-50.166 -2.16699 -77.499 -3.5c-6 0 -10.333 1.5 -13 4.5
s-4.66699 6.83301 -6 11.5c0 36 0.333008 67 1 93s1.33398 44.333 2.00098 55c0 1.33301 1 3 3 5s5 3 9 3h35.5c11 0 21.833 -0.666992 32.5 -2c-0.666992 13.333 -1.16699 26.666 -1.5 39.999s-0.5 26.666 -0.5 39.999c0 22 0.333008 50.667 1 86s1.5 72 2.5 110
s1.83301 75 2.5 111s1 65.667 1 89c0 22 -0.333008 44.333 -1 67s-2.33398 46.667 -5.00098 72c-23.333 -4.66699 -40.5 -7.66699 -51.5 -9s-16.833 -2 -17.5 -2c-4.66699 0 -7.66699 1.66699 -9 5l-4 10z" />
    <glyph glyph-name="asciicircum" unicode="^" horiz-adv-x="463" 
d="M450 268c1.33301 -4 1.99609 -6.33496 1.99609 -7.00195c0 -4.66699 -1.5 -8.66699 -4.5 -12s-6.83301 -5 -11.5 -5l-151 3l-14 23.5l-16 27c-5.33301 9 -10.166 17.667 -14.499 26s-7.16602 15.5 -8.49902 21.5c-3.33301 -5.33301 -7.16602 -12.333 -11.499 -21
s-9.16602 -17.667 -14.499 -27s-11.166 -18.666 -17.499 -27.999s-12.5 -17.333 -18.5 -24h-13c-10.667 0 -19 -0.166992 -25 -0.5s-14.333 -0.5 -25 -0.5c-14.667 0 -28.834 0.333008 -42.501 1s-26.834 2.33398 -39.501 5.00098l-5 -1c-2.66699 0 -5 1.16699 -7 3.5
s-3 5.16602 -3 8.49902c0 2.66699 0.666992 5.33398 2 8.00098c18.667 30 35.834 60 51.501 90l47 90l48.5 91.5c16.667 31 35 62.5 55 94.5c2 5.33301 4.66699 9.33301 8 12s6.66602 4 9.99902 4c4.66699 0 8.33398 -2.33301 11.001 -7l53 -97l51.5 -89.5l49 -87
l46.5 -89.5z" />
    <glyph glyph-name="underscore" unicode="_" horiz-adv-x="344" 
d="M0 -10h344v-85h-344v85z" />
    <glyph glyph-name="grave" unicode="`" horiz-adv-x="285" 
d="M-16 765c-4 2.66699 -7.66797 5.33203 -11.001 7.99902s-5 6.66699 -5 12c0 2.66699 0.666992 5.66699 2 9c6.66699 10 14.167 22.833 22.5 38.5l24.5 46c8 15 15.667 28 23 39s13.333 16.5 18 16.5c4 0 7.33301 -1 10 -3c12.667 -9.33301 28.5 -20 47.5 -32l56.5 -36
l52.5 -34.5c16.333 -11 28.5 -20.5 36.5 -28.5c6 -5.33301 9 -11.666 9 -18.999c0 -4 -2.83301 -12.167 -8.5 -24.5s-12.5 -25 -20.5 -38s-15.833 -24.667 -23.5 -35s-13.5 -15.5 -17.5 -15.5c0.666992 0 -1.66602 0.666992 -6.99902 2c-40.667 20 -78.167 37.333 -112.5 52
z" />
    <glyph glyph-name="a" unicode="a" horiz-adv-x="627" 
d="M361 646c3.33301 0 8.49512 -2.00098 15.4951 -6.00098s13.167 -10.667 18.5 -20c12.667 -52 28.334 -103.333 47.001 -154l58.5 -152l61 -152c20.333 -50.667 39.166 -102.334 56.499 -155.001c0 -4.66699 -1 -9.33398 -3 -14.001s-6 -7 -12 -7
c-17.333 0 -35 -0.333008 -53 -1s-36.333 -1 -55 -1c-13.333 0 -23.666 0.333008 -30.999 1s-14.666 2 -21.999 4c-3.33301 -2.66699 -6.66602 -4 -9.99902 -4c-5.33301 0 -9.16602 2.83301 -11.499 8.5s-4.16602 11.5 -5.49902 17.5l-39 141.5
c-13.333 48.333 -27.833 96.333 -43.5 144s-32.667 94.334 -51 140.001s-38.5 88.834 -60.5 129.501l8.5 24.5c3 9 6 17.5 9 25.5s6.5 14.833 10.5 20.5s8.66699 8.83398 14 9.50098h98zM213.995 472.999l36.5 -101.002l34.5 -102c0.666992 -2 1 -5 1 -9
c0 -6.66699 -2 -14.5 -6 -23.5s-7 -17.833 -9 -26.5h29c4.66699 -1.33301 9.16699 -6 13.5 -14s8.5 -17.5 12.5 -28.5s7.83301 -22.333 11.5 -34s7.16699 -21.5 10.5 -29.5c0.666992 -0.666992 1 -2.33398 1 -5.00098c0 -10.667 -5.66699 -16 -17 -16l-113 1
c-2.66699 -9.33301 -5.5 -20 -8.5 -32s-6.66699 -23.167 -11 -33.5s-9.66602 -19.166 -15.999 -26.499s-13.833 -11 -22.5 -11c-2.66699 0 -7.5 0.333008 -14.5 1s-15.333 1.33398 -25 2.00098s-20 1.33398 -31 2.00098s-21.5 1 -31.5 1h-37c-6 0 -10.5 2.33301 -13.5 7
s-6.16699 11.667 -9.5 21c18 32 34.667 65.833 50 101.5s30.166 72.667 44.499 111l43 118c14.333 40.333 29.5 80.833 45.5 121.5c1.33301 4 3.83301 6.83301 7.5 8.5s7.16699 2.5 10.5 2.5c5.33301 0 10 -2 14 -6z" />
    <glyph glyph-name="b" unicode="b" horiz-adv-x="537" 
d="M248 630c2 11.333 9.00293 17.668 21.0029 19.001c30 -4 55.833 -12 77.5 -24s39.834 -26.667 54.501 -44s25.5 -36.666 32.5 -57.999s10.5 -44 10.5 -68c0 -25.333 -1.83301 -45.5 -5.5 -60.5s-9.16699 -30.5 -16.5 -46.5c25.333 -13.333 43 -33.333 53 -60
s15 -56 15 -88c-0.666992 -31.333 -6.66699 -60.166 -18 -86.499s-27 -49 -47 -68s-43.667 -33.833 -71 -44.5s-57.333 -16.334 -90 -17.001c-3.33301 1.33301 -6.33301 2.66602 -9 3.99902s-4 3 -4 5c0 1.33301 0.333008 2.33301 1 3
c-1.33301 23.333 -2.33301 46.833 -3 70.5s-1 47.167 -1 70.5c0.666992 4.66699 2.16699 8.66699 4.5 12s5.83301 5 10.5 5c2 0 4.16699 -0.166992 6.5 -0.5s5.16602 -0.5 8.49902 -0.5c8 0 16.5 3.5 25.5 10.5s14.167 17.167 15.5 30.5
c0 13.333 -4.83301 24.666 -14.5 33.999s-20.5 14 -32.5 14c-2 0 -4 -0.166992 -6 -0.5s-3.66699 -0.5 -5 -0.5c-8.66699 0 -14.334 5 -17.001 15c0 8 0.166992 17.833 0.5 29.5s0.666016 24.167 0.999023 37.5l1 40.5c0.333008 13.667 0.833008 26.5 1.5 38.5
c0 4.66699 1.5 8.33398 4.5 11.001l9 8c3 2.66699 6 6 9 10s4.5 9.33301 4.5 16c0 7.33301 -1 12.666 -3 15.999s-4.66699 6.33301 -8 9l-10.5 8c-3.66699 2.66699 -6.83398 7 -9.50098 13zM96.0029 -14.998c-5.33301 0 -9.99707 1.5 -13.9971 4.5s-6 7.83301 -6 14.5
l-16 627c1.33301 4 3.16602 7.83301 5.49902 11.5s6.16602 5.5 11.499 5.5c15.333 0 35.666 -0.166992 60.999 -0.5s49.333 -0.833008 72 -1.5c2.66699 0 5.33398 -1 8.00098 -3s4 -6.33301 4 -13c0 -6 -1 -12.333 -3 -19c-3.33301 -38 -5.5 -76.333 -6.5 -115
s-1.5 -78.334 -1.5 -119.001c0 -65.333 1.33301 -129.333 4 -192s6.33398 -124.667 11.001 -186c-1.33301 -3.33301 -2.83301 -6.66602 -4.5 -9.99902s-4.83398 -5 -9.50098 -5h-2c-11.333 0.666992 -22.833 1.16699 -34.5 1.5s-23.834 0.5 -36.501 0.5h-21.5
c-7 0 -14.167 -0.333008 -21.5 -1z" />
    <glyph glyph-name="c" unicode="c" horiz-adv-x="566" 
d="M354 664c12 0 26.166 -0.337891 42.499 -1.00488s32 -2.16699 47 -4.5s28.167 -6.16602 39.5 -11.499s18.666 -12.666 21.999 -21.999c0 -25.333 -0.166992 -50.833 -0.5 -76.5s-0.833008 -51.167 -1.5 -76.5c0 -10 -5.33301 -15 -16 -15c-4 0 -6.66699 0.666992 -8 2
c-11.333 7.33301 -25.333 14.333 -42 21s-34.667 10 -54 10c-25.333 0 -48.166 -4.66699 -68.499 -14s-38 -21.666 -53 -36.999s-26.5 -32.666 -34.5 -51.999s-12 -39 -12 -59v-22c0 -22 4.83301 -42.667 14.5 -62s22.334 -36.166 38.001 -50.499s33.5 -25.666 53.5 -33.999
s40.667 -12.5 62 -12.5c9.33301 0 18.666 0.5 27.999 1.5s18.666 3.16699 27.999 6.5c5.33301 1.33301 10.833 3.5 16.5 6.5s13.167 8.16699 22.5 15.5c2 2 4.66699 3 8 3c8.66699 0 13 -4.66699 13 -14v-5c0 -2 -0.333008 -7.33301 -1 -16
c0 -18.667 0.5 -38.334 1.5 -59.001s1.5 -40.667 1.5 -60v-17c-1.33301 -8.66699 -8.16602 -15 -20.499 -19s-25.166 -7.66699 -38.499 -11c-9.33301 -2 -18 -4.83301 -26 -8.5s-15.667 -5.5 -23 -5.5c-48 0 -92.667 9.16699 -134 27.5s-77 42.833 -107 73.5
s-53.667 66 -71 106s-26 82 -26 126c0 14.667 -0.5 27 -1.5 37s-1.5 21 -1.5 33c0 39.333 8.16699 76.833 24.5 112.5s38.166 67.167 65.499 94.5s59.333 49 96 65s75.334 24 116.001 24z" />
    <glyph glyph-name="d" unicode="d" horiz-adv-x="623" 
d="M73 645c12.667 0.666992 24.333 1.00195 35 1.00195h33h22c4.66699 0 11.167 -0.166992 19.5 -0.5s16.333 -1 24 -2s14.334 -2.83301 20.001 -5.5s8.5 -6.33398 8.5 -11.001c-2 -53.333 -3.33301 -107.333 -4 -162s-1.16699 -108.834 -1.5 -162.501s-0.5 -106 -0.5 -157
s-0.333008 -99.5 -1 -145.5c0 -5.33301 -1 -8.83301 -3 -10.5s-4 -2.5 -6 -2.5c-1.33301 0 -2.5 0.166992 -3.5 0.5s-2.16699 0.5 -3.5 0.5c-24 -2 -47.667 -3 -71 -3h-26c-10.667 0 -20.667 0.666992 -30 2s-22 4 -38 8c-5.33301 1.33301 -8.66602 3 -9.99902 5
s-2 6.66699 -2 14v49c0 94 3 189 9 285s9.66699 189.667 11 281c1.33301 4.66699 3.16602 8.5 5.49902 11.5s6.16602 4.5 11.499 4.5h1zM265.999 621.002c0 2 1.33008 5.00098 3.99707 9.00098s8.66699 6 18 6c37.333 -8 73.166 -21 107.499 -39s64.833 -39.333 91.5 -64
s47.834 -52.167 63.501 -82.5s23.5 -62.5 23.5 -96.5c0 -15.333 -0.166992 -30.833 -0.5 -46.5s-2.16602 -32.167 -5.49902 -49.5c-8 -46.667 -24.833 -88.167 -50.5 -124.5s-55.834 -66.166 -90.501 -89.499c-20.667 -13.333 -42.667 -24.5 -66 -33.5
s-49.333 -16.5 -78 -22.5c-3.33301 0 -6.5 0.833008 -9.5 2.5s-4.5 4.16699 -4.5 7.5c0 0.666992 -0.166992 2.66699 -0.5 6s-0.666016 10 -0.999023 20s-0.666016 24.5 -0.999023 43.5s-0.5 44.5 -0.5 76.5c0 4 2.66699 7.83301 8 11.5s12 7.33398 20 11.001
s16.167 7.66699 24.5 12s15.5 9.16602 21.5 14.499c16 14.667 29.5 31.667 40.5 51s16.5 40.666 16.5 63.999v22c0 13.333 -2.66699 26.666 -8 39.999s-12.5 26 -21.5 38s-19.667 23 -32 33s-25.166 18 -38.499 24l-19 6c-7.33301 2 -11 7 -11 15z" />
    <glyph glyph-name="e" unicode="e" horiz-adv-x="550" 
d="M80 649c23.333 0 43.1689 -0.668945 59.502 -2.00195s33.166 -2 50.499 -2h21c4 0 8.16699 -1.5 12.5 -4.5s6.5 -7.5 6.5 -13.5c0 -60.667 -1.33301 -122 -4 -184s-4 -126.667 -4 -194c0 -40.667 0.833008 -81.667 2.5 -123s4.5 -83 8.5 -125
c-1.33301 -4 -2.5 -7.33301 -3.5 -10s-3.5 -5.66699 -7.5 -9h-46c-44 0 -77.333 2.83301 -100 8.5s-34 13.834 -34 24.501c7.33301 74.667 13.166 149.834 17.499 225.501s6.5 151.167 6.5 226.5c0 54.667 -2 108.667 -6 162c0 10 6.66699 16.667 20 20zM269.003 149.998
c2 3.33301 5.33203 5.5 9.99902 6.5s9.33398 1.5 14.001 1.5c15.333 0 30.666 -0.5 45.999 -1.5s31.333 -1.5 48 -1.5h114c9.33301 0 15.333 -5.33301 18 -16v-7c0 -17.333 -0.666992 -35 -2 -53s-2 -35.333 -2 -52v-12c0 -8 -1.16699 -15.333 -3.5 -22
s-6.83301 -11 -13.5 -13c-37.333 2 -73.166 3.33301 -107.499 4s-71.833 1 -112.5 1c-8 2 -13.333 8.16699 -16 18.5s-4 21.5 -4 33.5c0 6 0.166992 12 0.5 18s0.5 11.333 0.5 16v25c0 10.667 0.666992 21.167 2 31.5s4 17.833 8 22.5zM262.002 629.998
c0 3.33301 1.16504 6.66797 3.49805 10.001s6.5 5.33301 12.5 6c12 0.666992 23 1.16699 33 1.5l30 1c10 0.333008 20.667 0.5 32 0.5h39c10.667 0 21.167 -0.333008 31.5 -1s19.833 -1.66699 28.5 -3s15.667 -3.5 21 -6.5s8 -6.83301 8 -11.5v-9
c0 -15.333 -0.333008 -31.166 -1 -47.499s-1 -32.5 -1 -48.5v-22c0 -4 -0.666992 -7.33301 -2 -10s-4.16602 -4.83398 -8.49902 -6.50098s-10.666 -2.83398 -18.999 -3.50098s-19.5 -1 -33.5 -1h-52h-51.5c-17.667 0 -36.167 -0.666992 -55.5 -2
c-4 0.666992 -7.5 2.16699 -10.5 4.5s-4.5 4.5 -4.5 6.5v142zM263 344c1.33301 8 5.00098 13.1641 11.001 15.4971s13.333 3.5 22 3.5h80c18 0 36.667 -0.166992 56 -0.5s34.333 -2.16602 45 -5.49902c5.33301 -1.33301 8.5 -3.66602 9.5 -6.99902
s1.83301 -8.66602 2.5 -15.999l4 -127c0 -4 -0.833008 -7.66699 -2.5 -11s-4.83398 -5 -9.50098 -5h-211c-4.66699 0 -7 2.66699 -7 8v145z" />
    <glyph glyph-name="f" unicode="f" horiz-adv-x="529" 
d="M202 645c8 0 13.334 -1.83008 16.001 -5.49707s4 -10.5 4 -20.5c0 -16.667 -0.333008 -33.334 -1 -50.001s-1 -33.334 -1 -50.001c0 -88.667 2.5 -173.334 7.5 -254.001s7.5 -158.667 7.5 -234c0 -11.333 -0.5 -21.166 -1.5 -29.499s-3.5 -12.833 -7.5 -13.5
c-5.33301 -0.666992 -14.166 -1.33398 -26.499 -2.00098s-25.833 -1.16699 -40.5 -1.5s-29.5 -0.5 -44.5 -0.5h-38.5c-12.667 0 -19.334 4.33301 -20.001 13c0 70.667 -1 138 -3 202s-3 127.667 -3 191v39c0 19.333 0.166992 41.166 0.5 65.499s1.33301 47.333 3 69
s4.66699 39.834 9 54.501s10.5 22 18.5 22c18.667 1.33301 38.167 2.5 58.5 3.5s41.166 1.5 62.499 1.5zM265.001 629.003c0 4.66699 1.33496 8.66797 4.00195 12.001s6 5 10 5h63c6.66699 0 16 0.166992 28 0.5s24.667 0.5 38 0.5c10.667 0 21.167 -0.166992 31.5 -0.5
s19.666 -1.16602 27.999 -2.49902s15.166 -3 20.499 -5s8.33301 -4.66699 9 -8c1.33301 -8 2 -15.667 2 -23v-22c0 -11.333 -0.333008 -23.5 -1 -36.5s-1 -30.167 -1 -51.5c0 -10 -6.33301 -15.667 -19 -17c-24 -2.66699 -47.833 -4.33398 -71.5 -5.00098
s-47.167 -1 -70.5 -1c-27.333 0 -46.5 0.666992 -57.5 2s-16.5 5.66602 -16.5 12.999zM264.003 331.004c0 8.66699 1.66406 14.4971 4.99707 17.4971s11.333 5.5 24 7.5c14.667 2.66699 31.834 4.33398 51.501 5.00098s38.167 1 55.5 1c11.333 0 22.833 -0.166992 34.5 -0.5
s22 -1 31 -2s16.333 -2.66699 22 -5s8.5 -5.5 8.5 -9.5c-1.33301 -13.333 -2.16602 -25.666 -2.49902 -36.999s-0.5 -22.666 -0.5 -33.999v-67c-1.33301 -8.66699 -6 -13 -14 -13c-30.667 0 -60 -1 -88 -3s-57 -3 -87 -3c-9.33301 0 -18.166 1.16699 -26.499 3.5
s-12.5 7.83301 -12.5 16.5c0 13.333 -0.166992 27 -0.5 41s-0.5 28.333 -0.5 43v39z" />
    <glyph glyph-name="g" unicode="g" horiz-adv-x="666" 
d="M408 484c-26 0 -50.499 -3.50586 -73.499 -10.5059s-43 -17.167 -60 -30.5s-30.5 -29.666 -40.5 -48.999s-15 -41 -15 -65c0 -42.667 3.66699 -72 11 -88c13.333 -28 34.666 -51 63.999 -69s62 -27 98 -27c9.33301 0 18.666 1.33301 27.999 4s17.666 7 24.999 13
c3.33301 2.66699 6.5 4.66699 9.5 6s9.16699 2 18.5 2c20 -1.33301 39.5 -1.83301 58.5 -1.5s38.833 -0.5 59.5 -2.5c7.33301 -0.666992 12.166 -3.5 14.499 -8.5s3.5 -10.833 3.5 -17.5v-47c0 -7.33301 -0.833008 -14.5 -2.5 -21.5s-5.5 -13.5 -11.5 -19.5
c-22 -18 -43.5 -32 -64.5 -42s-42.333 -17.667 -64 -23s-44 -8.66602 -67 -9.99902s-47.167 -2 -72.5 -2c-39.333 0 -77.166 9.33301 -113.499 28s-68.5 43.834 -96.5 75.501s-50.5 68.834 -67.5 111.501s-25.833 88 -26.5 136c2.66699 38 12.834 76.667 30.501 116
s41.334 74.833 71.001 106.5s64 57.667 103 78s81.167 30.5 126.5 30.5c17.333 0 37.5 -1.16699 60.5 -3.5s44.667 -5.83301 65 -10.5s37.666 -10.834 51.999 -18.501s21.5 -16.5 21.5 -26.5c0.666992 -7.33301 1.16699 -18.166 1.5 -32.499s0.5 -30.166 0.5 -47.499v-53.5
v-49.5c0 -10 -5 -15 -15 -15c-5.33301 0 -9.66602 2.16699 -12.999 6.5s-7 8.83301 -11 13.5c-5.33301 8.66699 -12 16.834 -20 24.501s-17 14.5 -27 20.5s-20.333 10.667 -31 14s-20.667 5 -30 5zM325.001 200.994c0 5.33301 -0.168945 13.998 -0.501953 25.998
s-0.666016 25 -0.999023 39l-1 41.5c-0.333008 13.667 -0.5 25.167 -0.5 34.5s2.66699 14 8 14c2 0 5.16699 -0.333008 9.5 -1s8.5 -1 12.5 -1c9.33301 0 25.666 0.333008 48.999 1l73.5 2c25.667 0.666992 49.667 1.33398 72 2.00098s37.166 1 44.499 1
c10 0 15 -5.33301 15 -16c0 -1.33301 -0.166992 -5.16602 -0.5 -11.499s-0.5 -12.5 -0.5 -18.5c0 -14.667 0.166992 -31.834 0.5 -51.501s0.833008 -38.167 1.5 -55.5c0 -4 -1.16699 -7.33301 -3.5 -10s-5.16602 -4 -8.49902 -4c-17.333 0 -34.166 0.166992 -50.499 0.5
s-33.5 0.5 -51.5 0.5c-25.333 0 -50.666 -0.166992 -75.999 -0.5s-51.333 -1.16602 -78 -2.49902c-3.33301 0 -6.5 0.833008 -9.5 2.5s-4.5 4.16699 -4.5 7.5z" />
    <glyph glyph-name="h" unicode="h" horiz-adv-x="589" 
d="M218 646c8 -2 12.9941 -6.33301 14.9941 -13c4.66699 -44 7.83398 -88.667 9.50098 -134s2.5 -92 2.5 -140c0 -11.333 -0.166992 -28.5 -0.5 -51.5s-0.666016 -48.333 -0.999023 -76s-1 -56 -2 -85s-2.33301 -55.333 -4 -79s-3.66699 -43.167 -6 -58.5
s-5.16602 -23 -8.49902 -23s-6.66602 0.5 -9.99902 1.5s-7.33301 1.5 -12 1.5c-20.667 -1.33301 -41.167 -1.83301 -61.5 -1.5s-41.166 -0.166992 -62.499 -1.5c-6.66699 0.666992 -10 3.33398 -10 8.00098c0 3.33301 0.833008 7.16602 2.5 11.499s2.5 8.83301 2.5 13.5
c-5.33301 70.667 -10 138.5 -14 203.5s-6 131.833 -6 200.5c0 34.667 0.5 69 1.5 103s3.16699 69 6.5 105c1.33301 4 3.33301 7.83301 6 11.5s7.33398 6.16699 14.001 7.5zM369.994 646c18 1.33301 34.999 2.33789 50.999 3.00488s33.333 1 52 1
c4.66699 0 11.167 -0.666992 19.5 -2s16.333 -3.83301 24 -7.5s14.334 -8.33398 20.001 -14.001s8.5 -12.834 8.5 -21.501c0 -8 -0.666992 -16 -2 -24s-2.33301 -16.667 -3 -26c-4 -44.667 -6.66699 -88.834 -8 -132.501s-2 -87.5 -2 -131.5
c0 -14.667 0.166992 -27.667 0.5 -39s0.5 -23.333 0.5 -36s0.166992 -26.834 0.5 -42.501s0.5 -34.834 0.5 -57.501c0 -16.667 -0.333008 -33 -1 -49s-1.83398 -30.333 -3.50098 -43s-3.83398 -23 -6.50098 -31s-6 -12 -10 -12c-22 0 -44.167 0.666992 -66.5 2
s-43.5 2 -63.5 2h-10c-3.33301 0.666992 -6.16602 1.66699 -8.49902 3s-3.5 3.66602 -3.5 6.99902c0 1.33301 0.5 3.33301 1.5 6s1.5 6 1.5 10l-8 179c-24.667 0 -45.667 0.666992 -63 2s-26 7 -26 17c-0.666992 10.667 -1.16699 22.334 -1.5 35.001s-0.5 25.167 -0.5 37.5
v34.5v28c0 9.33301 5.33301 14 16 14l87 10c0 41.333 -2 81 -6 119s-6 78.667 -6 122c0 9.33301 0.833008 17.833 2.5 25.5s5.83398 11.5 12.501 11.5h1z" />
    <glyph glyph-name="i" unicode="i" horiz-adv-x="295" 
d="M61 2c0.666992 32.667 1.50098 68.0029 2.50098 106.003s1.83301 76.333 2.5 115s1.5 77 2.5 115s1.83301 73.333 2.5 106s1.16699 61.667 1.5 87s0.5 45 0.5 59c0 12 -1 21.167 -3 27.5s-3 12.166 -3 17.499c0 4.66699 2 7.66699 6 9s8.66699 2 14 2h29
c17.333 0 35.833 0.666992 55.5 2s35.167 2 46.5 2c4.66699 0 8.33398 -2.33301 11.001 -7s4.33398 -9.33398 5.00098 -14.001c0 -5.33301 0.166992 -22 0.5 -50s0.666016 -62.167 0.999023 -102.5s0.833008 -84.333 1.5 -132s1.16699 -94 1.5 -139
s0.666016 -85.833 0.999023 -122.5s0.5 -64.334 0.5 -83.001c0 -8 -2.66699 -12 -8 -12c-6.66699 0 -14.5 -0.833008 -23.5 -2.5s-17.5 -2.5 -25.5 -2.5c-15.333 0 -30.333 0.833008 -45 2.5s-29 2.5 -43 2.5c-2.66699 0 -5.33398 -0.333008 -8.00098 -1s-6 -1 -10 -1
c-8 0 -13.333 5.33301 -16 16z" />
    <glyph glyph-name="j" unicode="j" horiz-adv-x="556" 
d="M317 531c0 12.667 0.333984 25.499 1.00098 38.499s1.66699 25 3 36s3.33301 20 6 27s6 10.5 10 10.5c18.667 0 39.5 0.333008 62.5 1s49.833 1 80.5 1c5.33301 0 9.5 -2.66699 12.5 -8s5.16699 -12 6.5 -20s2.16602 -17.167 2.49902 -27.5s0.5 -20.5 0.5 -30.5
c0 -42 -0.5 -81.167 -1.5 -117.5s-1.5 -72.5 -1.5 -108.5c0 -18.667 0.833008 -38.334 2.5 -59.001s2.5 -40.667 2.5 -60c0 -28.667 -4.33301 -57.167 -13 -85.5s-21.5 -53.666 -38.5 -75.999s-38 -40.333 -63 -54s-53.833 -20.5 -86.5 -20.5
c-10.667 1.33301 -16 4.66602 -16 9.99902c0 4.66699 -0.166992 12.834 -0.5 24.501s-0.5 24.834 -0.5 39.501v45.5v42.5c0 5.33301 2.66699 9.33301 8 12c10.667 6.66699 18 15.167 22 25.5s6 21.166 6 32.499c0 50 -0.833008 97.833 -2.5 143.5s-2.5 90.834 -2.5 135.501
v42zM34.001 275.999c2 6 5.5 9.66699 10.5 11s10.5 2 16.5 2c16.667 0 32.834 -0.333008 48.501 -1s32.5 -1 50.5 -1c5.33301 0 10.333 0.166992 15 0.5s9.66699 0.5 15 0.5c9.33301 0 14.5 -5.83301 15.5 -17.5s1.5 -25.167 1.5 -40.5s1.66699 -30.166 5 -44.499
s11.666 -24.5 24.999 -30.5c2 -1.33301 3.83301 -3 5.5 -5s2.5 -6 2.5 -12v-133c0 -4 -1 -7.83301 -3 -11.5s-5.66699 -5.5 -11 -5.5c-36 0 -66.5 8.16699 -91.5 24.5s-45.5 37.166 -61.5 62.499s-27.667 53.5 -35 84.5s-11 61.167 -11 90.5v17.5
c0 3 0.666992 5.83301 2 8.5z" />
    <glyph glyph-name="k" unicode="k" horiz-adv-x="581" 
d="M218 645c10 0 15.002 -5.33398 15.002 -16.001c-1.33301 -19.333 -4.16602 -36.333 -8.49902 -51s-6.5 -28.667 -6.5 -42c0 -1.33301 0.166992 -2.66602 0.5 -3.99902s0.5 -2.66602 0.5 -3.99902c5.33301 -62 10.166 -122.333 14.499 -181s6.5 -119.334 6.5 -182.001v-27
c0 -10 -0.166992 -21.333 -0.5 -34l-1 -37.5c-0.333008 -12.333 -1 -24 -2 -35s-2.16699 -20.167 -3.5 -27.5c-1.33301 -4.66699 -6 -8.33398 -14 -11.001s-18.333 -4.66699 -31 -6s-26.334 -2.16602 -41.001 -2.49902s-29 -0.5 -43 -0.5c-9.33301 0 -18.333 0.666992 -27 2
s-15 5.33301 -19 12c-1.33301 70.667 -3.16602 138 -5.49902 202s-3.5 127.333 -3.5 190v39c0 19.333 0.166992 41 0.5 65s1.5 46.5 3.5 67.5s5.16699 39 9.5 54s10.5 23.167 18.5 24.5c21.333 1.33301 43.666 2.5 66.999 3.5s46.666 1.5 69.999 1.5zM273.002 543.999
l46.999 44.502c16 15 30.667 29.833 44 44.5c3.33301 5.33301 13.833 8.66602 31.5 9.99902s36.5 2 56.5 2h20.5c6.33301 0 13.333 -0.166992 21 -0.5s16.667 -0.5 27 -0.5h38.5c2 0 6.16699 0.166992 12.5 0.5s10.5 0.5 12.5 0.5c5.33301 0 9.5 -1.5 12.5 -4.5
s4.5 -6.16699 4.5 -9.5s-0.833008 -6.5 -2.5 -9.5s-3.16699 -5.16699 -4.5 -6.5l-145 -142l-149 -145c-5.33301 -5.33301 -8 -10.333 -8 -15s2.33301 -9.66699 7 -15l69 -66.5l80 -74l81.5 -75.5l73.5 -71c2.66699 -2.66699 4 -6 4 -10c0 -7.33301 -4 -11 -12 -11
c-1.33301 0 -2.83301 0.166992 -4.5 0.5s-3.16699 0.5 -4.5 0.5l-200 -7c-5.33301 0 -10.333 1.33301 -15 4l-51 53c-16.667 18 -32.667 36.333 -48 55c-2 1.33301 -3.5 3.83301 -4.5 7.5s-1.5 7.16699 -1.5 10.5c0 17.333 1 35.666 3 54.999s3 39 3 59
c0 13.333 -0.333008 26 -1 38s-1.66699 24 -3 36c0.666992 4 1.83398 7.16699 3.50098 9.5s2.5 4.5 2.5 6.5c0 1.33301 -0.333008 2.33301 -1 3c-4.66699 4.66699 -7.5 13.334 -8.5 26.001s-1.5 25.667 -1.5 39c0 9.33301 0.166992 18 0.5 26s0.5 14.667 0.5 20v57
c0 21.333 3 39.666 9 54.999z" />
    <glyph glyph-name="l" unicode="l" horiz-adv-x="552" 
d="M286 137c0 7.33301 3.83203 12.001 11.499 14.001s16.167 3 25.5 3c21.333 0 42.166 -0.333008 62.499 -1s41.833 -1 64.5 -1c7.33301 0 14.5 0.166992 21.5 0.5s14.167 0.5 21.5 0.5c8 0 13 -5.5 15 -16.5s3 -22.167 3 -33.5c0 -13.333 -0.666992 -26.833 -2 -40.5
s-2 -27.5 -2 -41.5c0 -3.33301 0.166992 -6.5 0.5 -9.5s0.5 -6.16699 0.5 -9.5c0 -8.66699 -4 -13 -12 -13c-3.33301 0 -6.33301 0.166992 -9 0.5s-5.66699 0.5 -9 0.5c-22 -1.33301 -43 -3 -63 -5s-40.333 -3 -61 -3c-9.33301 0 -18.166 0.166992 -26.499 0.5
s-17.166 1.16602 -26.499 2.49902c-8 1.33301 -12.833 6.83301 -14.5 16.5s-2.5 20.167 -2.5 31.5c0 17.333 0.333008 35 1 53s1 35 1 51zM62.999 617.001c0 9.33301 1.83105 16.998 5.49805 22.998s12.167 9 25.5 9s27.5 -0.833008 42.5 -2.5s30.167 -2.5 45.5 -2.5
c6.66699 0 13.167 0.166992 19.5 0.5s12.833 0.833008 19.5 1.5c2.66699 0 5.33398 -0.666992 8.00098 -2s4.33398 -3.66602 5.00098 -6.99902c1.33301 -25.333 2 -49 2 -71v-68c0 -60 -0.833008 -116.667 -2.5 -170s-2.5 -106.666 -2.5 -159.999
c0 -26 0.5 -51.833 1.5 -77.5s2.16699 -51.167 3.5 -76.5c0 -5.33301 -1 -10.833 -3 -16.5s-6.33301 -8.5 -13 -8.5l-141 -5c-5.33301 0 -8 3 -8 9c0 4 0.666992 8.66699 2 14s2 10.333 2 15z" />
    <glyph glyph-name="m" unicode="m" horiz-adv-x="662" 
d="M64 632c2.66699 8 10.0059 12.002 22.0059 12.002h10c7.33301 0 14.166 -0.166992 20.499 -0.5s13.166 -0.5 20.499 -0.5c8.66699 0 14.834 0.333008 18.501 1s8.5 1 14.5 1c3.33301 0 6.16602 -0.833008 8.49902 -2.5s5.5 -5.5 9.5 -11.5c19.333 -31.333 41 -64 65 -98
l68 -99c28.667 30 56.167 61.833 82.5 95.5l82.5 109.5c4 4.66699 8.66699 7 14 7h16c9.33301 0 19.166 -0.166992 29.499 -0.5s23.5 -0.5 39.5 -0.5c8.66699 0 13 -4.33301 13 -13c0 -5.33301 0.166992 -10.5 0.5 -15.5s0.833008 -10.167 1.5 -15.5
c1.33301 -10 2.33301 -20.333 3 -31s1.66699 -23.334 3 -38.001c0 -7.33301 -1.66699 -13.666 -5 -18.999c-20.667 -28.667 -41.834 -56.334 -63.501 -83.001l-64.5 -79.5l-63 -80c-20.667 -27 -40 -55.5 -58 -85.5c-4 -6.66699 -7.83301 -12 -11.5 -16
s-7.83398 -6 -12.501 -6c-6 0 -11.333 4 -16 12l-62.5 71l-65.5 80c-22 28 -43.333 56.833 -64 86.5s-39.334 59.5 -56.001 89.5c-2.66699 14.667 -4.16699 28 -4.5 40s-0.5 26.667 -0.5 44c0 8.66699 0.333008 17.167 1 25.5s2 15.166 4 20.499zM586.006 -13.998
c-7.33301 0 -18 0.161133 -32 0.494141s-26.667 0.5 -38 0.5c-12 0 -24 -0.166992 -36 -0.5s-24.333 -0.833008 -37 -1.5c-12 0 -18 4.33301 -18 13c4 24.667 6 50.334 6 77.001c0 14.667 -0.5 29.5 -1.5 44.5s-2.16699 30.5 -3.5 46.5c-0.666992 6 -1.5 12.167 -2.5 18.5
s-1.5 12.5 -1.5 18.5c0 4.66699 1 9.33398 3 14.001s4.33301 8.66699 7 12l72 94.5l68 91.5c2.66699 4.66699 7.33398 7 14.001 7c4.66699 0 9.66699 -1.16699 15 -3.5s8 -6.16602 8 -11.499c0 -6.66699 -0.333008 -13.667 -1 -21l-2 -22
c-3.33301 -39.333 -5.83301 -78.166 -7.5 -116.499s-2.5 -77.5 -2.5 -117.5c0 -21.333 0.333008 -42.666 1 -63.999s1.66699 -42.666 3 -63.999c-2.66699 -10.667 -7.33398 -16 -14.001 -16zM66.0059 95.9961c0 22 0.166992 43.8369 0.5 65.5039s0.5 43.5 0.5 65.5
c0 25.333 -0.333008 50.5 -1 75.5s-2.33398 50.833 -5.00098 77.5c0.666992 4.66699 2.33398 8.16699 5.00098 10.5s5.33398 3.5 8.00098 3.5c3.33301 0 5.66602 -2 6.99902 -6s4.33301 -8.66699 9 -14c24.667 -28 47.834 -56.167 69.501 -84.5s42.167 -56.833 61.5 -85.5
c3.33301 -4.66699 5.33301 -9.33398 6 -14.001s1.33398 -9.66699 2.00098 -15c1.33301 -28.667 2.33301 -57.334 3 -86.001s1 -57.667 1 -87c0 -8 -2.33301 -12.667 -7 -14l-11 -1c-12.667 -1.33301 -24.334 -2.16602 -35.001 -2.49902s-25 -0.5 -43 -0.5
c-8.66699 0 -17.334 0.166992 -26.001 0.5s-16.5 1.16602 -23.5 2.49902s-12.667 3.16602 -17 5.49902s-6.5 5.16602 -6.5 8.49902c0 8 0.333008 20 1 36s1 35.667 1 59z" />
    <glyph glyph-name="n" unicode="n" horiz-adv-x="617" 
d="M59 600c0 10.667 0.833984 20.667 2.50098 30s6.16699 14 13.5 14c11.333 0 23.166 0.333008 35.499 1s25.833 1 40.5 1c10 0 20.5 -1.16699 31.5 -3.5s18.833 -8.16602 23.5 -17.499c19.333 -38 42.5 -78.333 69.5 -121s55.833 -85.167 86.5 -127.5l93.5 -123.5
l90.5 -110c3.33301 -4.66699 5.83301 -10 7.5 -16s2.5 -14.667 2.5 -26v-99c0 -6.66699 -1.5 -11.334 -4.5 -14.001s-6.5 -4 -10.5 -4c-13.333 0 -27 0.333008 -41 1s-28 1 -42 1c-4 0 -7.5 -0.333008 -10.5 -1s-5.83301 -1 -8.5 -1c-5.33301 0 -10 3.33301 -14 10l-92 131
l-86.5 122l-86 121.5l-91.5 129.5c-1.33301 2 -3.33301 5.83301 -6 11.5s-4 11.167 -4 16.5v74zM61.001 390c0 4 1.66602 7.16406 4.99902 9.49707s7.33301 3.5 12 3.5c8 0 13.667 -2 17 -6c17.333 -29.333 37.333 -60.166 60 -92.499l69 -98.5
c2 -3.33301 3.5 -6.66602 4.5 -9.99902s1.5 -7.66602 1.5 -12.999l2 -90.5c0.666992 -30.333 1 -60.5 1 -90.5c0 -5.33301 -0.666992 -9.33301 -2 -12s-5.33301 -4 -12 -4c-3.33301 0 -6.5 0.166992 -9.5 0.5s-7 0.833008 -12 1.5s-11.667 1.16699 -20 1.5
s-19.166 0.5 -32.499 0.5c-12 0 -23.667 -0.166992 -35 -0.5s-22.333 -0.833008 -33 -1.5c-6 0 -12 1 -18 3c-3.33301 1.33301 -5.5 5.16602 -6.5 11.499s-1.5 14.5 -1.5 24.5c0 56 1.83301 111.333 5.5 166s5.5 113.334 5.5 176.001c0 6.66699 -0.166992 11.5 -0.5 14.5
s-0.5 5.16699 -0.5 6.5zM395 430.997c-4.66699 5.33301 -7.00098 13.667 -7.00098 25c0 29.333 -0.5 58.333 -1.5 87s-1.83301 58 -2.5 88c0 11.333 3.66699 17 11 17h35c15.333 0 31 -0.166992 47 -0.5s30.333 -0.666016 43 -0.999023s20 -0.5 22 -0.5
c4 -0.666992 7.5 -2.16699 10.5 -4.5s4.5 -5.5 4.5 -9.5c0 -2 -0.5 -4.66699 -1.5 -8s-1.83301 -9.33301 -2.5 -18c-1.33301 -14.667 -2.5 -33.334 -3.5 -56.001s-1.5 -46 -1.5 -70c0 -39.333 1 -77.833 3 -115.5s4.33301 -74.5 7 -110.5
c-1.33301 -10 -5.66602 -15 -12.999 -15c-4.66699 0 -7.66699 2.66699 -9 8l-73 93z" />
    <glyph glyph-name="o" unicode="o" horiz-adv-x="767" 
d="M429 661c11.333 -2 22.666 -4.3291 33.999 -6.99609l34 -8c32 -7.33301 62.167 -22.5 90.5 -45.5s53.166 -50.167 74.499 -81.5s38.166 -65 50.499 -101s18.5 -71 18.5 -105c0 -18.667 -2.33301 -37 -7 -55c-8 -32 -18.833 -62.5 -32.5 -91.5s-31.167 -55.5 -52.5 -79.5
s-46.666 -44.833 -75.999 -62.5s-63.333 -30.834 -102 -39.501c-6 -1.33301 -12.167 -2.83301 -18.5 -4.5s-13.166 -2.5 -20.499 -2.5c-5.33301 0 -9 3 -11 9v151c0 3.33301 1.33301 6.16602 4 8.49902s5.66699 4.16602 9 5.49902c18.667 5.33301 36.167 13.333 52.5 24
s30.5 23.5 42.5 38.5s21.333 31.833 28 50.5s10 38 10 58c0 17.333 -3.83301 35.333 -11.5 54s-17.667 35.667 -30 51s-26.666 28.333 -42.999 39s-32.833 17 -49.5 19c-3.33301 0.666992 -6.83301 2 -10.5 4s-5.5 5 -5.5 9c0.666992 18.667 1.5 37.667 2.5 57
s1.5 38.666 1.5 57.999c0 13.333 -0.166992 21.333 -0.5 24s-0.5 4.66699 -0.5 6c0 11.333 6.33301 17 19 17zM330 659.004c5.33301 1.33301 9.66992 1.99805 13.0029 1.99805c12.667 0 19 -5 19 -15c0 -20 -0.333008 -42.167 -1 -66.5s-1.66699 -47.166 -3 -68.499
c0 -7.33301 -2.16699 -13.166 -6.5 -17.499s-9.83301 -8.33301 -16.5 -12s-13.667 -7 -21 -10s-14.333 -6.5 -21 -10.5c-23.333 -15.333 -43.333 -35.833 -60 -61.5s-25 -52.5 -25 -80.5c0 -17.333 3.16699 -34 9.5 -50s14.666 -30.833 24.999 -44.5
s22.166 -25.834 35.499 -36.501s27 -19.334 41 -26.001c2.66699 -1.33301 6.16699 -2.5 10.5 -3.5s8.5 -2.33301 12.5 -4s7.33301 -3.5 10 -5.5s4 -4.66699 4 -8v-26c0 -16.667 0.833008 -32.667 2.5 -48s2.5 -31.333 2.5 -48c0 -7.33301 -1.33301 -15.666 -4 -24.999
s-9.66699 -14 -21 -14c-19.333 0 -38.5 5 -57.5 15s-37.833 18.667 -56.5 26c-24 9.33301 -46.333 22.5 -67 39.5s-38.834 36.833 -54.501 59.5s-28 47.334 -37 74.001s-13.5 54 -13.5 82c0 14 -0.333008 28 -1 42s-1 29.667 -1 47c0 39.333 8 75.5 24 108.5
s37.167 62 63.5 87s56.5 45.833 90.5 62.5s68.667 28.667 104 36z" />
    <glyph glyph-name="p" unicode="p" horiz-adv-x="479" 
d="M263 625c0 4.66699 1.66406 8.50098 4.99707 11.501s7 4.5 11 4.5c12 -1.33301 23.5 -4.16602 34.5 -8.49902s22.167 -9.16602 33.5 -14.499c32.667 -14 57.834 -34 75.501 -60s29.167 -62 34.5 -108c-5.33301 -34.667 -12.666 -64.167 -21.999 -88.5
s-21 -44.5 -35 -60.5s-30.833 -28.5 -50.5 -37.5s-42.834 -14.833 -69.501 -17.5c-4 0.666992 -7.66699 2.16699 -11 4.5s-5 6.16602 -5 11.499v152c0.666992 6 2.83398 9.66699 6.50098 11l11.5 4c10 2 15 6.66699 15 14c0 6 -1.5 10.167 -4.5 12.5
s-6.5 4.16602 -10.5 5.49902c-7.33301 1.33301 -12.166 3.16602 -14.499 5.49902s-4.5 6.5 -6.5 12.5zM232.997 632.001c0 -9.33301 -1.16504 -23.335 -3.49805 -42.002s-3.5 -36.334 -3.5 -53.001c0 -20 0.666992 -44.333 2 -73s3 -59.334 5 -92.001
s3.66699 -66.167 5 -100.5s2 -67.166 2 -98.499v-29c0 -10.667 -0.166992 -22.5 -0.5 -35.5l-1 -39c-0.333008 -13 -1 -25.167 -2 -36.5s-2.16699 -21 -3.5 -29c-1.33301 -5.33301 -2.83301 -9.16602 -4.5 -11.499s-7.5 -3.5 -17.5 -3.5
c-16.667 0 -33.167 -0.666992 -49.5 -2s-32.833 -2 -49.5 -2c-10.667 0 -21.334 0.666992 -32.001 2s-18 5.66602 -22 12.999c-0.666992 70.667 -2.16699 138.334 -4.5 203.001s-3.5 128.667 -3.5 192c0 29.333 0.333008 58.5 1 87.5s2 55.167 4 78.5s4.66699 42.333 8 57
s7.66602 22.334 12.999 23.001c8 0.666992 18.167 1.33398 30.5 2.00098l38.5 2c13.333 0.666992 26.5 1 39.5 1h33.5c4 -1.33301 7.5 -3 10.5 -5s4.5 -5 4.5 -9z" />
    <glyph glyph-name="q" unicode="q" horiz-adv-x="788" 
d="M358 499c0 -6.66699 -3.66895 -11.665 -11.002 -14.998c-42 -13.333 -74.167 -33.5 -96.5 -60.5s-34.166 -64.5 -35.499 -112.5c6 -30 18.5 -59 37.5 -87s43.5 -48.667 73.5 -62c6 -2.66699 12.333 -5.16699 19 -7.5s10 -5.83301 10 -10.5
c0 -0.666992 -0.166992 -2.83398 -0.5 -6.50098s-0.5 -8.5 -0.5 -14.5c0 -17.333 0.666992 -38 2 -62s2 -46.333 2 -67c0 -9.33301 -4.33301 -14 -13 -14c-7.33301 0 -15.5 1 -24.5 3s-18.833 4.33301 -29.5 7c-35.333 9.33301 -67.166 24.666 -95.499 45.999
s-52.666 46 -72.999 74s-36 58.167 -47 90.5s-16.5 64.5 -16.5 96.5c0 46 6.83301 90 20.5 132s33 79.333 58 112s54.667 59.5 89 80.5s72.166 33.5 113.499 37.5c4.66699 0 8.66699 -1.16699 12 -3.5s5 -6.5 5 -12.5zM428.998 643.002
c0 5.33301 1.66797 9.50195 5.00098 12.502s6.66602 4.5 9.99902 4.5c19.333 -3.33301 37.833 -9.66602 55.5 -18.999l54.5 -29c26 -14 50.167 -30.5 72.5 -49.5s41.666 -40 57.999 -63s29.166 -47.833 38.499 -74.5s14 -54.334 14 -83.001
c0 -32 -3.16699 -65.167 -9.5 -99.5s-19.5 -68.833 -39.5 -103.5c5.33301 -4 13 -10.5 23 -19.5s20 -18.5 30 -28.5s18.833 -19.5 26.5 -28.5s11.5 -15.5 11.5 -19.5c0 -5.33301 -2 -9.33301 -6 -12l-98 -96c-1.33301 -1.33301 -3 -2.33301 -5 -3s-3.66699 -1 -5 -1
c-5.33301 0 -12.333 3.5 -21 10.5s-17.667 15.333 -27 25l-28 30c-9.33301 10.333 -17.666 19.166 -24.999 26.499c-17.333 -12 -35.5 -21.167 -54.5 -27.5s-40.5 -11.5 -64.5 -15.5c-8.66699 0 -13 3.66699 -13 11c-1.33301 19.333 -2 42 -2 68s-0.333008 53 -1 81
c1.33301 7.33301 3.5 12.5 6.5 15.5s8.16699 5.83301 15.5 8.5c16.667 4 31.834 10.833 45.501 20.5s25.167 21.167 34.5 34.5s16.666 27.5 21.999 42.5s8 30.167 8 45.5v8c0.666992 1.33301 1 3.66602 1 6.99902v8c0 33.333 -10.667 62.333 -32 87
s-48.666 45.334 -81.999 62.001c-5.33301 2 -9.66602 4.16699 -12.999 6.5s-5 4.83301 -5 7.5c0 1.33301 0.166992 3.16602 0.5 5.49902s1.16602 3.83301 2.49902 4.5z" />
    <glyph glyph-name="r" unicode="r" horiz-adv-x="491" 
d="M60 631c1.33301 4 3.16992 7.5 5.50293 10.5s5.16602 4.5 8.49902 4.5c5.33301 0 10.166 -0.333008 14.499 -1s8.83301 -1 13.5 -1h124c9.33301 -1.33301 15.166 -4.33301 17.499 -9s3.5 -10.667 3.5 -18c-5.33301 -38.667 -8.5 -76.667 -9.5 -114
s-1.5 -74.666 -1.5 -111.999v-80.5c0 -24.333 0.166992 -48.333 0.5 -72s0.5 -47.834 0.5 -72.501v-82c0 -14 -0.333008 -28 -1 -42s-2 -25.667 -4 -35c-1.33301 -7.33301 -4.16602 -12.5 -8.49902 -15.5s-11.833 -4.83301 -22.5 -5.5
c-13.333 -0.666992 -27.333 -1.16699 -42 -1.5s-29 -0.5 -43 -0.5c-17.333 0 -29.833 1 -37.5 3s-11.834 6.66699 -12.501 14zM261.004 628c0 9.33301 5.00098 15.668 15.001 19.001c21.333 -2.66699 42.166 -8.66699 62.499 -18s38.333 -21.833 54 -37.5
s28.334 -34 38.001 -55s14.5 -44.833 14.5 -71.5c0 -21.333 -1.66699 -40.5 -5 -57.5s-8.5 -33.167 -15.5 -48.5s-16.167 -30.5 -27.5 -45.5s-25 -30.833 -41 -47.5c12 -20 23.167 -41.167 33.5 -63.5l30 -67l29.5 -65.5c10 -21.333 20.333 -41.333 31 -60
c1.33301 -3.33301 2.16602 -5.5 2.49902 -6.5s0.5 -2.16699 0.5 -3.5c0 -8.66699 -5 -13 -15 -13c-22.667 -0.666992 -46.667 -1.33398 -72 -2.00098s-52.666 -1 -81.999 -1c-4 0 -7.83301 2.33301 -11.5 7s-7.33398 10.167 -11.001 16.5s-7.16699 13 -10.5 20
s-6.66602 12.833 -9.99902 17.5c-5.33301 8 -9.83301 16 -13.5 24s-5.5 17 -5.5 27c3.33301 37.333 6.16602 75 8.49902 113s3.5 75.333 3.5 112c0 12.667 -0.333008 25.167 -1 37.5s-1 24.166 -1 35.499c0 7.33301 0.666992 12.5 2 15.5s5.33301 7.83301 12 14.5
c3.33301 3.33301 6 6.5 8 9.5s3 6.83301 3 11.5c0 6.66699 -1.66699 11.667 -5 15s-7 6.33301 -11 9s-7.5 5.33398 -10.5 8.00098s-4.5 6.66699 -4.5 12z" />
    <glyph glyph-name="s" unicode="s" horiz-adv-x="584" 
d="M311 500c-0.666992 6 -1.17188 14.666 -1.50488 25.999s-0.666016 23.5 -0.999023 36.5s-0.5 25.833 -0.5 38.5v33c0 5.33301 2 9.33301 6 12s8.33301 4 13 4c36 -12.667 70.833 -29.5 104.5 -50.5s63.834 -44.167 90.501 -69.5c3.33301 -4.66699 5 -8.66699 5 -12
c0 -4 -3.66699 -10.167 -11 -18.5s-16.166 -17 -26.499 -26s-21.166 -17.667 -32.499 -26s-21 -15.166 -29 -20.499c-9.33301 -6 -15 -9 -17 -9c-5.33301 0 -10.333 1.66699 -15 5c-2 1.33301 -4.5 3.33301 -7.5 6l-10.5 9c-4 3.33301 -12.333 8.83301 -25 16.5
s-23.667 15.167 -33 22.5c-1.33301 2 -2.66602 4.33301 -3.99902 7c-1.33301 2 -2.5 4.33301 -3.5 7s-1.5 5.66699 -1.5 9zM31.9951 121.999c-3.33301 4.66699 -5 8.66406 -5 11.9971s1 6.66602 3 9.99902l22.5 21l28 27.5l28 28c9 9 16.833 16.167 23.5 21.5
c3.33301 3.33301 6.33301 5.33301 9 6s5 1 7 1c3.33301 0 9 -3.5 17 -10.5s16.667 -15.167 26 -24.5l28 -27.5c9.33301 -9 17 -15.5 23 -19.5c4 -3.33301 7.33301 -5.66602 10 -6.99902s5.33398 -3.33301 8.00098 -6c1.33301 -1.33301 2.5 -3.16602 3.5 -5.49902
s1.5 -7.16602 1.5 -14.499c0 -22 -0.333008 -45.333 -1 -70s-1 -45.667 -1 -63c0 -10.667 -5.66699 -16 -17 -16c-2.66699 0 -8.33398 1.16699 -17.001 3.5s-16 4.83301 -22 7.5c-36 14.667 -68.167 32.834 -96.5 54.501s-54.5 45.5 -78.5 71.5zM145.995 610.996
c9.33301 6.66699 19.8291 13.001 31.4961 19.001s23.5 10.333 35.5 13c4.66699 1.33301 9.5 2.83301 14.5 4.5s10.167 2.5 15.5 2.5c6 0 10 -3 12 -9c1.33301 -3.33301 2.16602 -7.33301 2.49902 -12s0.5 -9.33398 0.5 -14.001c0 -15.333 -0.666992 -31.833 -2 -49.5
s-2 -39.167 -2 -64.5c0 -2.66699 0.166992 -5 0.5 -7s0.5 -4.66699 0.5 -8c0 -2.66699 -0.5 -4.66699 -1.5 -6s-3.16699 -3.33301 -6.5 -6c-6 -4 -9 -9.66699 -9 -17c0 -3.33301 0.833008 -6.16602 2.5 -8.49902s5.16699 -5.83301 10.5 -10.5
c12 -9.33301 26.667 -17.5 44 -24.5s31 -11.833 41 -14.5c28 -10.667 54.667 -21.667 80 -33s50.333 -27 75 -47c20 -16.667 32.5 -37.5 37.5 -62.5s7.5 -49.5 7.5 -73.5c0 -14 -1.33301 -27 -4 -39s-5 -21.667 -7 -29c-6.66699 -19.333 -17 -37.333 -31 -54
s-30.667 -31.334 -50 -44.001c-19.333 -12 -39.666 -21.667 -60.999 -29c-17.333 -5.33301 -33 -8 -47 -8c-3.33301 0 -6.5 1 -9.5 3s-4.5 4.33301 -4.5 7c0 2 0.166992 3.83301 0.5 5.5s0.5 4.16699 0.5 7.5c0 10 -0.333008 21 -1 33s-1.16699 24 -1.5 36l-1 34.5
c-0.333008 11 -0.5 20.5 -0.5 28.5c0 8.66699 4 14 12 16c8.66699 3.33301 16 7 22 11s9 10.667 9 20c0 6.66699 -2 12.167 -6 16.5s-11.667 9.5 -23 15.5s-22.666 9.83301 -33.999 11.5s-21.666 3.5 -30.999 5.5c-11.333 2.66699 -22.5 6 -33.5 10
s-21.833 8.66699 -32.5 14c-18.667 8.66699 -36.167 19 -52.5 31s-30.666 25.333 -42.999 40s-22.166 31 -29.499 49s-11 37.333 -11 58c0 82.667 26.667 142 80 178z" />
    <glyph glyph-name="t" unicode="t" horiz-adv-x="519" 
d="M180 639l12.002 7.00391c10.667 1.33301 20.667 2.16602 30 2.49902s19 0.5 29 0.5c13.333 0 26.666 -0.166992 39.999 -0.5s27.666 -1.16602 42.999 -2.49902c13.333 -1.33301 21.833 -4.66602 25.5 -9.99902s5.5 -12 5.5 -20
c-6.66699 -50.667 -10.5 -100.167 -11.5 -148.5s-1.5 -96.833 -1.5 -145.5c0 -21.333 0.166992 -41.333 0.5 -60s0.5 -37.5 0.5 -56.5s0.166992 -38.833 0.5 -59.5s0.5 -43.334 0.5 -68.001c0 -20.667 -0.333008 -37.334 -1 -50.001s-2 -22.334 -4 -29.001
s-4.5 -11.167 -7.5 -13.5s-6.83301 -3.5 -11.5 -3.5c-23.333 0 -43.666 0.666992 -60.999 2s-34.333 2 -51 2h-19c-4.66699 0 -7.83398 1.5 -9.50098 4.5s-2.5 6.5 -2.5 10.5c0 2.66699 0.333008 5.16699 1 7.5s1.16699 5.66602 1.5 9.99902s0.833008 10.166 1.5 17.499
s1 17.333 1 30c0 40 -0.833008 79 -2.5 117s-3.66699 76 -6 114s-4.33301 76.5 -6 115.5s-2.5 79.5 -2.5 121.5c0 15.333 0.166992 31 0.5 47s0.833008 32.667 1.5 50zM23.002 631.004c0 4 1.33496 7.66602 4.00195 10.999s5.66699 5 9 5
c17.333 0 34.833 -0.166992 52.5 -0.5s35.167 -0.5 52.5 -0.5c9.33301 -0.666992 14 -6 14 -16c0 -23.333 0.166992 -46.166 0.5 -68.499s0.5 -45.166 0.5 -68.499c0 -4.66699 -2.66699 -8.33398 -8 -11.001s-12 -4.5 -20 -5.5s-16.833 -1.66699 -26.5 -2
s-18.834 -0.5 -27.501 -0.5c-12.667 0 -24.334 1 -35.001 3s-16 7 -16 15v139zM380.004 613.003c0 7.33301 0.832031 15.166 2.49902 23.499s5.83398 12.5 12.501 12.5h30c8.66699 0 17.5 -0.166992 26.5 -0.5s17.167 -1.16602 24.5 -2.49902s13.333 -3.33301 18 -6
s7 -6 7 -10c0 -26.667 0.333008 -49 1 -67s1 -37.667 1 -59c0 -6.66699 -0.833008 -12.667 -2.5 -18s-4.83398 -8 -9.50098 -8c-4 0 -9.5 0.166992 -16.5 0.5s-17.5 0.5 -31.5 0.5c-7.33301 0 -14.666 -0.166992 -21.999 -0.5s-15 -0.833008 -23 -1.5
c-8.66699 1.33301 -13 4.33301 -13 9l-3.5 66.5c-1 19 -1.5 39.167 -1.5 60.5z" />
    <glyph glyph-name="u" unicode="u" 
d="M215 646c13.333 0 21.668 -4.67383 25.001 -14.0068c-1.33301 -61.333 -3.33301 -122.166 -6 -182.499s-4 -121.166 -4 -182.499c0 -15.333 1.33301 -30.166 4 -44.499s10 -28.5 22 -42.5c10.667 -13.333 23 -23.333 37 -30c4.66699 -2.66699 7.66699 -4.66699 9 -6
s2 -2.66602 2 -3.99902c0 -24.667 0.333008 -49.167 1 -73.5s1.66699 -48.833 3 -73.5c0 -8 -2.66699 -12 -8 -12c-15.333 0 -31.333 1.83301 -48 5.5s-33 8.83398 -49 15.501s-31 14.834 -45 24.501s-25.667 20.834 -35 33.501c-18.667 24 -33.334 49.833 -44.001 77.5
s-16 57.167 -16 88.5c0 12 0.166992 22.667 0.5 32s0.5 18.666 0.5 27.999v18c0 6 -0.666992 12.667 -2 20c-4 31.333 -6.5 61 -7.5 89s-1.5 58.333 -1.5 91c0 14.667 0.166992 30.334 0.5 47.001s1 32 2 46s2.83301 25.667 5.5 35s6.66699 14 12 14h142zM580.002 645.993
c4.66699 -1.33301 9.66797 -3.83594 15.001 -7.50293s8.33301 -12.834 9 -27.501c0 -5.33301 -0.5 -10.166 -1.5 -14.499s-1.83301 -9.16602 -2.5 -14.499c-4.66699 -40 -7.16699 -79.667 -7.5 -119s-1.16602 -78.5 -2.49902 -117.5s-4.5 -77.833 -9.5 -116.5
s-14.167 -76.667 -27.5 -114c-5.33301 -15.333 -11.666 -30.166 -18.999 -44.499s-17.666 -26.833 -30.999 -37.5c-18.667 -14 -40.334 -25.833 -65.001 -35.5s-48.667 -16.167 -72 -19.5c-4 0.666992 -8.66699 2.16699 -14 4.5s-8 6.5 -8 12.5c0 20.667 0.5 43.667 1.5 69
s2.16699 49.666 3.5 72.999c1.33301 6.66699 5.33301 11.334 12 14.001c14 4 25.167 10.167 33.5 18.5s14.666 18 18.999 29s7.16602 23.167 8.49902 36.5s2 27 2 41c0 37.333 -0.666992 76.333 -2 117s-2 88.334 -2 143.001c0 15.333 0.333008 31 1 47s1.66699 29.667 3 41
c1.33301 6.66699 3.66602 12 6.99902 16s12.333 5.66699 27 5z" />
    <glyph glyph-name="v" unicode="v" horiz-adv-x="632" 
d="M584 646c9.33301 0 17.834 -1 25.501 -3s11.5 -5.33301 11.5 -10c0 -6.66699 -1.83301 -12 -5.5 -16s-6.5 -9 -8.5 -15l-41 -103.5l-44 -107.5l-42 -107.5c-13.333 -35.667 -24.666 -70.167 -33.999 -103.5c-3.33301 -6 -7.33301 -9 -12 -9c-6 0 -9.83301 4 -11.5 12
s-3.5 14.333 -5.5 19c-12 25.333 -23.333 50.5 -34 75.5s-20.667 52.5 -30 82.5c-1.33301 4 -2.33301 8 -3 12s-1 8 -1 12s0.333008 8 1 12s1.66699 8.33301 3 13c9.33301 40 21.333 78 36 114l45 112c2 7.33301 5 12 9 14c11.333 -1.33301 21.333 -2.33301 30 -3
s17.667 -1 27 -1c11.333 0 22.666 0.166992 33.999 0.5s22.666 0.5 33.999 0.5h16zM18.001 643c17.333 0.666992 40.6611 1.33203 69.9941 1.99902s58.666 1 87.999 1c7.33301 0 14.833 -1.83301 22.5 -5.5s12.834 -9.5 15.501 -17.5l89.5 -271.5
c29.667 -87.667 60.167 -170.834 91.5 -249.501c3.33301 -4.66699 5.33301 -8.66699 6 -12s1 -6.33301 1 -9c0 -6 -1 -11 -3 -15c-5.33301 -14 -10.166 -28.167 -14.499 -42.5s-10.166 -25.166 -17.499 -32.499c-4 -4 -9 -6 -15 -6
c-3.33301 0 -7.66602 0.166992 -12.999 0.5s-10.666 0.5 -15.999 0.5c-8 0 -15 -0.333008 -21 -1s-12.333 -1 -19 -1c-7.33301 0 -12.666 3.83301 -15.999 11.5s-6.66602 15.834 -9.99902 24.501c-20 46 -39.5 93.167 -58.5 141.5l-58 148.5l-62.5 155
c-22 52.667 -46.333 106 -73 160c-1.33301 4 -2 5.66699 -2 5c0 8.66699 5 13 15 13z" />
    <glyph glyph-name="w" unicode="w" horiz-adv-x="845" 
d="M560 359c-4 8.66699 -6 15.335 -6 20.002c0 6 2.33301 14.667 7 26l44.5 116.5l44.5 113.5c2 6 5.33301 9 10 9c17.333 0 33.833 -0.333008 49.5 -1s31.167 -1 46.5 -1c20.667 0 42 1 64 3c6 -1.33301 10.167 -3.33301 12.5 -6s3.5 -5.66699 3.5 -9
c0 -7.33301 -2.66699 -15 -8 -23s-9.33301 -16.333 -12 -25c-10 -34 -21.667 -67.667 -35 -101l-41 -100l-41.5 -99c-13.667 -32.667 -25.5 -65.334 -35.5 -98.001c-2.66699 -6.66699 -7 -10 -13 -10c-3.33301 0 -8.5 6.66699 -15.5 20s-14.833 29.666 -23.5 48.999l-27 61z
M502 -15.999c-6.66699 0 -13 0.832031 -19 2.49902s-10.667 6.5 -14 14.5c-11.333 30.667 -21.666 61.334 -30.999 92.001l-27 90.5l-26.5 87.5c-9 28.667 -18.833 56.667 -29.5 84c-1.33301 4 -2.5 7.66699 -3.5 11s-1.5 7 -1.5 11c0 8 2.66699 21.5 8 40.5
s11.5 38 18.5 57s13.833 35.833 20.5 50.5s11 22 13 22c7.33301 0 11.5 -3.33301 12.5 -10s2.83301 -13.667 5.5 -21c29.333 -82 60.166 -157 92.499 -225l96.5 -196c2 -3.33301 3 -7 3 -11c0 -2.66699 -0.333008 -4.66699 -1 -6
c-4.66699 -15.333 -10.167 -29.5 -16.5 -42.5s-11.5 -26.5 -15.5 -40.5c-1.33301 -3.33301 -3.33301 -5.83301 -6 -7.5s-5.66699 -2.5 -9 -2.5zM171 646c8.66699 0 15.8301 -0.331055 21.4971 -0.998047s10.334 -2 14.001 -4s6.83398 -5.16699 9.50098 -9.5
s5 -10.166 7 -17.499l88 -278c28.667 -90.667 60 -177 94 -259c0.666992 -1.33301 1 -3.33301 1 -6c0 -2 -1.16699 -7.33301 -3.5 -16s-5.16602 -17.834 -8.49902 -27.501s-6.83301 -18.5 -10.5 -26.5s-6.83398 -12.333 -9.50098 -13l-91 -3
c-5.33301 1.33301 -10 3.16602 -14 5.49902s-7.33301 6.83301 -10 13.5c-22 56.667 -44.667 112 -68 166l-67 158.5l-61 152.5c-19.333 50 -36 99 -50 147c0 3.33301 1.33301 6.66602 4 9.99902s6.33398 5 11.001 5c22.667 0 45.667 0.5 69 1.5s48 1.5 74 1.5z" />
    <glyph glyph-name="x" unicode="x" horiz-adv-x="669" 
d="M13 644c17.333 0.666992 35.6689 1.33008 55.002 1.99707s39.333 1 60 1c15.333 0 30.5 -1.33301 45.5 -4s30.167 -4 45.5 -4c7.33301 0 13 -0.666992 17 -2s7.66699 -4.66602 11 -9.99902c30 -51.333 62.833 -104.333 98.5 -159s72.667 -108.667 111 -162l115.5 -155.5
l112 -139.5c2 -2 3 -5 3 -9c0 -8 -4 -12.333 -12 -13c-12.667 -1.33301 -28.834 -2.66602 -48.501 -3.99902s-40.5 -2 -62.5 -2c-27.333 0 -46.333 0.833008 -57 2.5s-17.667 4.83398 -21 9.50098c-35.333 52.667 -72.833 105.667 -112.5 159l-121 157.5l-122.5 151
l-116 138.5c-2.66699 3.33301 -6.5 7.33301 -11.5 12s-7.5 9.66699 -7.5 15c0 4 1.66699 7.66699 5 11s7.66602 5 12.999 5zM-7.99707 -14.0039c-6 0 -8.99902 2.66406 -8.99902 7.99707c0 4.66699 2.16699 10 6.5 16s7.16602 10 8.49902 12
c26.667 40.667 56.667 82.334 90 125.001s64 84.334 92 125.001c2.66699 3.33301 6 5 10 5c4.66699 0 11.5 -4.66699 20.5 -14s18.667 -20.5 29 -33.5s20.5 -26.833 30.5 -41.5s18 -27 24 -37c2.66699 -3.33301 4 -7.66602 4 -12.999c0 -6 -2.33301 -11.333 -7 -16
c-20.667 -22 -38.834 -44.333 -54.501 -67s-31.5 -44 -47.5 -64c-1.33301 -1.33301 -3.5 -2.83301 -6.5 -4.5s-6.5 -2.5 -10.5 -2.5c-16 0 -31.667 0.833008 -47 2.5s-30.666 2.5 -45.999 2.5c-27.333 0 -56.333 -1 -87 -3zM455.004 632.993c4 4 7.00098 6.33301 9.00098 7
s6 1.33398 12 2.00098c8.66699 0.666992 21 1.16699 37 1.5s32.833 0.666016 50.5 0.999023l52.5 1c17.333 0.333008 32 0.5 44 0.5c11.333 0 17 -4 17 -12c0 -4 -1.16699 -8 -3.5 -12s-4.83301 -7.66699 -7.5 -11l-89 -113.5l-95 -118.5c-4 -4.66699 -9.66699 -7 -17 -7
c-6 0 -13.667 5.33301 -23 16s-19 23 -29 37s-19.333 27.833 -28 41.5s-15.334 23.5 -20.001 29.5c-2 2.66699 -3 6 -3 10c0 1.33301 0.333008 3.33301 1 6s2.66699 5.66699 6 9l45 60z" />
    <glyph glyph-name="y" unicode="y" horiz-adv-x="596" 
d="M178 646c2 0 6.00098 -1 12.001 -3s10.667 -6.66699 14 -14c23.333 -56.667 51.333 -112 84 -166s63.667 -109.333 93 -166c1.33301 -2 2.83301 -4.66699 4.5 -8s2.5 -7 2.5 -11c0 -8 -1 -15.833 -3 -23.5s-3 -16.167 -3 -25.5c0 -26.667 1.33301 -53.834 4 -81.501
s4 -59.5 4 -95.5c0 -18 -1 -33 -3 -45s-6.66699 -18.333 -14 -19c-6 0 -14.833 -0.166992 -26.5 -0.5s-24.5 -0.666016 -38.5 -0.999023l-42 -1c-14 -0.333008 -26.333 -0.5 -37 -0.5c-8.66699 0 -14.167 2.33301 -16.5 7s-3.5 10.334 -3.5 17.001c0 30 1.5 60.5 4.5 91.5
s4.5 60.833 4.5 89.5c0 24.667 -1 47 -3 67c-14.667 35.333 -31.334 69.166 -50.001 101.499s-37.667 63.5 -57 93.5l-57 87c-18.667 28 -35 56 -49 84c-1.33301 2.66699 -2 5.66699 -2 9c-0 9.33301 4.33301 14 13 14h165zM400.001 638
c1.33301 2.66699 4.8291 4.66895 10.4961 6.00195s12.334 2.33301 20.001 3s15.834 1.16699 24.501 1.5s16.667 0.5 24 0.5c17.333 0 35.333 -0.5 54 -1.5l47 -2.5c11.333 0 17 -9.66699 17 -29c0 -2.66699 -0.833008 -5.5 -2.5 -8.5s-3.16699 -5.16699 -4.5 -6.5
c-15.333 -22 -29.333 -43.5 -42 -64.5l-37.5 -62.5l-37 -62.5c-12.333 -21 -25.833 -42.5 -40.5 -64.5c-3.33301 -5.33301 -9.33301 -8 -18 -8c-1.33301 0 -6.66602 6.83301 -15.999 20.5l-31 47.5c-11.333 18 -21.5 36 -30.5 54s-13.5 31 -13.5 39
c0 5.33301 0.333008 9.16602 1 11.499s2.66699 5.83301 6 10.5c12.667 17.333 24.334 35.666 35.001 54.999z" />
    <glyph glyph-name="z" unicode="z" horiz-adv-x="615" 
d="M424 631c6 8 12.334 12 19.001 12c15.333 0 31.166 0.333008 47.499 1s37.166 1 62.499 1c3.33301 0 6.66602 -1.33301 9.99902 -4s5 -6 5 -10c0 -13.333 -0.166992 -24.5 -0.5 -33.5s-1 -16.667 -2 -23s-2.5 -11.833 -4.5 -16.5s-5 -9.33398 -9 -14.001l-189 -266
c-63.333 -92.667 -123.666 -188 -180.999 -286c-2.66699 -5.33301 -6.66699 -8 -12 -8h-34h-21c-7.33301 0 -14 0.5 -20 1.5s-10.833 2.33301 -14.5 4s-5.5 4.16699 -5.5 7.5c0 17.333 -0.666992 35.5 -2 54.5s-2 37.833 -2 56.5c0 6.66699 0.333008 11.334 1 14.001
s2.33398 6.66699 5.00098 12c28 46.667 56.667 91.167 86 133.5l88.5 124.5l88 120zM262.001 -15c-10 0 -14.999 4.33105 -14.999 12.998c0 4 1.66699 7.66699 5 11c4 6 10.667 16.833 20 32.5l29 47.5c10 16 19.5 30.333 28.5 43s15.5 19 19.5 19
c7.33301 0 13.833 -0.5 19.5 -1.5s13.5 -1.5 23.5 -1.5c13.333 0 29.833 0.166992 49.5 0.5s41.167 0.5 64.5 0.5c15.333 0 29.333 -0.5 42 -1.5s19.334 -3.5 20.001 -7.5c0.666992 -23.333 1.16699 -47.166 1.5 -71.499s0.5 -47.166 0.5 -68.499c0 -8 -5.33301 -12 -16 -12
c-4.66699 0 -8.83398 0.833008 -12.501 2.5s-7.83398 2.5 -12.501 2.5c-16 0.666992 -31.667 1 -47 1h-46h-51c-16.667 0 -33 -0.666992 -49 -2c-12.667 -0.666992 -26.667 -2 -42 -4s-26 -3 -32 -3zM72.002 630.998c0 2.66699 0.833984 5.33203 2.50098 7.99902
s3.5 4 5.5 4c4.66699 0 7.66699 -0.5 9 -1.5s5.66602 -1.5 12.999 -1.5h31c17.333 0 38 0.333008 62 1s49.333 1.33398 76 2.00098s51 1.66699 73 3c10 0 15 -5.33301 15 -16c0 -2.66699 -1 -5.33398 -3 -8.00098c-14 -23.333 -30 -47.5 -48 -72.5
s-34.667 -47.167 -50 -66.5c-3.33301 -3.33301 -8.33301 -5.66602 -15 -6.99902s-12.667 -2 -18 -2c-21.333 0 -43.833 0.333008 -67.5 1l-70.5 2c-10 0 -15 6.66699 -15 20v134z" />
    <glyph glyph-name="braceleft" unicode="{" horiz-adv-x="395" 
d="M362 626c0 -12.667 -5.33691 -19.0068 -16.0039 -19.0068c-13.333 0 -24.666 -2.83301 -33.999 -8.5s-17.5 -13.5 -24.5 -23.5s-13 -21.833 -18 -35.5s-9.5 -28.5 -13.5 -44.5c-3.33301 -14 -6.33301 -31.5 -9 -52.5s-8.33398 -41.167 -17.001 -60.5
c-7.33301 -15.333 -14 -27.166 -20 -35.499s-9 -17.166 -9 -26.499c0 -8 3.5 -15.5 10.5 -22.5s13.5 -18.833 19.5 -35.5c4 -11.333 6.5 -22.666 7.5 -33.999s2.16699 -22.666 3.5 -33.999c1.33301 -12.667 3.5 -28.5 6.5 -47.5s8.16699 -38.167 15.5 -57.5
s17.5 -37.166 30.5 -53.499s29.833 -28.5 50.5 -36.5c6 -2.66699 9.83301 -7.5 11.5 -14.5s2.5 -14.167 2.5 -21.5c0 -20.667 -0.333008 -41.667 -1 -63s-1.66699 -41.666 -3 -60.999c-0.666992 -4.66699 -2.5 -8 -5.5 -10s-6.16699 -3 -9.5 -3
c-16.667 0 -31.834 1.83301 -45.501 5.5s-29.167 9.16699 -46.5 16.5c-30 12 -55.167 27.667 -75.5 47s-36.666 41 -48.999 65s-21.5 49.833 -27.5 77.5s-10 56.5 -12 86.5c-2 31.333 -4 55.5 -6 72.5s-8.66699 27.5 -20 31.5s-19.666 6.83301 -24.999 8.5
s-8.66602 4.16699 -9.99902 7.5c-2 4 -3.16699 11 -3.5 21s-0.5 20.667 -0.5 32c0 21.333 0.5 41.666 1.5 60.999s3.5 32 7.5 38c3.33301 4 6.5 6.66699 9.5 8s9.5 4 19.5 8c6 2 11.667 5.33301 17 10s10.166 11.834 14.499 21.501s8.33301 23 12 40
s6.83398 39.167 9.50098 66.5c4 42 12.667 77.5 26 106.5s30.166 52.833 50.499 71.5s43.833 32.167 70.5 40.5s55.334 12.5 86.001 12.5c2.66699 0 5.33398 -0.666992 8.00098 -2s4.83398 -5 6.50098 -11s3 -15 4 -27s1.5 -28.667 1.5 -50v-29.5
c0 -10.333 -0.333008 -22.166 -1 -35.499z" />
    <glyph glyph-name="bar" unicode="|" horiz-adv-x="275" 
d="M80 536c-2 27.333 -3.83105 48.8311 -5.49805 64.498s-3 27.667 -4 36l-2 16.5c-0.333008 2.66699 -0.5 4.66699 -0.5 6c0 2 3.16699 3.83301 9.5 5.5s14.166 2.83398 23.499 3.50098s19.833 1.16699 31.5 1.5s22.5 0.5 32.5 0.5h32c4.66699 -1.33301 8 -4 10 -8
s3.66699 -8 5 -12l7 -777c-2 -15.333 -5.33301 -23 -10 -23c-6.66699 0 -14.167 -0.666992 -22.5 -2s-16.5 -2 -24.5 -2c-9.33301 0 -18.833 0.166992 -28.5 0.5s-19.167 0.5 -28.5 0.5h-14c-4.66699 0 -9.33398 -0.333008 -14.001 -1
c-10 0.666992 -15.333 6.33398 -16 17.001z" />
    <glyph glyph-name="braceright" unicode="}" horiz-adv-x="395" 
d="M20 -19c0 12.667 5.33398 19.0068 16.001 19.0068c13.333 0 24.666 2.83301 33.999 8.5s17.5 13.5 24.5 23.5s13 21.833 18 35.5s9.5 28.5 13.5 44.5c3.33301 14 6.33301 31.5 9 52.5s8.33398 41.167 17.001 60.5c7.33301 15.333 14 27.166 20 35.499s9 17.166 9 26.499
c0 8 -3.5 15.5 -10.5 22.5s-13.5 18.833 -19.5 35.5c-4 11.333 -6.5 22.666 -7.5 33.999s-2.16699 22.666 -3.5 33.999c-1.33301 12.667 -3.5 28.5 -6.5 47.5s-8.16699 38.167 -15.5 57.5s-17.5 37.166 -30.5 53.499s-29.833 28.5 -50.5 36.5
c-6 2.66699 -9.83301 7.5 -11.5 14.5s-2.5 14.167 -2.5 21.5c0 20.667 0.333008 41.667 1 63s1.66699 41.666 3 60.999c0.666992 4.66699 2.5 8 5.5 10s6.16699 3 9.5 3c16.667 0 31.834 -1.83301 45.501 -5.5s29.167 -9.16699 46.5 -16.5c30 -12 55.167 -27.667 75.5 -47
s36.666 -41 48.999 -65s21.5 -49.833 27.5 -77.5s10 -56.5 12 -86.5c2 -31.333 4 -55.5 6 -72.5s8.66699 -27.5 20 -31.5s19.666 -6.83301 24.999 -8.5s8.66602 -4.16699 9.99902 -7.5c2 -4 3.16699 -11 3.5 -21s0.5 -20.667 0.5 -32c0 -21.333 -0.5 -41.666 -1.5 -60.999
s-3.5 -32 -7.5 -38c-3.33301 -4 -6.5 -6.66699 -9.5 -8s-9.5 -4 -19.5 -8c-6 -2 -11.667 -5.33301 -17 -10s-10.166 -11.834 -14.499 -21.501s-8.33301 -23 -12 -40s-6.83398 -39.167 -9.50098 -66.5c-4 -42 -12.667 -77.5 -26 -106.5s-30.166 -52.833 -50.499 -71.5
s-43.833 -32.167 -70.5 -40.5s-55.334 -12.5 -86.001 -12.5c-3.33301 0 -6.16602 0.666992 -8.49902 2s-4.33301 5 -6 11s-3 15 -4 27s-1.5 28.667 -1.5 50v29.5c0 10.333 0.333008 22.166 1 35.499z" />
    <glyph glyph-name="asciitilde" unicode="~" horiz-adv-x="375" 
d="M25 304c-2 2.66699 -4.66895 5.50098 -8.00195 8.50098s-5 6.16699 -5 9.5c0 4 1.33301 7.66699 4 11s5.66699 6.66602 9 9.99902l28 29c8.66699 8.66699 17.667 16 27 22s19 10.667 29 14s21.333 5 34 5c10 0 19.5 -2 28.5 -6s17.5 -8.5 25.5 -13.5
s15.667 -9.5 23 -13.5s14.666 -6 21.999 -6c6.66699 0 12.667 2 18 6s10.333 8.33301 15 13l13 13c4 4 8 6 12 6c4.66699 0 9.33398 -3.5 14.001 -10.5s9.5 -15.333 14.5 -25l16 -30.5c5.66699 -10.667 11.5 -20 17.5 -28c4.66699 -7.33301 7 -12.666 7 -15.999
s-1 -6.33301 -3 -9c-9.33301 -9.33301 -18.166 -18.833 -26.499 -28.5s-17.333 -18.5 -27 -26.5s-20 -14.5 -31 -19.5s-23.5 -7.5 -37.5 -7.5c-8.66699 0 -17.167 2.33301 -25.5 7s-16.5 10 -24.5 16s-15.667 11.333 -23 16s-14 7 -20 7c-4.66699 0 -9 -2.33301 -13 -7
s-8 -9.83398 -12 -15.501l-11 -15.5c-3.33301 -4.66699 -6.33301 -7 -9 -7c-5.33301 0 -11.333 3.16699 -18 9.5s-13.667 14 -21 23s-14.666 18.833 -21.999 29.5z" />
    <glyph glyph-name="nonbreakingspace" unicode="&#xa0;" horiz-adv-x="200" 
 />
    <glyph glyph-name="exclamdown" unicode="&#xa1;" horiz-adv-x="289" 
d="M232 -1c-1.33301 -3.33301 -2.83008 -6.66699 -4.49707 -10s-4.83398 -5 -9.50098 -5h-40c-12 0 -24 0.166992 -36 0.5s-24 0.5 -36 0.5h-27c-4.66699 0 -8.33398 -0.333008 -11.001 -1c-2.66699 1.33301 -5.16699 2.5 -7.5 3.5s-3.5 3.16699 -3.5 6.5
c0 2 1.66699 5.33301 5 10l-9 301c0 2.66699 0.166992 5.16699 0.5 7.5s0.5 4.83301 0.5 7.5l7 95c3.33301 7.33301 7.66602 11 12.999 11c0.666992 0 1.16699 -0.166992 1.5 -0.5s0.833008 -0.5 1.5 -0.5l131 4c8.66699 0.666992 14 -3.83301 16 -13.5s3 -19.5 3 -29.5v-17
c0 -11.333 -0.5 -22.833 -1.5 -34.5s-2.5 -25.167 -4.5 -40.5zM243.003 543.999c0 -4.66699 -0.498047 -9.83789 -1.49805 -15.5049s-2.5 -11 -4.5 -16s-4.33301 -9.16699 -7 -12.5s-5.33398 -5 -8.00098 -5c-0.666992 0 -1.33398 0.333008 -2.00098 1l-151 -3
c-9.33301 2.66699 -15.833 9.33398 -19.5 20.001s-5.5 20 -5.5 28c0 10.667 1.83301 22.334 5.5 35.001s9.5 24.334 17.5 35.001s18.333 19.667 31 27s28 11 46 11c12 0 23.833 -2.66699 35.5 -8s22 -12.666 31 -21.999s16.5 -20.166 22.5 -32.499s9.33301 -25.5 10 -39.5
v-3z" />
    <glyph glyph-name="sterling" unicode="&#xa3;" horiz-adv-x="514" 
d="M59 404c0 30.667 6.33105 58.8223 18.998 84.4893s29.167 48 49.5 67s43.833 34.5 70.5 46.5s54 19.667 82 23c20.667 -0.666992 39.834 -4.5 57.501 -11.5s34.167 -16 49.5 -27s29.333 -23.833 42 -38.5s24.667 -30 36 -46c6.66699 -9.33301 11.167 -19 13.5 -29
s3.5 -20.333 3.5 -31c0 -37.333 -6.66699 -56 -20 -56c-10.667 0 -20.834 0.166992 -30.501 0.5s-19.834 0.5 -30.501 0.5c-8.66699 0 -17.667 -0.5 -27 -1.5s-18 -1.5 -26 -1.5c-6 0 -10.333 0.333008 -13 1c-6 1.33301 -10.667 5.33301 -14 12l-10.5 21
c-3.66699 7.33301 -8.16699 13.833 -13.5 19.5s-13 8.5 -23 8.5c-13.333 0 -25 -4.33301 -35 -13s-15 -19 -15 -31c0 -9.33301 1.83301 -20.166 5.5 -32.499s7.5 -21.166 11.5 -26.499c22 -2 46 -3 72 -3c13.333 0 26.333 0.333008 39 1s25.334 1 38.001 1
c4.66699 0 7.66699 -3 9 -9s2 -13.333 2 -22c0 -8 -0.166992 -16.5 -0.5 -25.5l-1 -27l-1 -26c-0.333008 -8.33301 -0.5 -15.166 -0.5 -20.499s-4.5 -8.5 -13.5 -9.5s-18.5 -1.5 -28.5 -1.5c-16 0 -30 0.166992 -42 0.5s-22.667 1.5 -32 3.5
c0 -10.667 -1.33301 -20.834 -4 -30.501s-7 -16.5 -13 -20.5c14.667 0.666992 30.834 1 48.501 1h53.5c18 0 35.5 0.166992 52.5 0.5s32.5 1.16602 46.5 2.49902c4.66699 0 8.33398 -2.16699 11.001 -6.5s4 -8.83301 4 -13.5c0.666992 -22.667 1.16699 -45.167 1.5 -67.5
s0.5 -45.166 0.5 -68.499c0 -10.667 -6 -16.667 -18 -18c-16 -1.33301 -34.833 -2.16602 -56.5 -2.49902l-68 -1c-23.667 -0.333008 -47.5 -0.5 -71.5 -0.5h-66c-23.333 0 -46.333 0.666992 -69 2l-68 4c-6 0.666992 -10 2.33398 -12 5.00098s-3.66699 6.33398 -5 11.001
c-1.33301 16.667 -2.33301 35.5 -3 56.5s-1 42.5 -1 64.5c0 6.66699 3.16699 12.334 9.5 17.001s18.833 10.667 37.5 18c13.333 5.33301 22.5 11.333 27.5 18s7.83301 16.334 8.5 29.001c-9.33301 -2 -19.666 -3 -30.999 -3c-6 0 -12 0.166992 -18 0.5s-12 0.833008 -18 1.5
s-9.83301 5.33398 -11.5 14.001s-2.5 18.334 -2.5 29.001c0 18 0.166992 33.333 0.5 46s0.5 24 0.5 34c0 2.66699 1.66699 4.83398 5 6.50098s7.16602 3 11.499 4s8.83301 1.83301 13.5 2.5s8 1.33398 10 2.00098c-9.33301 8 -16.5 18 -21.5 30s-7.5 22.667 -7.5 32z" />
    <glyph glyph-name="yen" unicode="&#xa5;" horiz-adv-x="596" 
d="M16 294c1.33301 3.33301 3.99902 6.49609 7.99902 9.49609s10.667 5.83301 20 8.5l128 -2c-25.333 49.333 -53.333 100.833 -84 154.5l-90 152.5c-1.33301 2.66699 -2 5.33398 -2 8.00098c0 8 4 12 12 12c4 0 7 -0.333008 9 -1c13.333 2.66699 26.833 4.66699 40.5 6
s28.167 2 43.5 2c12.667 0 25 -0.333008 37 -1s24 -1.66699 36 -3c4.66699 -3.33301 7.5 -7.16602 8.5 -11.499s1.5 -8.5 1.5 -12.5c38 -42.667 71.333 -91.167 100 -145.5l84 -162.5l148 -1l15.5 -4c5 -1.33301 7.5 -4 7.5 -8l-1 -2l3 -57
c-1.33301 -4 -3.66602 -7.5 -6.99902 -10.5s-6 -4.5 -8 -4.5h-141c0 -9.33301 -0.166992 -18.166 -0.5 -26.499s-0.833008 -16.833 -1.5 -25.5l133 -2c12.667 -2 20.334 -7.16699 23.001 -15.5s4 -17.166 4 -26.499c0 -7.33301 -1 -16 -3 -26s-8.33301 -15 -19 -15
c-2.66699 0 -5 0.166992 -7 0.5s-4.66699 0.833008 -8 1.5l-127 -2c0 -1.33301 -0.166992 -3 -0.5 -5s-0.5 -3.66699 -0.5 -5c0 -12.667 0.166992 -25.667 0.5 -39s1.16602 -26.666 2.49902 -39.999c0 -2.66699 -1.16699 -5.5 -3.5 -8.5s-5.83301 -4.5 -10.5 -4.5
c-2.66699 0 -4.66699 0.333008 -6 1c-17.333 -2.66699 -34.333 -4.16699 -51 -4.5s-33 -0.5 -49 -0.5c-11.333 0 -22 0.5 -32 1.5s-20 4.5 -30 10.5l6 91l-164 -2c-8 1.33301 -13.667 2.66602 -17 3.99902s-5 4.33301 -5 9l-3 62c1.33301 3.33301 4.5 6.83301 9.5 10.5
s13.167 7.5 24.5 11.5l156 -3c0 8 -0.333008 16 -1 24s-1.66699 16 -3 24l-161 1c-7.33301 1.33301 -13.5 2.83301 -18.5 4.5s-7.5 4.5 -7.5 8.5zM391.999 622.996c5.33301 7.33301 14.499 12 27.499 14s25.833 3 38.5 3c22 0 42.5 -0.333008 61.5 -1l55.5 -2h1
c6 0 10.667 -2.16699 14 -6.5s5.33301 -7.16602 6 -8.49902c-33.333 -44 -62.833 -89.167 -88.5 -135.5l-78.5 -145.5c-4 -4.66699 -9 -7 -15 -7c-0.666992 0 -3.5 3.5 -8.5 10.5l-18 26.5c-7 10.667 -14.333 22.5 -22 35.5l-21.5 37.5c-6.66699 12 -12.167 22.5 -16.5 31.5
s-6.5 15.167 -6.5 18.5s2 8.66602 6 15.999c10.667 20 21.834 39 33.501 57s22.167 36.667 31.5 56z" />
    <glyph glyph-name="brokenbar" unicode="&#xa6;" horiz-adv-x="275" 
d="M70 192l146.002 -0.000976562l3 -350c-2 5.33301 -5.33301 8 -10 8c-6.66699 0 -14.167 -0.666992 -22.5 -2s-16.5 -2 -24.5 -2c-14.667 0 -28.834 0.5 -42.501 1.5s-26.834 1.5 -39.501 1.5l-3 -3c-10 0.666992 -15.333 6.33398 -16 17.001zM197.002 669.999
c4.66699 -1.33301 8.00098 -4.00098 10.001 -8.00098s3.66699 -8 5 -12l2 -280h-139l8 262c-6 7.33301 -10 12.833 -12 16.5s-3 7.16699 -3 10.5c0 2 3.16699 3.83301 9.5 5.5s14.166 2.83398 23.499 3.50098s19.833 1.16699 31.5 1.5s22.5 0.5 32.5 0.5h32z" />
    <glyph glyph-name="dieresis" unicode="&#xa8;" horiz-adv-x="333" 
d="M298 683c-13.333 0 -25.833 3.00293 -37.5 9.00293s-22.167 13.667 -31.5 23s-16.666 20.166 -21.999 32.499s-8 24.833 -8 37.5c0 14 2.66699 27.167 8 39.5s12.5 23.166 21.5 32.499s19.667 16.833 32 22.5s25.166 8.5 38.499 8.5c12 0 24 -3 36 -9
s22.667 -13.667 32 -23s17 -19.833 23 -31.5s9 -23.167 9 -34.5c0 -29.333 -9.33301 -53.833 -28 -73.5s-43 -30.834 -73 -33.501zM46 888.003c13.333 0 26.166 -3.00098 38.499 -9.00098s23.333 -13.833 33 -23.5s17.334 -20.334 23.001 -32.001s8.5 -22.834 8.5 -33.501
c0 -15.333 -3 -29.666 -9 -42.999s-13.833 -24.666 -23.5 -33.999s-20.667 -16.666 -33 -21.999s-24.833 -8 -37.5 -8c-12 0 -23.833 3 -35.5 9s-22.167 13.667 -31.5 23s-17 19.833 -23 31.5s-9.33301 23.167 -10 34.5c0 14.667 3 28 9 40s13.833 22.667 23.5 32
s20.5 17 32.5 23s23.667 10 35 12z" />
    <glyph glyph-name="ordfeminine" unicode="&#xaa;" horiz-adv-x="376" 
d="M217 575c2 0 5.33789 -1 10.0049 -3s8 -6.33301 10 -13c19.333 -60.667 41.166 -121.167 65.499 -181.5s47.166 -122.5 68.499 -186.5v-2c0 -1.33301 -0.5 -2.66602 -1.5 -3.99902s-4 -2.5 -9 -3.5s-12.5 -1.83301 -22.5 -2.5s-23.667 -1.33398 -41 -2.00098
c-4.66699 0 -9.83398 0.5 -15.501 1.5s-14.834 3.83301 -27.501 8.5c-16 57.333 -33 115.333 -51 174s-41.333 114 -70 166c3.33301 8.66699 6.66602 18.667 9.99902 30s8.33301 17.333 15 18h59zM173.005 344l-11.002 -30.001h18l7 -6
c4.66699 -9.33301 8.33398 -18.833 11.001 -28.5s6.33398 -19.5 11.001 -29.5v-3c0 -6 -3.33301 -9 -10 -9h-67c-4 -13.333 -7.5 -23.833 -10.5 -31.5s-7.5 -13.5 -13.5 -17.5s-14.667 -6.5 -26 -7.5s-27 -1.5 -47 -1.5h-22c-5.33301 0 -10 5.66699 -14 17
c21.333 38.667 40.333 81.334 57 128.001l53 143c2 4.66699 5.66699 7 11 7c3.33301 0 6 -1 8 -3z" />
    <glyph glyph-name="guillemotleft" unicode="&#xab;" horiz-adv-x="450" 
d="M37 365c0 6.66699 0.337891 11.6719 1.00488 15.0049s2.66699 6.66602 6 9.99902l116 79c41.333 27.333 84 53.666 128 78.999c2.66699 1.33301 4.66699 2 6 2c3.33301 0 6.33301 -1.33301 9 -4s4 -6.33398 4 -11.001l1 -39l17 14c7.33301 6 15.166 12 23.499 18
s16.666 11.167 24.999 15.5s15.166 6.5 20.499 6.5c3.33301 0 6.66602 -1.33301 9.99902 -4s5 -6.33398 5 -11.001v-1c0 -21.333 0.666992 -44.333 2 -69s2 -49.667 2 -75v-21c-11.333 -9.33301 -22 -17.5 -32 -24.5l-31 -22.5c9.33301 -6 18.5 -11.333 27.5 -16
s18.167 -10 27.5 -16l6 -16l1 -168c-0.666992 -2.66699 -2.5 -5.16699 -5.5 -7.5s-6.5 -3.5 -10.5 -3.5s-10 2.16699 -18 6.5s-16.5 9.5 -25.5 15.5s-17.5 12 -25.5 18l-19 14v-39c0 -4.66699 -1.66699 -8.33398 -5 -11.001s-7.33301 -4 -12 -4
c-2.66699 0 -5.33398 0.666992 -8.00098 2l-125.5 75.5c-38.333 23 -76.5 47.5 -114.5 73.5l-7 24c0 3.33301 -0.166992 6.33301 -0.5 9s-0.5 5.66699 -0.5 9c0 11.333 0.333008 22.5 1 33.5s1 22.167 1 33.5v10z" />
    <glyph glyph-name="macron" unicode="&#xaf;" horiz-adv-x="434" 
d="M23 864c0.666992 4.66699 2.50098 8.17285 5.50098 10.5059s6.5 4.16602 10.5 5.49902l366 -9c2.66699 2.66699 5.66699 4 9 4c4.66699 0 7.66699 -4.83301 9 -14.5s2 -19.834 2 -30.501v-17c0 -6.66699 -0.166992 -15.5 -0.5 -26.5s-1 -21.833 -2 -32.5
s-3 -20.334 -6 -29.001s-6.83301 -13.667 -11.5 -15l-359 5c-4 -1.33301 -7.33301 -2 -10 -2c-5.33301 0 -8.83301 1.33301 -10.5 4s-2.83398 5.66699 -3.50098 9c0.666992 1.33301 1 3.66602 1 6.99902v25c0 17.333 -0.5 34.666 -1.5 51.999s-2.16699 34.666 -3.5 51.999z
" />
    <glyph glyph-name="degree" unicode="&#xb0;" horiz-adv-x="497" 
d="M261 649c0 6.66699 3.33594 9.99902 10.0029 9.99902c29.333 -3.33301 55.333 -11.666 78 -24.999s41.667 -29.666 57 -48.999s27.5 -40.5 36.5 -63.5s14.833 -45.833 17.5 -68.5c-1.33301 -18.667 -5.5 -37.334 -12.5 -56.001s-16.333 -36.5 -28 -53.5
s-25.334 -32.5 -41.001 -46.5s-32.5 -26 -50.5 -36c-10.667 -3.33301 -20.334 -6 -29.001 -8s-17.667 -3.66699 -27 -5c-2 0 -4 0.5 -6 1.5s-3 3.16699 -3 6.5v3v10c0 5.33301 -0.166992 13.833 -0.5 25.5s-0.833008 28.167 -1.5 49.5l8 8
c10.667 3.33301 20.667 8.66602 30 15.999s17.5 15.833 24.5 25.5s12.5 20.334 16.5 32.001s6 23.5 6 35.5c0 11.333 -2 22.333 -6 33s-9.5 20.334 -16.5 29.001s-15.333 15.667 -25 21s-19.834 8.66602 -30.501 9.99902l-9 9zM218.003 659.999
c7.33301 0 11.002 -3.66504 11.002 -10.998v-86c-3.33301 -5.33301 -7 -8.33301 -11 -9s-8.66699 -2.66699 -14 -6c-16.667 -9.33301 -31.5 -23 -44.5 -41s-19.833 -36.667 -20.5 -56c0 -12 2.5 -23.333 7.5 -34s11.5 -20.5 19.5 -29.5s17 -16.667 27 -23s20 -10.5 30 -12.5
c3.33301 -0.666992 5.16602 -2.33398 5.49902 -5.00098s0.5 -4.66699 0.5 -6l1 -84c0 -6 -2.33301 -9 -7 -9c-10.667 0 -21.334 2 -32.001 6s-19.667 9.66699 -27 17c-34.667 13.333 -64 36.166 -88 68.499s-38.333 70.5 -43 114.5c2 26 8.66699 50.833 20 74.5
s25.5 45 42.5 64s36.167 34.5 57.5 46.5s43 19 65 21z" />
    <glyph glyph-name="plusminus" unicode="&#xb1;" horiz-adv-x="432" 
d="M138 506l146.997 -2c0.666992 0 1.33398 0.166992 2.00098 0.5s1.66699 0.5 3 0.5c5.33301 0 8.5 -4.5 9.5 -13.5s1.5 -18.833 1.5 -29.5v-49l83 -1c9.33301 0 14 -5 14 -15c-0.666992 -12.667 -1 -26.167 -1 -40.5v-43.5v-52c0 -6 -1.5 -10.167 -4.5 -12.5
s-6.5 -4.16602 -10.5 -5.49902l-79 2c-1.33301 -15.333 -2.16602 -29.5 -2.49902 -42.5s-0.5 -26.5 -0.5 -40.5l-8 -12l-8 -2c-13.333 0 -26.333 -0.333008 -39 -1s-25.667 -1 -39 -1c-9.33301 0 -18.833 0.333008 -28.5 1s-20.167 1.66699 -31.5 3l-8 -2l-8 14v82h-80
c-4.66699 0 -8.16699 1.5 -10.5 4.5s-4.16602 6.5 -5.49902 10.5c0.666992 1.33301 1 3.66602 1 6.99902v25c0 17.333 -0.5 34.5 -1.5 51.5s-2.16699 34.167 -3.5 51.5l13 16l8 2c3.33301 0.666992 6.33301 1 9 1h9h19c3.33301 0 6.5 -0.166992 9.5 -0.5
s6.16699 -0.5 9.5 -0.5c6.66699 0 12.167 1.66699 16.5 5s6.5 11 6.5 23c0 9.33301 -0.333008 18 -1 26s-1 16.667 -1 26zM385.997 73c9.33301 0 14 -5 14 -15c-0.666992 -12.667 -1 -26.167 -1 -40.5v-43.5v-52c0 -6 -1.5 -10.167 -4.5 -12.5s-6.5 -4.16602 -10.5 -5.49902
l-332 1c-4.66699 0 -8.16699 1.5 -10.5 4.5s-4.16602 6.5 -5.49902 10.5c0.666992 1.33301 1 3.66602 1 6.99902v25c0 17.333 -0.833008 34.5 -2.5 51.5s-2.5 34.167 -2.5 51.5c0 9.33301 4.16699 14.833 12.5 16.5s17.166 2.5 26.499 2.5h20.5
c7 0 20.5 -0.166992 40.5 -0.5s49.667 -0.5 89 -0.5h165z" />
    <glyph glyph-name="twosuperior" unicode="&#xb2;" horiz-adv-x="333" 
d="M83 307c-6 1.33301 -10 6.16797 -12 14.501s-3 17.833 -3 28.5c0 11.333 0.666992 22.666 2 33.999s2 19.333 2 24c9.33301 12.667 18.333 22.667 27 30s17.5 12.666 26.5 15.999s18.667 5.5 29 6.5s21.833 1.5 34.5 1.5c4.66699 0 10.5 -0.166992 17.5 -0.5
s13.667 -1 20 -2s11.666 -2.66699 15.999 -5s6.5 -5.16602 6.5 -8.49902c0 -2.66699 -0.166992 -4.5 -0.5 -5.5s-1.5 -2.5 -3.5 -4.5l-29 -27c4.66699 -0.666992 9.16699 -1 13.5 -1h12.5c5.33301 0 10.5 0.166992 15.5 0.5s10.167 0.833008 15.5 1.5
c2.66699 -1.33301 5.83398 -4.16602 9.50098 -8.49902s5.5 -14.5 5.5 -30.5c0 -12.667 -1 -24.834 -3 -36.501s-6 -23.167 -12 -34.5c-18.667 3.33301 -38.5 5.33301 -59.5 6s-42.833 1 -65.5 1h-65zM42 554.002c7.33301 42.667 20.999 72 40.999 88s47.333 24 82 24
c18.667 0 35.834 -3.33301 51.501 -10s29.334 -15.667 41.001 -27s20.667 -24.5 27 -39.5s9.5 -31.167 9.5 -48.5c0 -13.333 -1.33301 -24.5 -4 -33.5s-7.33398 -19.167 -14.001 -30.5c-22 0 -37.167 -0.166992 -45.5 -0.5s-16.5 -0.5 -24.5 -0.5c-10.667 0 -20.5 1 -29.5 3
s-13.5 6.33301 -13.5 13c0 4 1 7.33301 3 10c9.33301 6 16 12 20 18s6 10.667 6 14c0 8.66699 -3.5 15 -10.5 19s-13.833 6 -20.5 6c-3.33301 0 -7.5 -3.5 -12.5 -10.5s-11.833 -10.833 -20.5 -11.5l-71 3c-4 0 -7.5 1.33301 -10.5 4s-4.5 5 -4.5 7v3z" />
    <glyph glyph-name="threesuperior" unicode="&#xb3;" horiz-adv-x="331" 
d="M117 652c6.66699 2.66699 12.001 3.99902 16.001 3.99902c9.33301 0 14 -5.33301 14 -16v-84c0 -10 -3 -15.333 -9 -16l-83 3c-4.66699 4.66699 -7 9.33398 -7 14.001c0 19.333 6.16699 37.5 18.5 54.5s29.166 30.5 50.499 40.5zM112.001 436.999
c5.33301 -1.33301 9.5 -3.83301 12.5 -7.5l8.5 -10.5l15 -15v-87l-15 -11c-13.333 0 -27 4 -41 12s-26.667 17.833 -38 29.5s-20.833 24.334 -28.5 38.001s-11.5 26.167 -11.5 37.5c0 3.33301 1.33301 6.66602 4 9.99902s6.66699 5 12 5zM165.001 603.999
c0 4.66699 0.336914 10.001 1.00391 16.001s1.66699 11.667 3 17s3.33301 10 6 14s6 6 10 6c22 -8.66699 41 -22 57 -40s24.667 -38.667 26 -62c-0.666992 -9.33301 -1.33398 -17.833 -2.00098 -25.5s-2.66699 -14.5 -6 -20.5c11.333 -10 19.166 -22 23.499 -36
s6.5 -28.333 6.5 -43c0 -34 -10.333 -62.167 -31 -84.5s-46 -35.5 -76 -39.5c-3.33301 0 -6.33301 0.833008 -9 2.5s-4 5.16699 -4 10.5l-3 78c1.33301 4.66699 5.16602 9 11.499 13s9.5 10.333 9.5 19c0 3.33301 -1.66699 6.16602 -5 8.49902s-7.33301 4.83301 -12 7.5
c-2.66699 26.667 -4.33398 53.167 -5.00098 79.5s-1 52.833 -1 79.5z" />
    <glyph glyph-name="acute" unicode="&#xb4;" horiz-adv-x="285" 
d="M13 789l4.99902 4.99805c16 14 32.333 26.5 49 37.5l50.5 33l50.5 34c16.667 11.667 33 24.834 49 39.501c11.333 -9.33301 21.166 -20 29.499 -32s15.833 -24.5 22.5 -37.5l19.5 -38.5c6.33301 -12.667 13.5 -24.334 21.5 -35.001c2 -3.33301 3 -6.66602 3 -9.99902
c0 -5.33301 -4.5 -11.166 -13.5 -17.499s-20.5 -12.833 -34.5 -19.5s-29.667 -13.5 -47 -20.5l-50.5 -20l-46 -18c-14.333 -5.66699 -25.166 -10.5 -32.499 -14.5l-1 -4l-6 -2c-4 0 -9 4.16699 -15 12.5s-12 18 -18 29l-18.5 33.5c-6.33301 11.333 -12.166 20 -17.499 26v19
z" />
    <glyph glyph-name="periodcentered" unicode="&#xb7;" horiz-adv-x="304" 
d="M152 410c12.667 0 24.9971 -3.00098 36.9971 -9.00098s22.833 -13.667 32.5 -23s17.334 -19.666 23.001 -30.999s8.5 -22.333 8.5 -33c0 -14 -2.66699 -27.5 -8 -40.5s-12.666 -24.667 -21.999 -35s-20.166 -18.5 -32.499 -24.5s-25.5 -9 -39.5 -9
c-12 0 -23.833 3 -35.5 9s-22.167 13.667 -31.5 23s-17 19.833 -23 31.5s-9.33301 23.167 -10 34.5v3c0 14 3 26.833 9 38.5s13.833 22 23.5 31s20.5 16.5 32.5 22.5s23.667 10 35 12h1z" />
    <glyph glyph-name="cedilla" unicode="&#xb8;" horiz-adv-x="221" 
d="M21 -223c-5.33301 2.66699 -8.00195 7.00098 -8.00195 13.001c0 5.33301 2 15.333 6 30l13.5 48.5l15.5 53c5.33301 17.667 9.33301 32.167 12 43.5c2 9.33301 4.66699 14.666 8 15.999s7 2 11 2c10 -2.66699 21.167 -5.83398 33.5 -9.50098s24.5 -7.5 36.5 -11.5
s23 -7.83301 33 -11.5s18 -6.83398 24 -9.50098c5.33301 -1.33301 8 -4.66602 8 -9.99902c0 -3.33301 -1 -7 -3 -11c-4 -10.667 -9.16699 -22.667 -15.5 -36l-20.5 -42c-7.33301 -14.667 -15.166 -29.5 -23.499 -44.5l-24.5 -43.5c-2 -3.33301 -3.66699 -6 -5 -8
s-3.66602 -3 -6.99902 -3c-6 0 -13 1.33301 -21 4s-16.5 5.83398 -25.5 9.50098l-26 11z" />
    <glyph glyph-name="onesuperior" unicode="&#xb9;" horiz-adv-x="192" 
d="M42 320c1.33301 28 2.50098 57.333 3.50098 88l3 89c1 28.667 2.16699 55.5 3.5 80.5s2.66602 46.5 3.99902 64.5c0 3.33301 3.16699 6.5 9.5 9.5s14.833 4.5 25.5 4.5c18.667 0 32.167 -0.666992 40.5 -2s13.5 -5.66602 15.5 -12.999l7 -311
c0 -16.667 -10.667 -25 -32 -25c-33.333 0 -55 0.666992 -65 2s-15 5.66602 -15 12.999z" />
    <glyph glyph-name="ordmasculine" unicode="&#xba;" horiz-adv-x="461" 
d="M247 569c0 10.667 6.33105 16.001 18.998 16.001c8 0 16.5 -1.5 25.5 -4.5s16.167 -5.83301 21.5 -8.5c18.667 -8 35.667 -19.333 51 -34s28.5 -31 39.5 -49s19.667 -37.167 26 -57.5s9.83301 -40.5 10.5 -60.5c-3.33301 -23.333 -9.16602 -45.833 -17.499 -67.5
s-19.833 -41.167 -34.5 -58.5s-32.667 -32.166 -54 -44.499s-46.666 -20.833 -75.999 -25.5l-11 5v90c0 4 2.66699 7 8 9c22 6 40.667 18.5 56 37.5s23 40.5 23 64.5c0 10.667 -2.16699 21.5 -6.5 32.5s-10.166 21.167 -17.499 30.5s-15.833 17.166 -25.5 23.499
s-19.834 10.166 -30.501 11.499c-4.66699 0 -8 2.33301 -10 7c0 11.333 0.5 22.833 1.5 34.5s1.5 23.5 1.5 35.5v13zM204.998 584.001c7.33301 0 11.334 -3 12.001 -9l-2 -87c-3.33301 -5.33301 -7 -9 -11 -11s-9 -4.33301 -15 -7c-19.333 -8 -34.833 -20.667 -46.5 -38
s-17.5 -35 -17.5 -53c0 -21.333 6.5 -41 19.5 -59s28.5 -30 46.5 -36c3.33301 -2 8 -3.66699 14 -5s9 -3.66602 9 -6.99902c2 -12.667 3.16699 -24.334 3.5 -35.001s0.5 -21.667 0.5 -33c0 -5.33301 -1 -10.5 -3 -15.5s-6.33301 -9.16699 -13 -12.5
c-9.33301 0 -18 1.83301 -26 5.5s-17 8.16699 -27 13.5c-16 4 -31.167 11.167 -45.5 21.5s-27 22.5 -38 36.5s-19.667 29.5 -26 46.5s-9.5 34.833 -9.5 53.5c0 8.66699 -0.166992 17.167 -0.5 25.5s-0.5 17.5 -0.5 27.5c0 24.667 5 47 15 67s23.167 37.5 39.5 52.5
s35.166 27.5 56.499 37.5s43 17 65 21z" />
    <glyph glyph-name="guillemotright" unicode="&#xbb;" horiz-adv-x="442" 
d="M133 536c0 4.66699 1.49805 8.33203 4.49805 10.999s6.5 4 10.5 4c3.33301 0 6.33301 -0.666992 9 -2c38 -28 78.5 -54.5 121.5 -79.5s81.833 -50.167 116.5 -75.5l8 -18c0 -17.333 -0.333008 -33 -1 -47s-1 -28.333 -1 -43v-25l-4 -6
c-41.333 -28 -82.166 -54.167 -122.499 -78.5s-76.5 -50.833 -108.5 -79.5c-2.66699 -1.33301 -5.16699 -2 -7.5 -2h-6.5c-12.667 0 -19 4.66699 -19 14l-1 35c-6 -3.33301 -12.667 -7.66602 -20 -12.999l-22 -16c-7.33301 -5.33301 -14.333 -10 -21 -14s-12 -6 -16 -6
c-4.66699 0 -8.5 1.5 -11.5 4.5s-4.5 6.5 -4.5 10.5v17c0 26.667 -0.5 52 -1.5 76s-2.16699 49.667 -3.5 77l4 -6l7 13l27 18l24 17c-16 14 -33 25.667 -51 35l-6 14c0 30 -0.5 57.5 -1.5 82.5s-1.5 53.167 -1.5 84.5c2.66699 8 9.33398 12 20.001 12
c4.66699 0 10.667 -2 18 -6s14.666 -8.83301 21.999 -14.5l21 -17c6.66699 -5.66699 12.334 -10.167 17.001 -13.5c0.666992 0.666992 1 3 1 7v30z" />
    <glyph glyph-name="onequarter" unicode="&#xbc;" horiz-adv-x="698" 
d="M97 320c1.33301 28 2.50098 57.333 3.50098 88l3 89c1 28.667 2.16699 55.5 3.5 80.5s2.66602 46.5 3.99902 64.5c0 3.33301 3.16699 6.5 9.5 9.5s14.833 4.5 25.5 4.5c18.667 0 32.167 -0.666992 40.5 -2s13.5 -5.66602 15.5 -12.999l7 -311
c0 -16.667 -10.667 -25 -32 -25c-33.333 0 -55 0.666992 -65 2s-15 5.66602 -15 12.999zM507.001 693c7.33301 0 14.998 -0.170898 22.998 -0.503906s15.667 -0.5 23 -0.5c12.667 0 25.667 1 39 3c6 -3.33301 9 -7.66602 9 -12.999
c0 -1.33301 -0.666992 -2.66602 -2 -3.99902c-13.333 -28 -31.666 -61.667 -54.999 -101l-77 -127l-88 -139l-88 -136l-76.5 -118.5c-23 -35.667 -40.833 -64.5 -53.5 -86.5v-3c0 -4 -1.66699 -6.66699 -5 -8s-7 -2 -11 -2c-15.333 0 -31 0.666992 -47 2s-31.333 2 -46 2h-8
l-1 -2c-6.66699 0 -10 3.33301 -10 10c0 0.666992 0.166992 1.33398 0.5 2.00098s0.5 1.33398 0.5 2.00098l62 94.5l79.5 125l86.5 139l83.5 136.5l70.5 117.5l48 81.5c4 11.333 7.66699 18.833 11 22.5s6 5.5 8 5.5s4.33301 -0.333008 7 -1s8.33398 -1 17.001 -1z
M375.999 106.996c8.66699 32.667 18.668 61.502 30.001 86.502s19.666 49.167 24.999 72.5c0 1.33301 1.16699 3.33301 3.5 6s5.5 4 9.5 4c8 0 16.333 -0.5 25 -1.5s17.667 -1.5 27 -1.5h13.5c4.33301 0 9.16602 0.333008 14.499 1c0.666992 0 3 -0.666992 7 -2
c0 10.667 -0.166992 21.5 -0.5 32.5s-0.833008 22.167 -1.5 33.5c1.33301 2.66699 2.83301 5 4.5 7s5.16699 3 10.5 3h47c13.333 0 21.833 -0.333008 25.5 -1s6.16699 -1.66699 7.5 -3s3.33301 -14 6 -38s4 -60 4 -108h23c6 -4 9.83301 -10.5 11.5 -19.5
s2.5 -20.167 2.5 -33.5c0 -21.333 -1.33301 -35 -4 -41s-6.33398 -9 -11.001 -9c-9.33301 0 -15.333 -4 -18 -12s-4 -19 -4 -33c0 -6.66699 0.166992 -13.667 0.5 -21s0.5 -15.333 0.5 -24c0 -6 -2.66699 -10.5 -8 -13.5s-11.833 -5.33301 -19.5 -7s-15.667 -2.66699 -24 -3
s-15.166 -0.5 -20.499 -0.5c-6 0 -11.167 0.166992 -15.5 0.5s-8.16602 1.5 -11.499 3.5s-5.83301 5.16699 -7.5 9.5s-2.5 10.833 -2.5 19.5c0 11.333 0.333008 24.166 1 38.499s1.5 29.166 2.5 44.499l3 45c1 14.667 1.5 27.667 1.5 39
c0 13.333 -0.166992 24.833 -0.5 34.5s-0.833008 18.167 -1.5 25.5c-2 -6 -4 -12.333 -6 -19s-5 -15 -9 -25c5.33301 -2.66699 9.33301 -6.66699 12 -12c-0.666992 -62.667 -7 -94 -19 -94l-53 3c-20 0 -38.5 0.666992 -55.5 2s-25.5 5 -25.5 11z" />
    <glyph glyph-name="onehalf" unicode="&#xbd;" horiz-adv-x="695" 
d="M97 320c1.33301 28 2.50098 57.333 3.50098 88l3 89c1 28.667 2.16699 55.5 3.5 80.5s2.66602 46.5 3.99902 64.5c0 3.33301 3.16699 6.5 9.5 9.5s14.833 4.5 25.5 4.5c18.667 0 32.167 -0.666992 40.5 -2s13.5 -5.66602 15.5 -12.999l7 -311
c0 -16.667 -10.667 -25 -32 -25c-33.333 0 -55 0.666992 -65 2s-15 5.66602 -15 12.999zM507.001 693c7.33301 0 14.998 -0.170898 22.998 -0.503906s15.667 -0.5 23 -0.5c12.667 0 25.667 1 39 3c6 -3.33301 9 -7.66602 9 -12.999
c0 -1.33301 -0.666992 -2.66602 -2 -3.99902c-13.333 -28 -31.666 -61.667 -54.999 -101l-77 -127l-88 -139l-88 -136l-76.5 -118.5c-23 -35.667 -40.833 -64.5 -53.5 -86.5v-3c0 -4 -1.66699 -6.66699 -5 -8s-7 -2 -11 -2c-15.333 0 -31 0.666992 -47 2s-31.333 2 -46 2h-8
l-1 -2c-6.66699 0 -10 3.33301 -10 10c0 0.666992 0.166992 1.33398 0.5 2.00098s0.5 1.33398 0.5 2.00098l62 94.5l79.5 125l86.5 139l83.5 136.5l70.5 117.5l48 81.5c4 11.333 7.66699 18.833 11 22.5s6 5.5 8 5.5s4.33301 -0.333008 7 -1s8.33398 -1 17.001 -1z
M456.999 -18.0039c-6 1.33301 -10 6.16797 -12 14.501s-3 17.833 -3 28.5c0 11.333 0.666992 22.666 2 33.999s2 19.333 2 24c9.33301 12.667 18.333 22.667 27 30s17.5 12.666 26.5 15.999s18.667 5.5 29 6.5s21.833 1.5 34.5 1.5c4.66699 0 10.5 -0.166992 17.5 -0.5
s13.667 -1 20 -2s11.666 -2.66699 15.999 -5s6.5 -5.16602 6.5 -8.49902c0 -2.66699 -0.166992 -4.5 -0.5 -5.5s-1.5 -2.5 -3.5 -4.5l-29 -27c4.66699 -0.666992 9.16699 -1 13.5 -1h12.5c5.33301 0 10.5 0.166992 15.5 0.5s10.167 0.833008 15.5 1.5
c2.66699 -1.33301 5.83398 -4.16602 9.50098 -8.49902s5.5 -14.5 5.5 -30.5c0 -12.667 -1 -24.834 -3 -36.501s-6 -23.167 -12 -34.5c-18.667 3.33301 -38.5 5.33301 -59.5 6s-42.833 1 -65.5 1h-65zM415.999 228.998c7.33301 42.667 20.999 72 40.999 88s47.333 24 82 24
c18.667 0 35.834 -3.33301 51.501 -10s29.334 -15.667 41.001 -27s20.667 -24.5 27 -39.5s9.5 -31.167 9.5 -48.5c0 -13.333 -1.33301 -24.5 -4 -33.5s-7.33398 -19.167 -14.001 -30.5c-22 0 -37.167 -0.166992 -45.5 -0.5s-16.5 -0.5 -24.5 -0.5c-10.667 0 -20.5 1 -29.5 3
s-13.5 6.33301 -13.5 13c0 4 1 7.33301 3 10c9.33301 6 16 12 20 18s6 10.667 6 14c0 8.66699 -3.5 15 -10.5 19s-13.833 6 -20.5 6c-3.33301 0 -7.5 -3.5 -12.5 -10.5s-11.833 -10.833 -20.5 -11.5l-71 3c-4 0 -7.5 1.33301 -10.5 4s-4.5 5 -4.5 7v3z" />
    <glyph glyph-name="threequarters" unicode="&#xbe;" horiz-adv-x="782" 
d="M136 652c6.66699 2.66699 12.001 3.99902 16.001 3.99902c9.33301 0 14 -5.33301 14 -16v-84c0 -10 -3 -15.333 -9 -16l-83 3c-4.66699 4.66699 -7 9.33398 -7 14.001c0 19.333 6.16699 37.5 18.5 54.5s29.166 30.5 50.499 40.5zM131.001 436.999
c5.33301 -1.33301 9.5 -3.83301 12.5 -7.5l8.5 -10.5l15 -15v-87l-15 -11c-13.333 0 -27 4 -41 12s-26.667 17.833 -38 29.5s-20.833 24.334 -28.5 38.001s-11.5 26.167 -11.5 37.5c0 3.33301 1.33301 6.66602 4 9.99902s6.66699 5 12 5zM184.001 603.999
c0 4.66699 0.336914 10.001 1.00391 16.001s1.66699 11.667 3 17s3.33301 10 6 14s6 6 10 6c22 -8.66699 41 -22 57 -40s24.667 -38.667 26 -62c-0.666992 -9.33301 -1.33398 -17.833 -2.00098 -25.5s-2.66699 -14.5 -6 -20.5c11.333 -10 19.166 -22 23.499 -36
s6.5 -28.333 6.5 -43c0 -34 -10.333 -62.167 -31 -84.5s-46 -35.5 -76 -39.5c-3.33301 0 -6.33301 0.833008 -9 2.5s-4 5.16699 -4 10.5l-3 78c1.33301 4.66699 5.16602 9 11.499 13s9.5 10.333 9.5 19c0 3.33301 -1.66699 6.16602 -5 8.49902s-7.33301 4.83301 -12 7.5
c-2.66699 26.667 -4.33398 53.167 -5.00098 79.5s-1 52.833 -1 79.5zM585.005 693c7.33301 0 14.998 -0.170898 22.998 -0.503906s15.667 -0.5 23 -0.5c12.667 0 25.667 1 39 3c6 -3.33301 9 -7.66602 9 -12.999c0 -1.33301 -0.666992 -2.66602 -2 -3.99902
c-13.333 -28 -31.666 -61.667 -54.999 -101l-77 -127l-88 -139l-88 -136l-76.5 -118.5c-23 -35.667 -40.833 -64.5 -53.5 -86.5v-3c0 -4 -1.66699 -6.66699 -5 -8s-7 -2 -11 -2c-15.333 0 -31 0.666992 -47 2s-31.333 2 -46 2h-8l-1 -2c-6.66699 0 -10 3.33301 -10 10
c0 0.666992 0.166992 1.33398 0.5 2.00098s0.5 1.33398 0.5 2.00098l62 94.5l79.5 125l86.5 139l83.5 136.5l70.5 117.5l48 81.5c4 11.333 7.66699 18.833 11 22.5s6 5.5 8 5.5s4.33301 -0.333008 7 -1s8.33398 -1 17.001 -1zM460.003 106.996
c8.66699 32.667 18.668 61.502 30.001 86.502s19.666 49.167 24.999 72.5c0 1.33301 1.16699 3.33301 3.5 6s5.5 4 9.5 4c8 0 16.333 -0.5 25 -1.5s17.667 -1.5 27 -1.5h13.5c4.33301 0 9.16602 0.333008 14.499 1c0.666992 0 3 -0.666992 7 -2
c0 10.667 -0.166992 21.5 -0.5 32.5s-0.833008 22.167 -1.5 33.5c1.33301 2.66699 2.83301 5 4.5 7s5.16699 3 10.5 3h47c13.333 0 21.833 -0.333008 25.5 -1s6.16699 -1.66699 7.5 -3s3.33301 -14 6 -38s4 -60 4 -108h23c6 -4 9.83301 -10.5 11.5 -19.5
s2.5 -20.167 2.5 -33.5c0 -21.333 -1.33301 -35 -4 -41s-6.33398 -9 -11.001 -9c-9.33301 0 -15.333 -4 -18 -12s-4 -19 -4 -33c0 -6.66699 0.166992 -13.667 0.5 -21s0.5 -15.333 0.5 -24c0 -6 -2.66699 -10.5 -8 -13.5s-11.833 -5.33301 -19.5 -7s-15.667 -2.66699 -24 -3
s-15.166 -0.5 -20.499 -0.5c-6 0 -11.167 0.166992 -15.5 0.5s-8.16602 1.5 -11.499 3.5s-5.83301 5.16699 -7.5 9.5s-2.5 10.833 -2.5 19.5c0 11.333 0.333008 24.166 1 38.499s1.5 29.166 2.5 44.499l3 45c1 14.667 1.5 27.667 1.5 39
c0 13.333 -0.166992 24.833 -0.5 34.5s-0.833008 18.167 -1.5 25.5c-2 -6 -4 -12.333 -6 -19s-5 -15 -9 -25c5.33301 -2.66699 9.33301 -6.66699 12 -12c-0.666992 -62.667 -7 -94 -19 -94l-53 3c-20 0 -38.5 0.666992 -55.5 2s-25.5 5 -25.5 11z" />
    <glyph glyph-name="questiondown" unicode="&#xbf;" horiz-adv-x="472" 
d="M327 554c0 -4.66699 -0.330078 -9.83301 -0.99707 -15.5s-1.83398 -11.167 -3.50098 -16.5s-4.33398 -9.83301 -8.00098 -13.5s-8.5 -5.83398 -14.5 -6.50098l-149 -3c-9.33301 3.33301 -15.833 10.5 -19.5 21.5s-6.16699 23.167 -7.5 36.5c0 12 2.66699 23.667 8 35
s12.333 21.333 21 30s18.667 15.667 30 21s23.333 8 36 8h3c30 -1.33301 54.667 -11.166 74 -29.499s29.666 -40.833 30.999 -67.5zM304.003 -3.99902c-11.333 -4.66699 -23.0039 -8.33496 -35.0039 -11.002c-8 0.666992 -12.833 2 -14.5 4s-3.16699 5.66699 -4.5 11
c0.666992 20 1.33398 38.833 2.00098 56.5s1 35.5 1 53.5v22c0 9.33301 0.333008 16 1 20s3.33398 10 8.00098 18c4.66699 4.66699 8.66699 11 12 19l9.5 23.5c3 7.66699 6.16699 14.334 9.5 20.001s7.33301 8.5 12 8.5c0.666992 0 8.33398 -2.66699 23.001 -8
s30.5 -11.833 47.5 -19.5s32.5 -15.5 46.5 -23.5s21 -14.667 21 -20s-1.66699 -11.666 -5 -18.999s-6 -14 -8 -20c-11.333 -32 -28.166 -59.5 -50.499 -82.5s-47.5 -40.5 -75.5 -52.5zM223.999 0c0 -10 -6.33496 -15.3379 -19.002 -16.0049
c-25.333 4.66699 -48.333 12.834 -69 24.501s-38.334 26 -53.001 43s-26.167 36.167 -34.5 57.5s-12.5 44.333 -12.5 69c0 36 10.333 72 31 108s46.334 72 77.001 108l-1 52c2 11.333 7.33301 18 16 20l140 -4c4 -1.33301 7.66699 -3.16602 11 -5.49902
s5 -6.16602 5 -11.499c0 -4 -0.333008 -7.83301 -1 -11.5s-1 -7.5 -1 -11.5v-28c0 -7.33301 0.166992 -13.833 0.5 -19.5s0.666016 -11 0.999023 -16s0.5 -10.5 0.5 -16.5s-2 -11.333 -6 -16c-9.33301 -11.333 -19.166 -22.5 -29.499 -33.5s-20.166 -22.333 -29.499 -34
s-17.5 -24 -24.5 -37s-11.833 -27.5 -14.5 -43.5c0.666992 -5.33301 2.33398 -11.166 5.00098 -17.499s7 -11.166 13 -14.499z" />
    <glyph glyph-name="Agrave" unicode="&#xc0;" horiz-adv-x="627" 
d="M361 646c3.33301 0 5.66602 -1.16699 6.99902 -3.5s2 -7.5 2 -15.5v-12c0 -2 -0.333008 -3.66699 -1 -5c28.667 -42.667 54.334 -88.167 77.001 -136.5s43.834 -98.333 63.501 -150s38.167 -104.167 55.5 -157.5l53 -159c0 -10 -2.5 -16.667 -7.5 -20s-9.5 -5 -13.5 -5
c-18.667 0 -36.5 1 -53.5 3s-33.833 3 -50.5 3c-14 0 -28.333 -1 -43 -3c-3.33301 0 -5 1 -5 3c-18 50 -37.333 99 -58 147l-61.5 143.5c-20.333 47.667 -39.5 95.5 -57.5 143.5s-33 96.667 -45 146c2 6 4 13 6 21s4.5 16 7.5 24s6.66699 15.333 11 22
s10.166 11.667 17.499 15zM297 211c4 -0.666992 9 -5.16406 15 -13.4971s11.667 -18.333 17 -30s10 -23.834 14 -36.501s6 -23.667 6 -33c0 -10 -5.33301 -16 -16 -18l-109 4c-5.33301 -14.667 -11.333 -29.334 -18 -44.001s-12 -30 -16 -46
c-1.33301 -6.66699 -3.33301 -11 -6 -13s-5.33398 -3 -8.00098 -3c-13.333 0 -26.5 0.666992 -39.5 2s-26.5 2 -40.5 2h-10c-4.66699 0 -9.66699 -0.166992 -15 -0.5s-11 -0.5 -17 -0.5c-12 0 -22.667 0.833008 -32 2.5s-14 5.16699 -14 10.5c0 2.66699 1.33301 5 4 7
c18 36.667 34 73.667 48 111s27.5 75.166 40.5 113.499l39 117.5c13 40 27.5 81 43.5 123c2 6.66699 6.66699 10 14 10c8.66699 0 16.334 -5.33301 23.001 -16c2.66699 -17.333 6.66699 -34 12 -50s11.166 -31.833 17.499 -47.5l20.5 -48.5c7.33301 -16.667 14 -34 20 -52
c-3.33301 -9.33301 -6.66602 -17.833 -9.99902 -25.5s-6.33301 -16.167 -9 -25.5h26zM158 766.003c-4 2.66699 -7.66797 5.33203 -11.001 7.99902s-5 6.66699 -5 12c0 2.66699 0.666992 5.66699 2 9c6.66699 10 14.167 22.833 22.5 38.5l24.5 46c8 15 15.667 28 23 39
s13.333 16.5 18 16.5c4 0 7.33301 -1 10 -3c12.667 -9.33301 28.5 -20 47.5 -32l56.5 -36l52.5 -34.5c16.333 -11 28.5 -20.5 36.5 -28.5c6 -5.33301 9 -11.666 9 -18.999c0 -4 -2.83301 -12.167 -8.5 -24.5s-12.5 -25 -20.5 -38s-15.833 -24.667 -23.5 -35
s-13.5 -15.5 -17.5 -15.5c0.666992 0 -1.66602 0.666992 -6.99902 2c-40.667 20 -78.167 37.333 -112.5 52z" />
    <glyph glyph-name="Aacute" unicode="&#xc1;" horiz-adv-x="627" 
d="M361 646c3.33301 0 5.66602 -1.16699 6.99902 -3.5s2 -7.5 2 -15.5v-12c0 -2 -0.333008 -3.66699 -1 -5c28.667 -42.667 54.334 -88.167 77.001 -136.5s43.834 -98.333 63.501 -150s38.167 -104.167 55.5 -157.5l53 -159c0 -10 -2.5 -16.667 -7.5 -20s-9.5 -5 -13.5 -5
c-18.667 0 -36.5 1 -53.5 3s-33.833 3 -50.5 3c-14 0 -28.333 -1 -43 -3c-3.33301 0 -5 1 -5 3c-18 50 -37.333 99 -58 147l-61.5 143.5c-20.333 47.667 -39.5 95.5 -57.5 143.5s-33 96.667 -45 146c2 6 4 13 6 21s4.5 16 7.5 24s6.66699 15.333 11 22
s10.166 11.667 17.499 15zM297 211c4 -0.666992 9 -5.16406 15 -13.4971s11.667 -18.333 17 -30s10 -23.834 14 -36.501s6 -23.667 6 -33c0 -10 -5.33301 -16 -16 -18l-109 4c-5.33301 -14.667 -11.333 -29.334 -18 -44.001s-12 -30 -16 -46
c-1.33301 -6.66699 -3.33301 -11 -6 -13s-5.33398 -3 -8.00098 -3c-13.333 0 -26.5 0.666992 -39.5 2s-26.5 2 -40.5 2h-10c-4.66699 0 -9.66699 -0.166992 -15 -0.5s-11 -0.5 -17 -0.5c-12 0 -22.667 0.833008 -32 2.5s-14 5.16699 -14 10.5c0 2.66699 1.33301 5 4 7
c18 36.667 34 73.667 48 111s27.5 75.166 40.5 113.499l39 117.5c13 40 27.5 81 43.5 123c2 6.66699 6.66699 10 14 10c8.66699 0 16.334 -5.33301 23.001 -16c2.66699 -17.333 6.66699 -34 12 -50s11.166 -31.833 17.499 -47.5l20.5 -48.5c7.33301 -16.667 14 -34 20 -52
c-3.33301 -9.33301 -6.66602 -17.833 -9.99902 -25.5s-6.33301 -16.167 -9 -25.5h26zM183 790.003l4.99902 4.99805c16 14 32.333 26.5 49 37.5l50.5 33l50.5 34c16.667 11.667 33 24.834 49 39.501c11.333 -9.33301 21.166 -20 29.499 -32s15.833 -24.5 22.5 -37.5
l19.5 -38.5c6.33301 -12.667 13.5 -24.334 21.5 -35.001c2 -3.33301 3 -6.66602 3 -9.99902c0 -5.33301 -4.5 -11.166 -13.5 -17.499s-20.5 -12.833 -34.5 -19.5s-29.667 -13.5 -47 -20.5l-50.5 -20l-46 -18c-14.333 -5.66699 -25.166 -10.5 -32.499 -14.5l-1 -4l-6 -2
c-4 0 -9 4.16699 -15 12.5s-12 18 -18 29l-18.5 33.5c-6.33301 11.333 -12.166 20 -17.499 26v19z" />
    <glyph glyph-name="Acircumflex" unicode="&#xc2;" horiz-adv-x="627" 
d="M361 646c3.33301 0 5.66602 -1.16699 6.99902 -3.5s2 -7.5 2 -15.5v-12c0 -2 -0.333008 -3.66699 -1 -5c28.667 -42.667 54.334 -88.167 77.001 -136.5s43.834 -98.333 63.501 -150s38.167 -104.167 55.5 -157.5l53 -159c0 -10 -2.5 -16.667 -7.5 -20s-9.5 -5 -13.5 -5
c-18.667 0 -36.5 1 -53.5 3s-33.833 3 -50.5 3c-14 0 -28.333 -1 -43 -3c-3.33301 0 -5 1 -5 3c-18 50 -37.333 99 -58 147l-61.5 143.5c-20.333 47.667 -39.5 95.5 -57.5 143.5s-33 96.667 -45 146c2 6 4 13 6 21s4.5 16 7.5 24s6.66699 15.333 11 22
s10.166 11.667 17.499 15zM297 211c4 -0.666992 9 -5.16406 15 -13.4971s11.667 -18.333 17 -30s10 -23.834 14 -36.501s6 -23.667 6 -33c0 -10 -5.33301 -16 -16 -18l-109 4c-5.33301 -14.667 -11.333 -29.334 -18 -44.001s-12 -30 -16 -46
c-1.33301 -6.66699 -3.33301 -11 -6 -13s-5.33398 -3 -8.00098 -3c-13.333 0 -26.5 0.666992 -39.5 2s-26.5 2 -40.5 2h-10c-4.66699 0 -9.66699 -0.166992 -15 -0.5s-11 -0.5 -17 -0.5c-12 0 -22.667 0.833008 -32 2.5s-14 5.16699 -14 10.5c0 2.66699 1.33301 5 4 7
c18 36.667 34 73.667 48 111s27.5 75.166 40.5 113.499l39 117.5c13 40 27.5 81 43.5 123c2 6.66699 6.66699 10 14 10c8.66699 0 16.334 -5.33301 23.001 -16c2.66699 -17.333 6.66699 -34 12 -50s11.166 -31.833 17.499 -47.5l20.5 -48.5c7.33301 -16.667 14 -34 20 -52
c-3.33301 -9.33301 -6.66602 -17.833 -9.99902 -25.5s-6.33301 -16.167 -9 -25.5h26zM159 785.003c21.333 22 40.5 42.999 57.5 62.999s37.5 41 61.5 63l62 1c6.66699 -1.33301 15.167 -7 25.5 -17s21.333 -21.667 33 -35l34.5 -39.5c11.333 -13 21 -22.833 29 -29.5l8 -12
l-1 -11c-4.66699 -6 -9.83398 -14.833 -15.501 -26.5s-11.667 -23.167 -18 -34.5s-12.5 -21.166 -18.5 -29.499s-12 -12.5 -18 -12.5c-4 0 -6.66699 0.666992 -8 2l-75 52l-21.5 -16.5c-8.33301 -6.33301 -16.833 -12.333 -25.5 -18s-16.667 -10.5 -24 -14.5s-13 -6 -17 -6
c-5.33301 0 -11.166 3.83301 -17.499 11.5s-12.5 17 -18.5 28l-18 34.5c-6 12 -11.667 22 -17 30l-1 14z" />
    <glyph glyph-name="Atilde" unicode="&#xc3;" horiz-adv-x="627" 
d="M361 646c3.33301 0 5.66602 -1.16699 6.99902 -3.5s2 -7.5 2 -15.5v-12c0 -2 -0.333008 -3.66699 -1 -5c28.667 -42.667 54.334 -88.167 77.001 -136.5s43.834 -98.333 63.501 -150s38.167 -104.167 55.5 -157.5l53 -159c0 -10 -2.5 -16.667 -7.5 -20s-9.5 -5 -13.5 -5
c-18.667 0 -36.5 1 -53.5 3s-33.833 3 -50.5 3c-14 0 -28.333 -1 -43 -3c-3.33301 0 -5 1 -5 3c-18 50 -37.333 99 -58 147l-61.5 143.5c-20.333 47.667 -39.5 95.5 -57.5 143.5s-33 96.667 -45 146c2 6 4 13 6 21s4.5 16 7.5 24s6.66699 15.333 11 22
s10.166 11.667 17.499 15zM297 211c4 -0.666992 9 -5.16406 15 -13.4971s11.667 -18.333 17 -30s10 -23.834 14 -36.501s6 -23.667 6 -33c0 -10 -5.33301 -16 -16 -18l-109 4c-5.33301 -14.667 -11.333 -29.334 -18 -44.001s-12 -30 -16 -46
c-1.33301 -6.66699 -3.33301 -11 -6 -13s-5.33398 -3 -8.00098 -3c-13.333 0 -26.5 0.666992 -39.5 2s-26.5 2 -40.5 2h-10c-4.66699 0 -9.66699 -0.166992 -15 -0.5s-11 -0.5 -17 -0.5c-12 0 -22.667 0.833008 -32 2.5s-14 5.16699 -14 10.5c0 2.66699 1.33301 5 4 7
c18 36.667 34 73.667 48 111s27.5 75.166 40.5 113.499l39 117.5c13 40 27.5 81 43.5 123c2 6.66699 6.66699 10 14 10c8.66699 0 16.334 -5.33301 23.001 -16c2.66699 -17.333 6.66699 -34 12 -50s11.166 -31.833 17.499 -47.5l20.5 -48.5c7.33301 -16.667 14 -34 20 -52
c-3.33301 -9.33301 -6.66602 -17.833 -9.99902 -25.5s-6.33301 -16.167 -9 -25.5h26zM144 784.003c-2 2.66699 -4.66895 5.50098 -8.00195 8.50098s-5 6.16699 -5 9.5c0 4 1.33301 7.66699 4 11s5.66699 6.66602 9 9.99902l28 29c8.66699 8.66699 17.667 16 27 22
s19 10.667 29 14s21.333 5 34 5c10 0 19.5 -2 28.5 -6s17.5 -8.5 25.5 -13.5s15.667 -9.5 23 -13.5s14.666 -6 21.999 -6c6.66699 0 12.667 2 18 6s10.333 8.33301 15 13l13 13c4 4 8 6 12 6c4.66699 0 9.33398 -3.5 14.001 -10.5s9.5 -15.333 14.5 -25l16 -30.5
c5.66699 -10.667 11.5 -20 17.5 -28c4.66699 -7.33301 7 -12.666 7 -15.999s-1 -6.33301 -3 -9c-9.33301 -9.33301 -18.166 -18.833 -26.499 -28.5s-17.333 -18.5 -27 -26.5s-20 -14.5 -31 -19.5s-23.5 -7.5 -37.5 -7.5c-8.66699 0 -17.167 2.33301 -25.5 7
s-16.5 10 -24.5 16s-15.667 11.333 -23 16s-14 7 -20 7c-4.66699 0 -9 -2.33301 -13 -7s-8 -9.83398 -12 -15.501l-11 -15.5c-3.33301 -4.66699 -6.33301 -7 -9 -7c-5.33301 0 -11.333 3.16699 -18 9.5s-13.667 14 -21 23s-14.666 18.833 -21.999 29.5z" />
    <glyph glyph-name="Adieresis" unicode="&#xc4;" horiz-adv-x="627" 
d="M361 646c3.33301 0 5.66602 -1.16699 6.99902 -3.5s2 -7.5 2 -15.5v-12c0 -2 -0.333008 -3.66699 -1 -5c28.667 -42.667 54.334 -88.167 77.001 -136.5s43.834 -98.333 63.501 -150s38.167 -104.167 55.5 -157.5l53 -159c0 -10 -2.5 -16.667 -7.5 -20s-9.5 -5 -13.5 -5
c-18.667 0 -36.5 1 -53.5 3s-33.833 3 -50.5 3c-14 0 -28.333 -1 -43 -3c-3.33301 0 -5 1 -5 3c-18 50 -37.333 99 -58 147l-61.5 143.5c-20.333 47.667 -39.5 95.5 -57.5 143.5s-33 96.667 -45 146c2 6 4 13 6 21s4.5 16 7.5 24s6.66699 15.333 11 22
s10.166 11.667 17.499 15zM297 211c4 -0.666992 9 -5.16406 15 -13.4971s11.667 -18.333 17 -30s10 -23.834 14 -36.501s6 -23.667 6 -33c0 -10 -5.33301 -16 -16 -18l-109 4c-5.33301 -14.667 -11.333 -29.334 -18 -44.001s-12 -30 -16 -46
c-1.33301 -6.66699 -3.33301 -11 -6 -13s-5.33398 -3 -8.00098 -3c-13.333 0 -26.5 0.666992 -39.5 2s-26.5 2 -40.5 2h-10c-4.66699 0 -9.66699 -0.166992 -15 -0.5s-11 -0.5 -17 -0.5c-12 0 -22.667 0.833008 -32 2.5s-14 5.16699 -14 10.5c0 2.66699 1.33301 5 4 7
c18 36.667 34 73.667 48 111s27.5 75.166 40.5 113.499l39 117.5c13 40 27.5 81 43.5 123c2 6.66699 6.66699 10 14 10c8.66699 0 16.334 -5.33301 23.001 -16c2.66699 -17.333 6.66699 -34 12 -50s11.166 -31.833 17.499 -47.5l20.5 -48.5c7.33301 -16.667 14 -34 20 -52
c-3.33301 -9.33301 -6.66602 -17.833 -9.99902 -25.5s-6.33301 -16.167 -9 -25.5h26zM445 684.003c-13.333 0 -25.833 3.00293 -37.5 9.00293s-22.167 13.667 -31.5 23s-16.666 20.166 -21.999 32.499s-8 24.833 -8 37.5c0 14 2.66699 27.167 8 39.5
s12.5 23.166 21.5 32.499s19.667 16.833 32 22.5s25.166 8.5 38.499 8.5c12 0 24 -3 36 -9s22.667 -13.667 32 -23s17 -19.833 23 -31.5s9 -23.167 9 -34.5c0 -29.333 -9.33301 -53.833 -28 -73.5s-43 -30.834 -73 -33.501zM193 889.006
c13.333 0 26.166 -3.00098 38.499 -9.00098s23.333 -13.833 33 -23.5s17.334 -20.334 23.001 -32.001s8.5 -22.834 8.5 -33.501c0 -15.333 -3 -29.666 -9 -42.999s-13.833 -24.666 -23.5 -33.999s-20.667 -16.666 -33 -21.999s-24.833 -8 -37.5 -8c-12 0 -23.833 3 -35.5 9
s-22.167 13.667 -31.5 23s-17 19.833 -23 31.5s-9.33301 23.167 -10 34.5c0 14.667 3 28 9 40s13.833 22.667 23.5 32s20.5 17 32.5 23s23.667 10 35 12z" />
    <glyph glyph-name="Aring" unicode="&#xc5;" horiz-adv-x="627" 
d="M361 646c3.33301 0 5.66602 -1.16699 6.99902 -3.5s2 -7.5 2 -15.5v-12c0 -2 -0.333008 -3.66699 -1 -5c28.667 -42.667 54.334 -88.167 77.001 -136.5s43.834 -98.333 63.501 -150s38.167 -104.167 55.5 -157.5l53 -159c0 -10 -2.5 -16.667 -7.5 -20s-9.5 -5 -13.5 -5
c-18.667 0 -36.5 1 -53.5 3s-33.833 3 -50.5 3c-14 0 -28.333 -1 -43 -3c-3.33301 0 -5 1 -5 3c-18 50 -37.333 99 -58 147l-61.5 143.5c-20.333 47.667 -39.5 95.5 -57.5 143.5s-33 96.667 -45 146c2 6 4 13 6 21s4.5 16 7.5 24s6.66699 15.333 11 22
s10.166 11.667 17.499 15zM297 211c4 -0.666992 9 -5.16406 15 -13.4971s11.667 -18.333 17 -30s10 -23.834 14 -36.501s6 -23.667 6 -33c0 -10 -5.33301 -16 -16 -18l-109 4c-5.33301 -14.667 -11.333 -29.334 -18 -44.001s-12 -30 -16 -46
c-1.33301 -6.66699 -3.33301 -11 -6 -13s-5.33398 -3 -8.00098 -3c-13.333 0 -26.5 0.666992 -39.5 2s-26.5 2 -40.5 2h-10c-4.66699 0 -9.66699 -0.166992 -15 -0.5s-11 -0.5 -17 -0.5c-12 0 -22.667 0.833008 -32 2.5s-14 5.16699 -14 10.5c0 2.66699 1.33301 5 4 7
c18 36.667 34 73.667 48 111s27.5 75.166 40.5 113.499l39 117.5c13 40 27.5 81 43.5 123c2 6.66699 6.66699 10 14 10c8.66699 0 16.334 -5.33301 23.001 -16c2.66699 -17.333 6.66699 -34 12 -50s11.166 -31.833 17.499 -47.5l20.5 -48.5c7.33301 -16.667 14 -34 20 -52
c-3.33301 -9.33301 -6.66602 -17.833 -9.99902 -25.5s-6.33301 -16.167 -9 -25.5h26zM182 816.003c0 16.667 3.16406 32.667 9.49707 48s15.166 28.833 26.499 40.5s24.833 21 40.5 28s32.834 10.5 51.501 10.5h8c14.667 -0.666992 29.334 -4.66699 44.001 -12
s28 -16.833 40 -28.5s21.667 -24.834 29 -39.501s11 -30 11 -46c0 -16.667 -3.16699 -32.834 -9.5 -48.501s-14.833 -29.667 -25.5 -42s-23.5 -22.166 -38.5 -29.499s-30.833 -11 -47.5 -11h-25c-13.333 0 -26.5 3.33301 -39.5 10s-24.667 15.834 -35 27.501
s-19.166 25.5 -26.499 41.5s-11.666 33 -12.999 51z" />
    <glyph glyph-name="AE" unicode="&#xc6;" horiz-adv-x="849" 
d="M582 159l54.001 -0.000976562c8 0 17.833 0.166992 29.5 0.5s24.167 0.5 37.5 0.5c12.667 0 25.834 -0.333008 39.501 -1s26 -1.66699 37 -3s20.167 -3.66602 27.5 -6.99902s11.666 -7.33301 12.999 -12l-3 -135c-2.66699 -11.333 -8.5 -18.5 -17.5 -21.5
s-20.5 -4.5 -34.5 -4.5h-62c-23.333 0 -45.5 0.833008 -66.5 2.5s-38.833 4.16699 -53.5 7.5s-23 8.33301 -25 15l3 136c1.33301 4.66699 3.16602 8.66699 5.49902 12s5.5 5 9.5 5zM561.001 343.999c3.33301 10.667 8.3291 15.9951 14.9961 15.9951h5
c8.66699 -1.33301 17.667 -2 27 -2h29c19.333 0 38.833 0.333008 58.5 1s38.834 1 57.501 1c19.333 0 31.666 -3.66699 36.999 -11s8 -17.666 8 -30.999c0 -5.33301 -0.166992 -10.666 -0.5 -15.999s-0.5 -11.333 -0.5 -18v-28c0 -7.33301 -0.166992 -14.666 -0.5 -21.999
s-1.16602 -14.166 -2.49902 -20.499s-3.16602 -11.666 -5.49902 -15.999s-5.5 -6.83301 -9.5 -7.5c-8 0.666992 -16.167 1.16699 -24.5 1.5s-17.166 0.5 -26.499 0.5c-17.333 0 -34.666 -0.333008 -51.999 -1s-35.333 -1 -54 -1h-22c-7.33301 0 -15 0.333008 -23 1l-8 3
l-11 16zM569.997 643.994l11.999 5c20 -1.33301 41.833 -2.33301 65.5 -3s48.167 -1 73.5 -1h63c6 -2 9.5 -3.83301 10.5 -5.5s1.5 -5.16699 1.5 -10.5l3 -137c-1.33301 -3.33301 -3 -6.5 -5 -9.5s-5 -4.5 -9 -4.5h-182h-12.5c-4.33301 0 -8.83301 -0.333008 -13.5 -1
c-8.66699 2.66699 -13 6 -13 10c0 2.66699 0.333008 4.66699 1 6c-1.33301 25.333 -2.16602 49 -2.49902 71s-0.5 44 -0.5 66zM411.996 616.994c7.33301 8 14.332 14.835 20.999 20.502s13.667 8.5 21 8.5c31.333 0 52.833 -1 64.5 -3s17.5 -7.33301 17.5 -16v-603
c0 -14.667 -3.16699 -25.167 -9.5 -31.5s-20.166 -9.5 -41.499 -9.5c-18.667 0 -36.834 0.166992 -54.501 0.5s-33.5 1.83301 -47.5 4.5c-7.33301 0 -11.833 2.16699 -13.5 6.5s-2.5 10.166 -2.5 17.499c0 26.667 0.5 53.667 1.5 81s2.5 60.666 4.5 99.999l-67 -5
c-14.667 -17.333 -28 -34.5 -40 -51.5l-35.5 -51l-36 -51c-12.333 -17 -26.166 -33.833 -41.499 -50.5h-172c-6.66699 0 -11.667 1.66699 -15 5s-5 7.33301 -5 12c0 3.33301 1 6 3 8c41.333 52.667 79.333 103.834 114 153.501l103.5 149l106.5 150
c36.667 50.333 78 102.166 124 155.499z" />
    <glyph glyph-name="Ccedilla" unicode="&#xc7;" horiz-adv-x="566" 
d="M387 665c10.667 0 23.002 -0.328125 37.002 -0.995117s27.167 -3 39.5 -7s22.666 -9.83301 30.999 -17.5s12.5 -18.5 12.5 -32.5c0 -22.667 -0.5 -45.334 -1.5 -68.001s-1.83301 -45.334 -2.5 -68.001c0 -10 -5.33301 -15 -16 -15
c-2.66699 0 -5.33398 0.666992 -8.00098 2c-12.667 8.66699 -25.334 15.834 -38.001 21.501s-27.334 8.5 -44.001 8.5c-50.667 0 -92.667 -13.333 -126 -40s-54.666 -69.334 -63.999 -128.001c0 -24 4.66699 -46.5 14 -67.5s22 -39.333 38 -55s34.667 -27.834 56 -36.501
s44 -13 68 -13c17.333 0 32.5 1.5 45.5 4.5s26.167 8.5 39.5 16.5c3.33301 3.33301 6.5 6 9.5 8s6.16699 3 9.5 3c4.66699 0 8.83398 -1.33301 12.501 -4s6.16699 -5.66699 7.5 -9l-4 -159c-1.33301 -6.66699 -6.5 -12.167 -15.5 -16.5s-19.667 -8.16602 -32 -11.499
l-39.5 -10.5c-14 -3.66699 -26 -7.83398 -36 -12.501c-43.333 6 -85.5 20.167 -126.5 42.5s-77.5 50.166 -109.5 83.499s-57.833 71 -77.5 113s-29.5 86 -29.5 132s10 88.667 30 128s46.333 74 79 104s70 54.167 112 72.5s85 29.166 129 32.499zM190.002 -222.995
c-5.33301 2.66699 -8.00195 7.00098 -8.00195 13.001c0 5.33301 2 15.333 6 30l13.5 48.5l15.5 53c5.33301 17.667 9.33301 32.167 12 43.5c2 9.33301 4.66699 14.666 8 15.999s7 2 11 2c10 -2.66699 21.167 -5.83398 33.5 -9.50098s24.5 -7.5 36.5 -11.5
s23 -7.83301 33 -11.5s18 -6.83398 24 -9.50098c5.33301 -1.33301 8 -4.66602 8 -9.99902c0 -3.33301 -1 -7 -3 -11c-4 -10.667 -9.16699 -22.667 -15.5 -36l-20.5 -42c-7.33301 -14.667 -15.166 -29.5 -23.499 -44.5l-24.5 -43.5c-2 -3.33301 -3.66699 -6 -5 -8
s-3.66602 -3 -6.99902 -3c-6 0 -13 1.33301 -21 4s-16.5 5.83398 -25.5 9.50098l-26 11z" />
    <glyph glyph-name="Egrave" unicode="&#xc8;" horiz-adv-x="550" 
d="M219 645c13.333 0 22.668 -5.66211 28.001 -16.9951v-64c0 -51.333 -0.666992 -99.833 -2 -145.5s-3 -90.834 -5 -135.501s-3.66699 -90 -5 -136s-2 -94.667 -2 -146c0 -9.33301 -5.33301 -16.333 -16 -21c-16 3.33301 -32.833 5.16602 -50.5 5.49902
s-35.834 0.5 -54.501 0.5h-36c-10.667 2.66699 -16 7.66699 -16 15c0 3.33301 0.166992 9.16602 0.5 17.499s0.5 15.166 0.5 20.499c0 21.333 -0.666992 42.666 -2 63.999s-2 45 -2 71c0 54.667 1.5 108 4.5 160s4.5 107 4.5 165c0 20.667 -0.166992 41.5 -0.5 62.5
s-1.5 43.167 -3.5 66.5c1.33301 4 3 7.66699 5 11s5.33301 5.33301 10 6c24 -2 50 -3 78 -3c22.667 0 44 1 64 3zM337.002 157.005c8 0 17.834 0.163086 29.501 0.496094s24.167 0.5 37.5 0.5c12.667 0 25.834 -0.333008 39.501 -1s26 -1.66699 37 -3
s20.167 -3.66602 27.5 -6.99902s11.666 -7.33301 12.999 -12c0 -22 -0.333008 -44.167 -1 -66.5l-2 -66.5c-2.66699 -11.333 -8.5 -18.5 -17.5 -21.5s-20.5 -4.5 -34.5 -4.5h-62c-23.333 0 -45.5 0.833008 -66.5 2.5s-38.833 4.16699 -53.5 7.5s-23 8.33301 -25 15
c0 6.66699 0.166992 15.834 0.5 27.501s0.666016 24 0.999023 37l1 38.5c0.333008 12.667 0.5 23 0.5 31c1.33301 4.66699 3.33301 8.83398 6 12.501s7.66699 6.83398 15 9.50098h54zM262.003 344.001c0 3.33301 1.49902 6.83203 4.49902 10.499s6.5 5.5 10.5 5.5
c7.33301 0 16.833 -0.333008 28.5 -1s22.5 -1 32.5 -1c19.333 0 38.833 0.333008 58.5 1s38.834 1 57.501 1c19.333 0 31.666 -3.66699 36.999 -11s8 -17.666 8 -30.999c0 -5.33301 -0.166992 -10.666 -0.5 -15.999s-0.5 -11.333 -0.5 -18v-45c0 -14 -1.16699 -25 -3.5 -33
s-7.16602 -12.667 -14.499 -14c-8 0.666992 -16.167 1.16699 -24.5 1.5s-17.166 0.5 -26.499 0.5c-20.667 0 -41.5 -0.5 -62.5 -1.5s-42.833 -1.5 -65.5 -1.5c-10 0 -19.333 1.16699 -28 3.5s-13.334 8.16602 -14.001 17.499zM263.002 630
c1.33301 4.66699 3.5 8.83203 6.5 12.499s7.5 5.83398 13.5 6.50098c20 -1.33301 41.833 -2.33301 65.5 -3s48.167 -1 73.5 -1h63c8 0 12 -5.33301 12 -16c0 -20 0.5 -43 1.5 -69s1.5 -48.667 1.5 -68c0 -9.33301 -4.66699 -14 -14 -14h-182
c-4 0 -8.33301 -0.166992 -13 -0.5s-9 -0.5 -13 -0.5c-8.66699 0 -13 3.33301 -13 10c0 18 -0.333008 37.5 -1 58.5s-1 49.167 -1 84.5zM120.002 765.998c-4 2.66699 -7.66797 5.33203 -11.001 7.99902s-5 6.66699 -5 12c0 2.66699 0.666992 5.66699 2 9
c6.66699 10 14.167 22.833 22.5 38.5l24.5 46c8 15 15.667 28 23 39s13.333 16.5 18 16.5c4 0 7.33301 -1 10 -3c12.667 -9.33301 28.5 -20 47.5 -32l56.5 -36l52.5 -34.5c16.333 -11 28.5 -20.5 36.5 -28.5c6 -5.33301 9 -11.666 9 -18.999
c0 -4 -2.83301 -12.167 -8.5 -24.5s-12.5 -25 -20.5 -38s-15.833 -24.667 -23.5 -35s-13.5 -15.5 -17.5 -15.5c0.666992 0 -1.66602 0.666992 -6.99902 2c-40.667 20 -78.167 37.333 -112.5 52z" />
    <glyph glyph-name="Eacute" unicode="&#xc9;" horiz-adv-x="550" 
d="M219 645c13.333 0 22.668 -5.66211 28.001 -16.9951v-64c0 -51.333 -0.666992 -99.833 -2 -145.5s-3 -90.834 -5 -135.501s-3.66699 -90 -5 -136s-2 -94.667 -2 -146c0 -9.33301 -5.33301 -16.333 -16 -21c-16 3.33301 -32.833 5.16602 -50.5 5.49902
s-35.834 0.5 -54.501 0.5h-36c-10.667 2.66699 -16 7.66699 -16 15c0 3.33301 0.166992 9.16602 0.5 17.499s0.5 15.166 0.5 20.499c0 21.333 -0.666992 42.666 -2 63.999s-2 45 -2 71c0 54.667 1.5 108 4.5 160s4.5 107 4.5 165c0 20.667 -0.166992 41.5 -0.5 62.5
s-1.5 43.167 -3.5 66.5c1.33301 4 3 7.66699 5 11s5.33301 5.33301 10 6c24 -2 50 -3 78 -3c22.667 0 44 1 64 3zM337.002 157.005c8 0 17.834 0.163086 29.501 0.496094s24.167 0.5 37.5 0.5c12.667 0 25.834 -0.333008 39.501 -1s26 -1.66699 37 -3
s20.167 -3.66602 27.5 -6.99902s11.666 -7.33301 12.999 -12c0 -22 -0.333008 -44.167 -1 -66.5l-2 -66.5c-2.66699 -11.333 -8.5 -18.5 -17.5 -21.5s-20.5 -4.5 -34.5 -4.5h-62c-23.333 0 -45.5 0.833008 -66.5 2.5s-38.833 4.16699 -53.5 7.5s-23 8.33301 -25 15
c0 6.66699 0.166992 15.834 0.5 27.501s0.666016 24 0.999023 37l1 38.5c0.333008 12.667 0.5 23 0.5 31c1.33301 4.66699 3.33301 8.83398 6 12.501s7.66699 6.83398 15 9.50098h54zM262.003 344.001c0 3.33301 1.49902 6.83203 4.49902 10.499s6.5 5.5 10.5 5.5
c7.33301 0 16.833 -0.333008 28.5 -1s22.5 -1 32.5 -1c19.333 0 38.833 0.333008 58.5 1s38.834 1 57.501 1c19.333 0 31.666 -3.66699 36.999 -11s8 -17.666 8 -30.999c0 -5.33301 -0.166992 -10.666 -0.5 -15.999s-0.5 -11.333 -0.5 -18v-45c0 -14 -1.16699 -25 -3.5 -33
s-7.16602 -12.667 -14.499 -14c-8 0.666992 -16.167 1.16699 -24.5 1.5s-17.166 0.5 -26.499 0.5c-20.667 0 -41.5 -0.5 -62.5 -1.5s-42.833 -1.5 -65.5 -1.5c-10 0 -19.333 1.16699 -28 3.5s-13.334 8.16602 -14.001 17.499zM263.002 630
c1.33301 4.66699 3.5 8.83203 6.5 12.499s7.5 5.83398 13.5 6.50098c20 -1.33301 41.833 -2.33301 65.5 -3s48.167 -1 73.5 -1h63c8 0 12 -5.33301 12 -16c0 -20 0.5 -43 1.5 -69s1.5 -48.667 1.5 -68c0 -9.33301 -4.66699 -14 -14 -14h-182
c-4 0 -8.33301 -0.166992 -13 -0.5s-9 -0.5 -13 -0.5c-8.66699 0 -13 3.33301 -13 10c0 18 -0.333008 37.5 -1 58.5s-1 49.167 -1 84.5zM145.002 789.998l4.99902 4.99805c16 14 32.333 26.5 49 37.5l50.5 33l50.5 34c16.667 11.667 33 24.834 49 39.501
c11.333 -9.33301 21.166 -20 29.499 -32s15.833 -24.5 22.5 -37.5l19.5 -38.5c6.33301 -12.667 13.5 -24.334 21.5 -35.001c2 -3.33301 3 -6.66602 3 -9.99902c0 -5.33301 -4.5 -11.166 -13.5 -17.499s-20.5 -12.833 -34.5 -19.5s-29.667 -13.5 -47 -20.5l-50.5 -20l-46 -18
c-14.333 -5.66699 -25.166 -10.5 -32.499 -14.5l-1 -4l-6 -2c-4 0 -9 4.16699 -15 12.5s-12 18 -18 29l-18.5 33.5c-6.33301 11.333 -12.166 20 -17.499 26v19z" />
    <glyph glyph-name="Ecircumflex" unicode="&#xca;" horiz-adv-x="550" 
d="M219 645c13.333 0 22.668 -5.66211 28.001 -16.9951v-64c0 -51.333 -0.666992 -99.833 -2 -145.5s-3 -90.834 -5 -135.501s-3.66699 -90 -5 -136s-2 -94.667 -2 -146c0 -9.33301 -5.33301 -16.333 -16 -21c-16 3.33301 -32.833 5.16602 -50.5 5.49902
s-35.834 0.5 -54.501 0.5h-36c-10.667 2.66699 -16 7.66699 -16 15c0 3.33301 0.166992 9.16602 0.5 17.499s0.5 15.166 0.5 20.499c0 21.333 -0.666992 42.666 -2 63.999s-2 45 -2 71c0 54.667 1.5 108 4.5 160s4.5 107 4.5 165c0 20.667 -0.166992 41.5 -0.5 62.5
s-1.5 43.167 -3.5 66.5c1.33301 4 3 7.66699 5 11s5.33301 5.33301 10 6c24 -2 50 -3 78 -3c22.667 0 44 1 64 3zM337.002 157.005c8 0 17.834 0.163086 29.501 0.496094s24.167 0.5 37.5 0.5c12.667 0 25.834 -0.333008 39.501 -1s26 -1.66699 37 -3
s20.167 -3.66602 27.5 -6.99902s11.666 -7.33301 12.999 -12c0 -22 -0.333008 -44.167 -1 -66.5l-2 -66.5c-2.66699 -11.333 -8.5 -18.5 -17.5 -21.5s-20.5 -4.5 -34.5 -4.5h-62c-23.333 0 -45.5 0.833008 -66.5 2.5s-38.833 4.16699 -53.5 7.5s-23 8.33301 -25 15
c0 6.66699 0.166992 15.834 0.5 27.501s0.666016 24 0.999023 37l1 38.5c0.333008 12.667 0.5 23 0.5 31c1.33301 4.66699 3.33301 8.83398 6 12.501s7.66699 6.83398 15 9.50098h54zM262.003 344.001c0 3.33301 1.49902 6.83203 4.49902 10.499s6.5 5.5 10.5 5.5
c7.33301 0 16.833 -0.333008 28.5 -1s22.5 -1 32.5 -1c19.333 0 38.833 0.333008 58.5 1s38.834 1 57.501 1c19.333 0 31.666 -3.66699 36.999 -11s8 -17.666 8 -30.999c0 -5.33301 -0.166992 -10.666 -0.5 -15.999s-0.5 -11.333 -0.5 -18v-45c0 -14 -1.16699 -25 -3.5 -33
s-7.16602 -12.667 -14.499 -14c-8 0.666992 -16.167 1.16699 -24.5 1.5s-17.166 0.5 -26.499 0.5c-20.667 0 -41.5 -0.5 -62.5 -1.5s-42.833 -1.5 -65.5 -1.5c-10 0 -19.333 1.16699 -28 3.5s-13.334 8.16602 -14.001 17.499zM263.002 630
c1.33301 4.66699 3.5 8.83203 6.5 12.499s7.5 5.83398 13.5 6.50098c20 -1.33301 41.833 -2.33301 65.5 -3s48.167 -1 73.5 -1h63c8 0 12 -5.33301 12 -16c0 -20 0.5 -43 1.5 -69s1.5 -48.667 1.5 -68c0 -9.33301 -4.66699 -14 -14 -14h-182
c-4 0 -8.33301 -0.166992 -13 -0.5s-9 -0.5 -13 -0.5c-8.66699 0 -13 3.33301 -13 10c0 18 -0.333008 37.5 -1 58.5s-1 49.167 -1 84.5zM121.002 784.998c21.333 22 40.5 42.999 57.5 62.999s37.5 41 61.5 63l62 1c6.66699 -1.33301 15.167 -7 25.5 -17
s21.333 -21.667 33 -35l34.5 -39.5c11.333 -13 21 -22.833 29 -29.5l8 -12l-1 -11c-4.66699 -6 -9.83398 -14.833 -15.501 -26.5s-11.667 -23.167 -18 -34.5s-12.5 -21.166 -18.5 -29.499s-12 -12.5 -18 -12.5c-4 0 -6.66699 0.666992 -8 2l-75 52l-21.5 -16.5
c-8.33301 -6.33301 -16.833 -12.333 -25.5 -18s-16.667 -10.5 -24 -14.5s-13 -6 -17 -6c-5.33301 0 -11.166 3.83301 -17.499 11.5s-12.5 17 -18.5 28l-18 34.5c-6 12 -11.667 22 -17 30l-1 14z" />
    <glyph glyph-name="Edieresis" unicode="&#xcb;" horiz-adv-x="550" 
d="M219 645c13.333 0 22.668 -5.66211 28.001 -16.9951v-64c0 -51.333 -0.666992 -99.833 -2 -145.5s-3 -90.834 -5 -135.501s-3.66699 -90 -5 -136s-2 -94.667 -2 -146c0 -9.33301 -5.33301 -16.333 -16 -21c-16 3.33301 -32.833 5.16602 -50.5 5.49902
s-35.834 0.5 -54.501 0.5h-36c-10.667 2.66699 -16 7.66699 -16 15c0 3.33301 0.166992 9.16602 0.5 17.499s0.5 15.166 0.5 20.499c0 21.333 -0.666992 42.666 -2 63.999s-2 45 -2 71c0 54.667 1.5 108 4.5 160s4.5 107 4.5 165c0 20.667 -0.166992 41.5 -0.5 62.5
s-1.5 43.167 -3.5 66.5c1.33301 4 3 7.66699 5 11s5.33301 5.33301 10 6c24 -2 50 -3 78 -3c22.667 0 44 1 64 3zM337.002 157.005c8 0 17.834 0.163086 29.501 0.496094s24.167 0.5 37.5 0.5c12.667 0 25.834 -0.333008 39.501 -1s26 -1.66699 37 -3
s20.167 -3.66602 27.5 -6.99902s11.666 -7.33301 12.999 -12c0 -22 -0.333008 -44.167 -1 -66.5l-2 -66.5c-2.66699 -11.333 -8.5 -18.5 -17.5 -21.5s-20.5 -4.5 -34.5 -4.5h-62c-23.333 0 -45.5 0.833008 -66.5 2.5s-38.833 4.16699 -53.5 7.5s-23 8.33301 -25 15
c0 6.66699 0.166992 15.834 0.5 27.501s0.666016 24 0.999023 37l1 38.5c0.333008 12.667 0.5 23 0.5 31c1.33301 4.66699 3.33301 8.83398 6 12.501s7.66699 6.83398 15 9.50098h54zM262.003 344.001c0 3.33301 1.49902 6.83203 4.49902 10.499s6.5 5.5 10.5 5.5
c7.33301 0 16.833 -0.333008 28.5 -1s22.5 -1 32.5 -1c19.333 0 38.833 0.333008 58.5 1s38.834 1 57.501 1c19.333 0 31.666 -3.66699 36.999 -11s8 -17.666 8 -30.999c0 -5.33301 -0.166992 -10.666 -0.5 -15.999s-0.5 -11.333 -0.5 -18v-45c0 -14 -1.16699 -25 -3.5 -33
s-7.16602 -12.667 -14.499 -14c-8 0.666992 -16.167 1.16699 -24.5 1.5s-17.166 0.5 -26.499 0.5c-20.667 0 -41.5 -0.5 -62.5 -1.5s-42.833 -1.5 -65.5 -1.5c-10 0 -19.333 1.16699 -28 3.5s-13.334 8.16602 -14.001 17.499zM263.002 630
c1.33301 4.66699 3.5 8.83203 6.5 12.499s7.5 5.83398 13.5 6.50098c20 -1.33301 41.833 -2.33301 65.5 -3s48.167 -1 73.5 -1h63c8 0 12 -5.33301 12 -16c0 -20 0.5 -43 1.5 -69s1.5 -48.667 1.5 -68c0 -9.33301 -4.66699 -14 -14 -14h-182
c-4 0 -8.33301 -0.166992 -13 -0.5s-9 -0.5 -13 -0.5c-8.66699 0 -13 3.33301 -13 10c0 18 -0.333008 37.5 -1 58.5s-1 49.167 -1 84.5zM407.002 683.998c-13.333 0 -25.833 3.00293 -37.5 9.00293s-22.167 13.667 -31.5 23s-16.666 20.166 -21.999 32.499
s-8 24.833 -8 37.5c0 14 2.66699 27.167 8 39.5s12.5 23.166 21.5 32.499s19.667 16.833 32 22.5s25.166 8.5 38.499 8.5c12 0 24 -3 36 -9s22.667 -13.667 32 -23s17 -19.833 23 -31.5s9 -23.167 9 -34.5c0 -29.333 -9.33301 -53.833 -28 -73.5s-43 -30.834 -73 -33.501z
M155.002 889.001c13.333 0 26.166 -3.00098 38.499 -9.00098s23.333 -13.833 33 -23.5s17.334 -20.334 23.001 -32.001s8.5 -22.834 8.5 -33.501c0 -15.333 -3 -29.666 -9 -42.999s-13.833 -24.666 -23.5 -33.999s-20.667 -16.666 -33 -21.999s-24.833 -8 -37.5 -8
c-12 0 -23.833 3 -35.5 9s-22.167 13.667 -31.5 23s-17 19.833 -23 31.5s-9.33301 23.167 -10 34.5c0 14.667 3 28 9 40s13.833 22.667 23.5 32s20.5 17 32.5 23s23.667 10 35 12z" />
    <glyph glyph-name="Igrave" unicode="&#xcc;" horiz-adv-x="295" 
d="M55 605c2.66699 17.333 5.83398 27.999 9.50098 31.999s7.83398 6.66699 12.501 8c3.33301 0 6.83301 -0.166992 10.5 -0.5s7.16699 -0.5 10.5 -0.5c15.333 0 29.666 0.5 42.999 1.5s26.666 1.5 39.999 1.5c6 0 12 -0.166992 18 -0.5s11.667 -0.833008 17 -1.5h2
c5.33301 0 9 -1.5 11 -4.5s3.66699 -6.83301 5 -11.5l21 -616c-10.667 -10.667 -18.334 -17.5 -23.001 -20.5s-9 -5.16699 -13 -6.5c-21.333 -0.666992 -44.666 -1 -69.999 -1h-72c-10 0.666992 -15.333 6.33398 -16 17.001zM-7 765.999
c-4 2.66699 -7.66797 5.33203 -11.001 7.99902s-5 6.66699 -5 12c0 2.66699 0.666992 5.66699 2 9c6.66699 10 14.167 22.833 22.5 38.5l24.5 46c8 15 15.667 28 23 39s13.333 16.5 18 16.5c4 0 7.33301 -1 10 -3c12.667 -9.33301 28.5 -20 47.5 -32l56.5 -36l52.5 -34.5
c16.333 -11 28.5 -20.5 36.5 -28.5c6 -5.33301 9 -11.666 9 -18.999c0 -4 -2.83301 -12.167 -8.5 -24.5s-12.5 -25 -20.5 -38s-15.833 -24.667 -23.5 -35s-13.5 -15.5 -17.5 -15.5c0.666992 0 -1.66602 0.666992 -6.99902 2c-40.667 20 -78.167 37.333 -112.5 52z" />
    <glyph glyph-name="Iacute" unicode="&#xcd;" horiz-adv-x="295" 
d="M55 605c2.66699 17.333 5.83398 27.999 9.50098 31.999s7.83398 6.66699 12.501 8c3.33301 0 6.83301 -0.166992 10.5 -0.5s7.16699 -0.5 10.5 -0.5c15.333 0 29.666 0.5 42.999 1.5s26.666 1.5 39.999 1.5c6 0 12 -0.166992 18 -0.5s11.667 -0.833008 17 -1.5h2
c5.33301 0 9 -1.5 11 -4.5s3.66699 -6.83301 5 -11.5l21 -616c-10.667 -10.667 -18.334 -17.5 -23.001 -20.5s-9 -5.16699 -13 -6.5c-21.333 -0.666992 -44.666 -1 -69.999 -1h-72c-10 0.666992 -15.333 6.33398 -16 17.001zM18 789.999l4.99902 4.99805
c16 14 32.333 26.5 49 37.5l50.5 33l50.5 34c16.667 11.667 33 24.834 49 39.501c11.333 -9.33301 21.166 -20 29.499 -32s15.833 -24.5 22.5 -37.5l19.5 -38.5c6.33301 -12.667 13.5 -24.334 21.5 -35.001c2 -3.33301 3 -6.66602 3 -9.99902
c0 -5.33301 -4.5 -11.166 -13.5 -17.499s-20.5 -12.833 -34.5 -19.5s-29.667 -13.5 -47 -20.5l-50.5 -20l-46 -18c-14.333 -5.66699 -25.166 -10.5 -32.499 -14.5l-1 -4l-6 -2c-4 0 -9 4.16699 -15 12.5s-12 18 -18 29l-18.5 33.5c-6.33301 11.333 -12.166 20 -17.499 26v19
z" />
    <glyph glyph-name="Icircumflex" unicode="&#xce;" horiz-adv-x="295" 
d="M55 605c2.66699 17.333 5.83398 27.999 9.50098 31.999s7.83398 6.66699 12.501 8c3.33301 0 6.83301 -0.166992 10.5 -0.5s7.16699 -0.5 10.5 -0.5c15.333 0 29.666 0.5 42.999 1.5s26.666 1.5 39.999 1.5c6 0 12 -0.166992 18 -0.5s11.667 -0.833008 17 -1.5h2
c5.33301 0 9 -1.5 11 -4.5s3.66699 -6.83301 5 -11.5l21 -616c-10.667 -10.667 -18.334 -17.5 -23.001 -20.5s-9 -5.16699 -13 -6.5c-21.333 -0.666992 -44.666 -1 -69.999 -1h-72c-10 0.666992 -15.333 6.33398 -16 17.001zM-6 784.999c21.333 22 40.5 42.999 57.5 62.999
s37.5 41 61.5 63l62 1c6.66699 -1.33301 15.167 -7 25.5 -17s21.333 -21.667 33 -35l34.5 -39.5c11.333 -13 21 -22.833 29 -29.5l8 -12l-1 -11c-4.66699 -6 -9.83398 -14.833 -15.501 -26.5s-11.667 -23.167 -18 -34.5s-12.5 -21.166 -18.5 -29.499s-12 -12.5 -18 -12.5
c-4 0 -6.66699 0.666992 -8 2l-75 52l-21.5 -16.5c-8.33301 -6.33301 -16.833 -12.333 -25.5 -18s-16.667 -10.5 -24 -14.5s-13 -6 -17 -6c-5.33301 0 -11.166 3.83301 -17.499 11.5s-12.5 17 -18.5 28l-18 34.5c-6 12 -11.667 22 -17 30l-1 14z" />
    <glyph glyph-name="Idieresis" unicode="&#xcf;" horiz-adv-x="295" 
d="M55 605c2.66699 17.333 5.83398 27.999 9.50098 31.999s7.83398 6.66699 12.501 8c3.33301 0 6.83301 -0.166992 10.5 -0.5s7.16699 -0.5 10.5 -0.5c15.333 0 29.666 0.5 42.999 1.5s26.666 1.5 39.999 1.5c6 0 12 -0.166992 18 -0.5s11.667 -0.833008 17 -1.5h2
c5.33301 0 9 -1.5 11 -4.5s3.66699 -6.83301 5 -11.5l21 -616c-10.667 -10.667 -18.334 -17.5 -23.001 -20.5s-9 -5.16699 -13 -6.5c-21.333 -0.666992 -44.666 -1 -69.999 -1h-72c-10 0.666992 -15.333 6.33398 -16 17.001zM280 683.999
c-13.333 0 -25.833 3.00293 -37.5 9.00293s-22.167 13.667 -31.5 23s-16.666 20.166 -21.999 32.499s-8 24.833 -8 37.5c0 14 2.66699 27.167 8 39.5s12.5 23.166 21.5 32.499s19.667 16.833 32 22.5s25.166 8.5 38.499 8.5c12 0 24 -3 36 -9s22.667 -13.667 32 -23
s17 -19.833 23 -31.5s9 -23.167 9 -34.5c0 -29.333 -9.33301 -53.833 -28 -73.5s-43 -30.834 -73 -33.501zM28 889.002c13.333 0 26.166 -3.00098 38.499 -9.00098s23.333 -13.833 33 -23.5s17.334 -20.334 23.001 -32.001s8.5 -22.834 8.5 -33.501
c0 -15.333 -3 -29.666 -9 -42.999s-13.833 -24.666 -23.5 -33.999s-20.667 -16.666 -33 -21.999s-24.833 -8 -37.5 -8c-12 0 -23.833 3 -35.5 9s-22.167 13.667 -31.5 23s-17 19.833 -23 31.5s-9.33301 23.167 -10 34.5c0 14.667 3 28 9 40s13.833 22.667 23.5 32
s20.5 17 32.5 23s23.667 10 35 12z" />
    </font>
</defs>
</svg>
